<svg xmlns="http://www.w3.org/2000/svg" width="65.24" height="133.003" viewBox="0 0 65.24 133.003">
  <g id="Group_4_2_" data-name="Group 4 (2)" transform="translate(425.046 61.503)">
    <path id="Path_30519" data-name="Path 30519" d="M55.841-.5H38.534c-.4,24.4,17.659,36.288,26.659,38.955L65,18.953C57.8,14.153,55.841,3.83,55.841-.5Z" transform="translate(-425 -61)" fill="#055a21"/>
    <path id="Path_30520" data-name="Path 30520" d="M17.525-.469H.013C-.787,16.731,6.726,34.5,10.559,41c14.4,25.2,42.333,35.5,54.5,37.5v-18C25.86,50.5,17.025,15.531,17.525-.469Z" transform="translate(-425 -61)" fill="#055a21"/>
    <path id="Path_30521" data-name="Path 30521" d="M65.054,101.868c-14.4,10-18.662,24.632-19,30.632H56c6.8,0,9.039-6.541,9.039-9.541Z" transform="translate(-425 -61)" fill="#055a21"/>
  </g>
</svg>
