<svg xmlns="http://www.w3.org/2000/svg" width="24" height="15" viewBox="0 0 24 15">
  <g id="quotes-svgrepo-com" transform="translate(-4 -9)">
    <path id="Path_30522" data-name="Path 30522" d="M13.259,11.143a.993.993,0,0,0,1.029-1.071A.993.993,0,0,0,13.259,9,9.417,9.417,0,0,0,4,18.643,5.2,5.2,0,0,0,9.144,24a5.2,5.2,0,0,0,5.144-5.357,5.2,5.2,0,0,0-5.144-5.357,3.366,3.366,0,0,0-1.029.107A7.007,7.007,0,0,1,13.259,11.143Z" transform="translate(0)" fill="#fff"/>
    <path id="Path_30523" data-name="Path 30523" d="M23.144,13.286a3.366,3.366,0,0,0-1.029.107,7.007,7.007,0,0,1,5.144-2.25.993.993,0,0,0,1.029-1.071A.993.993,0,0,0,27.259,9,9.417,9.417,0,0,0,18,18.643a5.148,5.148,0,1,0,10.287,0A5.2,5.2,0,0,0,23.144,13.286Z" transform="translate(-0.287)" fill="#fff"/>
  </g>
</svg>
