<svg xmlns="http://www.w3.org/2000/svg" width="90" height="90" viewBox="0 0 90 90">
  <g id="Group_51094" data-name="Group 51094" transform="translate(-150 -124)">
    <circle id="Ellipse_7401" data-name="Ellipse 7401" cx="45" cy="45" r="45" transform="translate(150 124)" fill="#1b8dc9"/>
    <g id="add-user-account-man-svgrepo-com" transform="translate(180 150.848)">
      <path id="Path_17045" data-name="Path 17045" d="M22.19,22.965a7.782,7.782,0,1,1,7.775-7.782,7.782,7.782,0,0,1-7.775,7.782Zm0-12.55a4.775,4.775,0,1,0,4.767,4.767,4.775,4.775,0,0,0-4.767-4.767Z" transform="translate(-9.23 -7.4)" fill="#fff"/>
      <path id="Path_17046" data-name="Path 17046" d="M20.485,50.352A21.137,21.137,0,0,1,8.153,46.427a1.5,1.5,0,0,1-.624-1.075v-.617a12.978,12.978,0,1,1,25.949,0,5.5,5.5,0,0,1,0,.609,1.5,1.5,0,0,1-.624,1.083c-.511.361-1.045.707-1.579,1.023a1.5,1.5,0,1,1-1.5-2.594c.248-.15.5-.3.752-.459a9.963,9.963,0,0,0-19.919,0,18.144,18.144,0,0,0,9.963,2.948,18.7,18.7,0,0,0,2.76-.2,1.521,1.521,0,1,1,.459,3.008A20.935,20.935,0,0,1,20.485,50.352Z" transform="translate(-7.525 -14.052)" fill="#fff"/>
      <path id="Path_17047" data-name="Path 17047" d="M47.354,26.248a1.5,1.5,0,0,1-1.5-1.5v-10a1.5,1.5,0,0,1,3.008,0v10A1.5,1.5,0,0,1,47.354,26.248Z" transform="translate(-17.554 -8.849)" fill="#fff"/>
      <path id="Path_17048" data-name="Path 17048" d="M50.7,22.9h-10a1.5,1.5,0,1,1,0-3.008h10a1.5,1.5,0,1,1,0,3.008Z" transform="translate(-15.905 -10.688)" fill="#fff"/>
    </g>
  </g>
</svg>
