<svg xmlns="http://www.w3.org/2000/svg" width="15.504" height="15.504" viewBox="0 0 15.504 15.504">
  <path id="category-alt-svgrepo-com" d="M8.835,3h-5A.834.834,0,0,0,3,3.834v5a.834.834,0,0,0,.834.834h5a.834.834,0,0,0,.834-.834v-5A.834.834,0,0,0,8.835,3Zm8.336,8.336h-5a.834.834,0,0,0-.834.834v5a.834.834,0,0,0,.834.834h5A.834.834,0,0,0,18,17.17v-5A.834.834,0,0,0,17.17,11.336ZM14.67,3A3.334,3.334,0,1,0,18,6.334,3.338,3.338,0,0,0,14.67,3ZM6.334,11.336A3.334,3.334,0,1,0,9.668,14.67,3.338,3.338,0,0,0,6.334,11.336Z" transform="translate(-2.75 -2.75)" fill="none" stroke="#000" stroke-width="0.5"/>
</svg>
