<svg xmlns="http://www.w3.org/2000/svg" width="15.5" height="15.5" viewBox="0 0 15.5 15.5">
  <g id="chat-left-3-svgrepo-com_2_" data-name="chat-left-3-svgrepo-com (2)" transform="translate(-2.75 -3.75)">
    <path id="secondary" d="M3,5V15a1.038,1.038,0,0,0,1.071,1H8.357l5.357,3V16h3.214A1.038,1.038,0,0,0,18,15V5a1.038,1.038,0,0,0-1.071-1H4.071A1.038,1.038,0,0,0,3,5Z" transform="translate(0 0)" fill="none"/>
    <path id="primary" d="M3,5V15a1.038,1.038,0,0,0,1.071,1H8.357l5.357,3V16h3.214A1.038,1.038,0,0,0,18,15V5a1.038,1.038,0,0,0-1.071-1H4.071A1.038,1.038,0,0,0,3,5Z" transform="translate(0 0)" fill="none" stroke="#000" stroke-linecap="round" stroke-linejoin="round" stroke-width="0.5"/>
  </g>
</svg>
