<svg xmlns="http://www.w3.org/2000/svg" width="72.463" height="72.513" viewBox="0 0 72.463 72.513">
  <g id="complete-ok-accept-good-tick-svgrepo-com" transform="translate(-20.274 -20.243)">
    <path id="Path_24327" data-name="Path 24327" d="M40.244,76.513A36.257,36.257,0,1,1,76.5,38.275a2.594,2.594,0,1,1-5.18.285,31.2,31.2,0,1,0-3.134,15.305,2.59,2.59,0,1,1,4.649,2.266,35.972,35.972,0,0,1-21.055,18.5A36.438,36.438,0,0,1,40.244,76.513Z" transform="translate(16.232 16.243)" fill="#1c549a"/>
    <path id="cross-svgrepo-com" d="M31.454,10.894a2.423,2.423,0,1,0-3.427-3.427l-8.567,8.567L10.894,7.467a2.423,2.423,0,0,0-3.427,3.427l8.567,8.567L7.467,28.027a2.423,2.423,0,0,0,3.427,3.427l8.567-8.567,8.567,8.567a2.423,2.423,0,1,0,3.427-3.427L22.887,19.46Z" transform="translate(37.045 37.04)" fill="#1b8dc9" fill-rule="evenodd"/>
  </g>
</svg>
