<svg xmlns="http://www.w3.org/2000/svg" width="15" height="19" viewBox="0 0 15 19">
  <g id="delete-svgrepo-com" transform="translate(-31.482 0)">
    <g id="Group_50869" data-name="Group 50869" transform="translate(31.481 0)">
      <path id="Path_29895" data-name="Path 29895" d="M45.342,4.429l-1.9-.89.1-.2A1.788,1.788,0,0,0,42.675.941L41.038.174A1.835,1.835,0,0,0,39.645.1a1.8,1.8,0,0,0-1.035.922l-.1.2-1.9-.89a2.012,2.012,0,0,0-2.66.934l-.487,1.01a.66.66,0,0,0-.026.511.673.673,0,0,0,.348.38l5.036,2.358H32.16a.683.683,0,0,0-.5.216.663.663,0,0,0-.177.509l.892,10.55A2.424,2.424,0,0,0,34.791,19h4.99A2.424,2.424,0,0,0,42.2,16.809l.788-9.326,1.914.9a.684.684,0,0,0,.9-.317l.486-1.01A1.959,1.959,0,0,0,45.342,4.429ZM39.836,1.6a.461.461,0,0,1,.264-.236.468.468,0,0,1,.356.018l1.637.766a.457.457,0,0,1,.221.612l-.1.2-2.478-1.16Zm1.007,15.1a1.066,1.066,0,0,1-1.062.964h-4.99a1.066,1.066,0,0,1-1.062-.964L32.9,6.872h8.776Zm4.219-10.22-.2.405L34.981,2.254l.2-.405a.644.644,0,0,1,.852-.3l8.731,4.088A.627.627,0,0,1,45.063,6.478Z" transform="translate(-31.481 0)"/>
    </g>
  </g>
</svg>
