<svg xmlns="http://www.w3.org/2000/svg" width="23.214" height="23.214" viewBox="0 0 23.214 23.214">
  <path id="download-svgrepo-com" d="M14.607,3A1.29,1.29,0,0,1,15.9,4.29V15.363l2.957-2.957a1.29,1.29,0,1,1,1.824,1.824l-5.159,5.159a1.29,1.29,0,0,1-1.824,0L8.536,14.229a1.29,1.29,0,1,1,1.824-1.824l2.957,2.957V4.29A1.29,1.29,0,0,1,14.607,3ZM4.29,17.187a1.29,1.29,0,0,1,1.29,1.29,12.236,12.236,0,0,0,.074,2.045,3.869,3.869,0,0,0,3.04,3.04,12.237,12.237,0,0,0,2.044.074h7.738a12.239,12.239,0,0,0,2.045-.074,3.87,3.87,0,0,0,3.04-3.04,12.239,12.239,0,0,0,.074-2.045,1.29,1.29,0,1,1,2.579,0v.149a12.908,12.908,0,0,1-.124,2.4,6.448,6.448,0,0,1-5.066,5.066,12.907,12.907,0,0,1-2.4.124H10.589a12.906,12.906,0,0,1-2.4-.124,6.448,6.448,0,0,1-5.067-5.066A12.914,12.914,0,0,1,3,18.626c0-.049,0-.1,0-.149A1.29,1.29,0,0,1,4.29,17.187Z" transform="translate(-3 -3)" fill="#143c6d" fill-rule="evenodd"/>
</svg>
