<svg xmlns="http://www.w3.org/2000/svg" width="84.066" height="97.123" viewBox="0 0 84.066 97.123">
  <g id="Group_2362" data-name="Group 2362" transform="translate(359.398 -460.186)">
    <path id="Path_3169" data-name="Path 3169" d="M-346.336,538.455c.307,3.217.815,6.436.8,9.652,0,1.008-1.411,2.01-2.176,3.014-.926-.748-2.492-1.363-2.68-2.266-2.677-12.827-1.048-32.235,12.275-42.693,22.645-17.776,55.547-5.511,60.486,22.78a25.5,25.5,0,0,1-.065,8.75c-1.16,6.419-5.871,10.363-12.413,10.988-6.576.628-11.6-2.367-14.086-8.645a34.252,34.252,0,0,1-1.768-6.719c-.884-5.088-3.223-7.6-7.422-7.659-4.629-.067-9.12,3.184-9.49,7.69a29.117,29.117,0,0,0,.948,10.717c2.9,9.414,9.1,16.3,17.773,20.961a6.086,6.086,0,0,1,2.418,1.686,2.948,2.948,0,0,1,.063,2.7,3.425,3.425,0,0,1-2.781,1.094,12.715,12.715,0,0,1-4.09-1.887c-12.216-7.743-19.885-18.351-19.932-33.274-.029-9.381,7.726-15.876,16.905-14.747,5.184.638,9.111,4.263,10.418,9.646a66.161,66.161,0,0,0,1.928,7.917c1.553,4.1,4.267,5.554,8.559,5.18,4.383-.382,7.016-2.444,7.733-6.745a22.9,22.9,0,0,0-.07-7.483c-2.216-12.959-13.163-23.453-26.607-25.744-11.964-2.039-26.074,4.482-31.954,14.9C-345.086,524.5-346.231,531.342-346.336,538.455Z" transform="translate(-3.108 -14.78)" fill="#143c6d"/>
    <path id="Path_3170" data-name="Path 3170" d="M-332.994,542.577a26.446,26.446,0,0,1,25.184-26.17c13.76-.525,25.372,10.078,26.488,24.2a11.143,11.143,0,0,1,.013,1.818c-.151,1.739-.635,3.3-2.79,3.24s-2.575-1.554-2.529-3.366a19.707,19.707,0,0,0-5.527-14.022c-6.093-6.769-14.171-8.423-22.583-4.723-9.041,3.976-13.711,11.489-12.838,20.586,1.08,11.237,6.494,20.448,13.476,28.931,1.375,1.671,3.747,3.454,1.232,5.566-2.3,1.931-3.832-.442-5.16-2.029-7.1-8.487-12.593-17.8-14.438-28.911C-332.747,546-332.823,544.283-332.994,542.577Z" transform="translate(-10.357 -22.045)" fill="#143c6d"/>
    <path id="Path_3171" data-name="Path 3171" d="M-317,483.732c-15.2.435-27.015,6.661-36,18.391-.43.561-.679,1.437-1.231,1.691-1.233.566-2.912,1.5-3.854,1.075-1.773-.809-1.6-2.7-.39-4.117,3.017-3.53,5.795-7.37,9.279-10.378,22.325-19.276,56.359-14.455,72.862,10.127,1,1.493,1.627,3.033,0,4.282-1.739,1.336-3.162.4-4.327-1.183-7.481-10.181-17.1-17.109-29.751-19.3C-312.689,483.924-315.036,483.9-317,483.732Z" transform="translate(0 -7.198)" fill="#143c6d"/>
    <path id="Path_3172" data-name="Path 3172" d="M-308.9,460.195c9.411-.17,18.018,2.559,26.371,6.306,1.615.724,2.788,1.874,1.818,3.806-.931,1.855-2.4,1.583-4.131,1-5.714-1.906-11.386-4.131-17.258-5.326-10.387-2.114-20.2.707-29.7,4.826-.924.4-1.863.778-2.756,1.241-1.668.865-3.306.5-3.677-1.174a4.085,4.085,0,0,1,1.583-3.551C-327.865,463.063-318.722,460-308.9,460.195Z" transform="translate(-8.289 0)" fill="#143c6d"/>
    <path id="Path_3173" data-name="Path 3173" d="M-266.8,583.319c-13.925-.141-24.559-7.272-27.974-18.955a30.727,30.727,0,0,1-.9-4.44c-.239-1.745.07-3.341,2.189-3.636,2.1-.292,2.646,1.107,3.126,2.86.816,2.977,1.42,6.193,3.017,8.741,4.906,7.822,12.674,10.076,21.42,9.929,1.211-.02,2.525-.4,3.6-.047.96.32,2.21,1.367,2.311,2.215a3.293,3.293,0,0,1-1.741,2.637A21.9,21.9,0,0,1-266.8,583.319Z" transform="translate(-24.97 -37.681)" fill="#143c6d"/>
  </g>
</svg>
