<svg xmlns="http://www.w3.org/2000/svg" xmlns:xlink="http://www.w3.org/1999/xlink" width="336" height="336" viewBox="0 0 336 336">
  <defs>
    <filter id="Path_5518" x="0" y="0" width="336" height="336" filterUnits="userSpaceOnUse">
      <feOffset dy="20" input="SourceAlpha"/>
      <feGaussianBlur stdDeviation="23" result="blur"/>
      <feFlood flood-color="#c4c4c4"/>
      <feComposite operator="in" in2="blur"/>
      <feComposite in="SourceGraphic"/>
    </filter>
    <filter id="Path_3169" x="128.783" y="124.415" width="78.22" height="76.859" filterUnits="userSpaceOnUse">
      <feOffset dy="1" input="SourceAlpha"/>
      <feGaussianBlur stdDeviation="2" result="blur-2"/>
      <feFlood flood-color="#ffb600" flood-opacity="0.922"/>
      <feComposite operator="in" in2="blur-2"/>
      <feComposite in="SourceGraphic"/>
    </filter>
    <filter id="Path_3171" x="124.485" y="114.93" width="87.031" height="36.015" filterUnits="userSpaceOnUse">
      <feOffset dy="2" input="SourceAlpha"/>
      <feGaussianBlur stdDeviation="2" result="blur-3"/>
      <feFlood flood-color="#ffb600" flood-opacity="0.859"/>
      <feComposite operator="in" in2="blur-3"/>
      <feComposite in="SourceGraphic"/>
    </filter>
    <filter id="Path_3172" x="135.947" y="104.976" width="63.688" height="22.994" filterUnits="userSpaceOnUse">
      <feOffset dy="2" input="SourceAlpha"/>
      <feGaussianBlur stdDeviation="2" result="blur-4"/>
      <feFlood flood-color="#ffb600" flood-opacity="0.859"/>
      <feComposite operator="in" in2="blur-4"/>
      <feComposite in="SourceGraphic"/>
    </filter>
  </defs>
  <g id="Group_51032" data-name="Group 51032" transform="translate(-27 -230)">
    <g transform="matrix(1, 0, 0, 1, 27, 230)" filter="url(#Path_5518)">
      <path id="Path_5518-2" data-name="Path 5518" d="M99,0A99,99,0,1,1,0,99,99,99,0,0,1,99,0Z" transform="translate(69 49)" fill="#143c6d"/>
    </g>
    <g id="Group_2362" data-name="Group 2362" transform="translate(516.883 -121.21)">
      <g transform="matrix(1, 0, 0, 1, -489.88, 351.21)" filter="url(#Path_3169)">
        <path id="Path_3169-2" data-name="Path 3169" d="M-346.889,534.093c.274,2.872.727,5.744.716,8.615,0,.9-1.26,1.794-1.942,2.69-.826-.668-2.224-1.216-2.392-2.022-2.389-11.449-.935-28.771,10.956-38.105,20.212-15.866,49.578-4.919,53.985,20.332a22.76,22.76,0,0,1-.058,7.81c-1.035,5.729-5.241,9.25-11.079,9.807-5.869.56-10.356-2.113-12.573-7.716a30.57,30.57,0,0,1-1.578-6c-.789-4.541-2.877-6.782-6.624-6.836-4.132-.06-8.14,2.842-8.47,6.863a25.988,25.988,0,0,0,.846,9.565c2.587,8.4,8.123,14.545,15.863,18.709a5.431,5.431,0,0,1,2.158,1.5,2.631,2.631,0,0,1,.056,2.408,3.057,3.057,0,0,1-2.482.976,11.35,11.35,0,0,1-3.651-1.684c-10.9-6.911-17.748-16.379-17.79-29.7-.026-8.373,6.9-14.17,15.088-13.162a10.825,10.825,0,0,1,9.3,8.609,59.05,59.05,0,0,0,1.721,7.066c1.386,3.655,3.808,4.957,7.639,4.624,3.912-.341,6.262-2.182,6.9-6.02a20.443,20.443,0,0,0-.062-6.679c-1.978-11.566-11.748-20.933-23.748-22.978-10.678-1.82-23.272,4-28.52,13.3C-345.772,521.642-346.795,527.744-346.889,534.093Z" transform="translate(486.26 -368.45)" fill="#fff"/>
      </g>
      <path id="Path_3170" data-name="Path 3170" d="M-332.994,539.762a23.6,23.6,0,0,1,22.478-23.357c12.281-.469,22.646,9,23.642,21.6a9.94,9.94,0,0,1,.012,1.622c-.135,1.552-.566,2.948-2.49,2.892s-2.3-1.387-2.258-3a17.589,17.589,0,0,0-4.933-12.515c-5.438-6.042-12.648-7.518-20.156-4.215-8.069,3.549-12.238,10.254-11.458,18.373.964,10.03,5.8,18.25,12.027,25.822,1.227,1.491,3.344,3.083,1.1,4.968-2.052,1.723-3.42-.395-4.605-1.811-6.339-7.575-11.239-15.886-12.887-25.8C-332.774,542.821-332.842,541.285-332.994,539.762Z" transform="translate(-12.081 -25.716)" fill="#fff"/>
      <g transform="matrix(1, 0, 0, 1, -489.88, 351.21)" filter="url(#Path_3171)">
        <path id="Path_3171-2" data-name="Path 3171" d="M-321.554,483.174c-13.565.388-24.112,5.945-32.132,16.415-.383.5-.606,1.283-1.1,1.509-1.1.506-2.6,1.343-3.44.96-1.582-.722-1.427-2.413-.348-3.674,2.693-3.151,5.172-6.578,8.282-9.263a43.794,43.794,0,0,1,65.032,9.039c.9,1.333,1.452,2.707,0,3.822-1.552,1.193-2.822.359-3.862-1.056-6.677-9.087-15.263-15.271-26.553-17.226C-317.708,483.346-319.8,483.323-321.554,483.174Z" transform="translate(489.88 -359.61)" fill="#fff"/>
      </g>
      <g transform="matrix(1, 0, 0, 1, -489.88, 351.21)" filter="url(#Path_3172)">
        <path id="Path_3172-2" data-name="Path 3172" d="M-312.052,460.194c8.4-.151,16.082,2.284,23.537,5.628,1.441.646,2.488,1.672,1.622,3.4-.831,1.656-2.14,1.412-3.687.9-5.1-1.7-10.162-3.687-15.4-4.754-9.271-1.887-18.032.631-26.507,4.307-.825.358-1.663.694-2.46,1.108-1.488.772-2.95.447-3.282-1.047a3.646,3.646,0,0,1,1.413-3.169C-328.983,462.754-320.823,460.023-312.052,460.194Z" transform="translate(480.21 -351.21)" fill="#fff"/>
      </g>
      <path id="Path_3173" data-name="Path 3173" d="M-269.908,580.41c-12.429-.126-21.919-6.49-24.967-16.918a27.425,27.425,0,0,1-.8-3.962c-.214-1.557.063-2.982,1.954-3.245,1.875-.261,2.361.988,2.79,2.553.729,2.657,1.267,5.527,2.693,7.8,4.379,6.982,11.312,8.993,19.118,8.862,1.081-.018,2.253-.361,3.213-.042.857.285,1.972,1.22,2.062,1.977a2.939,2.939,0,0,1-1.554,2.354A19.55,19.55,0,0,1-269.908,580.41Z" transform="translate(-29.128 -43.955)" fill="#fff"/>
    </g>
    <g id="Ellipse_388" data-name="Ellipse 388" transform="translate(126 309)" fill="none" stroke="#fff" stroke-width="1" opacity="0.06">
      <circle cx="69" cy="69" r="69" stroke="none"/>
      <circle cx="69" cy="69" r="68.5" fill="none"/>
    </g>
    <g id="Ellipse_389" data-name="Ellipse 389" transform="translate(76 259)" fill="none" stroke="#034698" stroke-width="1" opacity="0.05">
      <circle cx="119" cy="119" r="119" stroke="none"/>
      <circle cx="119" cy="119" r="118.5" fill="none"/>
    </g>
    <g id="Ellipse_390" data-name="Ellipse 390" transform="translate(52 235)" fill="none" stroke="#034698" stroke-width="1" opacity="0.05">
      <circle cx="143" cy="143" r="143" stroke="none"/>
      <circle cx="143" cy="143" r="142.5" fill="none"/>
    </g>
  </g>
</svg>
