<svg xmlns="http://www.w3.org/2000/svg" width="40.663" height="45.546" viewBox="0 0 40.663 45.546">
  <g id="Group_4611" data-name="Group 4611" transform="translate(346 -13)">
    <path id="Path_4286" data-name="Path 4286" d="M-265.965,90.027c-2.479-.841-3.408-2.66-3.219-5.158a3.1,3.1,0,0,0-.853-2.313c-2.49-3.136-4.876-6.358-7.219-9.606a3.362,3.362,0,0,1-.063-3.826,3.457,3.457,0,0,1,3.264-1.82c.3.008.6,0,1.025,0,.016-.33.049-.683.049-1.037,0-3.2-.013-6.4.008-9.606.016-2.352,1.161-3.818,3.166-4.142a3.626,3.626,0,0,1,4.252,3.394c.067,1.507.013,3.02.013,4.642a4.085,4.085,0,0,1,4.219,1.476,3.943,3.943,0,0,1,4.576.856,1.059,1.059,0,0,0,.861.128c2.421-.634,4.717.724,4.806,3.2a106.2,106.2,0,0,1-.174,11,8.7,8.7,0,0,1-2.93,5.618,1.751,1.751,0,0,0-.639,1.584,6.012,6.012,0,0,1,0,.707c0,2.887-.613,3.809-3.253,4.9Zm-4.4-24.135q0,4.4,0,8.8a8.777,8.777,0,0,0,3.091,6.968,2.616,2.616,0,0,1,.688,1.555c.113.9.005,1.818.042,2.727a1.324,1.324,0,0,0,1.38,1.432q3.186.047,6.373,0a1.238,1.238,0,0,0,1.32-1.35c.013-.809.053-1.622-.008-2.427a2.426,2.426,0,0,1,.984-2.186,6.823,6.823,0,0,0,2.674-4.824c.176-3.36.165-6.732.136-10.1,0-.34-.636-.883-1.046-.961-.626-.119-1.057.374-1.091,1.044-.035.706-.011,1.416-.013,2.124,0,.4,0,.81,0,1.214a1.24,1.24,0,0,1-1.3,1.373,1.224,1.224,0,0,1-1.326-1.341c-.034-1.517.048-3.039-.066-4.548a1.561,1.561,0,0,0-.957-1.033c-.65-.2-1.048.305-1.181.935a3.983,3.983,0,0,0-.024.807c0,1.315,0,2.63,0,3.945a1.21,1.21,0,0,1-1.2,1.355c-.865.065-1.285-.473-1.425-1.259a4.67,4.67,0,0,1-.017-.808c0-1.652-.009-3.3,0-4.957,0-.709-.272-1.213-1.009-1.253-.8-.043-1.139.484-1.18,1.215-.03.538-.007,1.079-.008,1.618,0,1.349.012,2.7-.012,4.046a1.188,1.188,0,0,1-1.266,1.28,1.192,1.192,0,0,1-1.3-1.146,7.135,7.135,0,0,1-.036-1.009q0-6.07,0-12.139c0-.3.1-.685-.046-.893-.277-.4-.667-.916-1.064-.967-.312-.04-.765.5-1.038.873-.15.2-.073.586-.073.888Q-270.363,61.39-270.36,65.891Zm-2.851,8.114.229-.087a25.365,25.365,0,0,0-.037-2.9,1.458,1.458,0,0,0-.79-.988,1.2,1.2,0,0,0-1.115.317,1.428,1.428,0,0,0-.053,1.265A26.552,26.552,0,0,0-273.211,74.005Z" transform="translate(-54.327 -31.481)" fill="#fff"/>
    <path id="Path_4287" data-name="Path 4287" d="M-341.344,13v4.568H-346V13Z" fill="#fff"/>
    <path id="Path_4288" data-name="Path 4288" d="M-292.344,13v4.571H-297V13Z" transform="translate(-39.081)" fill="#fff"/>
    <path id="Path_4289" data-name="Path 4289" d="M-243.344,13v4.579H-248V13Z" transform="translate(-78.162)" fill="#fff"/>
    <path id="Path_4290" data-name="Path 4290" d="M-341.14,98.459v4.488h-4.539V98.459Z" transform="translate(-0.256 -68.16)" fill="#fff"/>
    <path id="Path_4291" data-name="Path 4291" d="M-292.114,103.08h-4.533v-4.5h4.533Z" transform="translate(-39.363 -68.256)" fill="#fff"/>
    <path id="Path_4292" data-name="Path 4292" d="M-345.68,56.051h4.5v4.438h-4.5Z" transform="translate(-0.255 -34.336)" fill="#fff"/>
    <path id="Path_4293" data-name="Path 4293" d="M-292.124,60.556h-4.543V56.135h4.543Z" transform="translate(-39.347 -34.403)" fill="#fff"/>
  </g>
</svg>
