<svg xmlns="http://www.w3.org/2000/svg" width="13.331" height="14.867" viewBox="0 0 13.331 14.867">
  <g id="Group_51018" data-name="Group 51018" transform="translate(-242.669 -126.178)">
    <path id="Path_24367" data-name="Path 24367" d="M29.718,3.5a.232.232,0,0,0-.323.058l-5.347,7.68a.23.23,0,0,0-.039.1l-.353,2.423A.232.232,0,0,0,24,14l2.15-1.172a.227.227,0,0,0,.079-.071l5.346-7.68a.232.232,0,0,0-.058-.323Zm-3.841,8.945-1.695.924.278-1.91,5.183-7.445L31.06,5Z" transform="translate(223.74 123.521)"/>
    <path id="Path_24368" data-name="Path 24368" d="M15.6,13.234a.232.232,0,0,0-.232.232v7.781a.9.9,0,0,1-.9.9H4.672a.9.9,0,0,1-.9-.9V11.456a.9.9,0,0,1,.9-.9h5.771a.232.232,0,0,0,0-.464H4.672a1.368,1.368,0,0,0-1.366,1.366v9.791a1.368,1.368,0,0,0,1.366,1.366h9.791a1.368,1.368,0,0,0,1.366-1.366V13.466A.232.232,0,0,0,15.6,13.234Z" transform="translate(239.363 118.432)"/>
    <path id="Path_24369" data-name="Path 24369" d="M52.91,1.279,51.05.039a.232.232,0,0,0-.257.386l1.86,1.24a.232.232,0,1,0,.257-.386Z" transform="translate(202.986 126.178)"/>
  </g>
</svg>
