<svg xmlns="http://www.w3.org/2000/svg" xmlns:xlink="http://www.w3.org/1999/xlink" width="80" height="80" viewBox="0 0 80 80">
  <defs>
    <linearGradient id="linear-gradient" x1="-0.045" y1="0.603" x2="0.446" y2="0.603" gradientUnits="objectBoundingBox">
      <stop offset="0" stop-color="#fff"/>
      <stop offset="1" stop-color="#d17918"/>
    </linearGradient>
    <linearGradient id="linear-gradient-2" x1="-0.291" y1="1.104" x2="0.2" y2="1.104" xlink:href="#linear-gradient"/>
    <linearGradient id="linear-gradient-3" x1="-0.537" y1="1.605" x2="-0.046" y2="1.605" xlink:href="#linear-gradient"/>
    <linearGradient id="linear-gradient-4" x1="-2.092" y1="-1.643" x2="-1.601" y2="-1.643" xlink:href="#linear-gradient"/>
    <linearGradient id="linear-gradient-5" x1="-2.338" y1="-1.141" x2="-1.847" y2="-1.141" xlink:href="#linear-gradient"/>
    <linearGradient id="linear-gradient-6" x1="-2.584" y1="-0.641" x2="-2.093" y2="-0.641" xlink:href="#linear-gradient"/>
    <linearGradient id="linear-gradient-7" x1="-2.83" y1="-0.14" x2="-2.339" y2="-0.14" xlink:href="#linear-gradient"/>
    <linearGradient id="linear-gradient-8" x1="-3.076" y1="0.361" x2="-2.585" y2="0.361" xlink:href="#linear-gradient"/>
    <linearGradient id="linear-gradient-9" x1="-0.77" y1="-1.979" x2="-0.279" y2="-1.979" xlink:href="#linear-gradient"/>
    <linearGradient id="linear-gradient-10" x1="-1.016" y1="-1.478" x2="-0.525" y2="-1.478" xlink:href="#linear-gradient"/>
    <linearGradient id="linear-gradient-11" x1="-1.262" y1="-0.977" x2="-0.771" y2="-0.977" xlink:href="#linear-gradient"/>
    <linearGradient id="linear-gradient-12" x1="-1.508" y1="-0.476" x2="-1.017" y2="-0.476" xlink:href="#linear-gradient"/>
    <linearGradient id="linear-gradient-13" x1="-1.754" y1="0.025" x2="-1.263" y2="0.025" xlink:href="#linear-gradient"/>
    <linearGradient id="linear-gradient-14" x1="2.94" y1="3.152" x2="3.696" y2="3.152" xlink:href="#linear-gradient"/>
    <linearGradient id="linear-gradient-15" x1="3.098" y1="1.953" x2="3.853" y2="1.953" xlink:href="#linear-gradient"/>
  </defs>
  <g id="Group_51535" data-name="Group 51535" transform="translate(-16 -649)">
    <rect id="Rectangle_4577" data-name="Rectangle 4577" width="80" height="80" rx="10" transform="translate(16 649)" fill="#b23c7e"/>
    <g id="_522835-PJ0CDT-618" data-name="522835-PJ0CDT-618" transform="translate(-51.31 594.521)">
      <g id="DESIGNED_BY_FREEPIK" data-name="DESIGNED BY FREEPIK" transform="translate(83.31 67.48)">
        <g id="Group_51490" data-name="Group 51490">
          <g id="Group_51485" data-name="Group 51485">
            <path id="Path_30619" data-name="Path 30619" d="M115.272,350.309c0,1.75-7.155,3.169-15.981,3.169s-15.981-1.419-15.981-3.169,7.155-3.169,15.981-3.169S115.272,348.559,115.272,350.309Z" transform="translate(-83.31 -306.492)" fill="#ccc" opacity="0.2"/>
            <path id="Path_30620" data-name="Path 30620" d="M174.775,176.574s-2.792-14.144-13.293-20.394h-7.506c-10.5,6.251-13.293,20.394-13.293,20.394-3.071,16.446,16.011,14.352,16.011,14.352h2.07S177.846,193.02,174.775,176.574Z" transform="translate(-132.058 -143.288)" fill="#e8c47b"/>
            <path id="Path_30621" data-name="Path 30621" d="M180.452,176.574s-2.792-14.144-13.293-20.394h-4.171c7.134,6.282,9.138,16.429,9.138,16.429,2.805,15.022-14.625,13.109-14.625,13.109h-1.891a21.482,21.482,0,0,1-8.619-1.014c3.507,7.525,15.381,6.224,15.381,6.224h2.07s19.083,2.094,16.011-14.352Z" transform="translate(-137.734 -143.288)" fill="#dab873"/>
            <path id="Path_30622" data-name="Path 30622" d="M177.979,71.177c-.39-.512-1-1.615-.336-2.125.871-.666,2.578.039,3.464.288a10.11,10.11,0,0,0,3.712.48,15.223,15.223,0,0,0,3.76-1.267c1.118-.453,2.291-1.269,3.626-.858,1.4.432,1.946,1.654,3.56,1.807,2.834.269,4.507-2.273,7.164-2,1.381.141,1.222,1,.449,1.593L193.1,80.371H185.6l-7.618-9.195Z" transform="translate(-163.679 -67.48)" fill="#e8c47b"/>
            <g id="Group_51483" data-name="Group 51483" transform="translate(16.603 28.274)">
              <g id="Group_51482" data-name="Group 51482" transform="translate(0)">
                <path id="Path_30623" data-name="Path 30623" d="M288.633,396.328c-3.453,0-6.253-1.077-6.253-2.4s2.8-2.4,6.253-2.4,6.253,1.077,6.253,2.4S292.086,396.328,288.633,396.328Z" transform="translate(-270.049 -372.696)" fill="#ccc" opacity="0.2"/>
                <path id="Path_30624" data-name="Path 30624" d="M333.773,345.928c-3.453,0-6.253-1.077-6.253-2.4s2.8-2.4,6.253-2.4,6.253,1.077,6.253,2.4S337.226,345.928,333.773,345.928Z" transform="translate(-308.628 -329.622)" fill="#ccc" opacity="0.6"/>
                <path id="Path_30625" data-name="Path 30625" d="M328.057,406.735c-3.451-.116-6.285.865-6.33,2.192s2.717,2.5,6.167,2.615,6.285-.865,6.33-2.192S331.507,406.853,328.057,406.735Z" transform="translate(-303.677 -385.692)" fill="#ccc" opacity="0.2"/>
                <path id="Path_30626" data-name="Path 30626" d="M207.384,379.385c3.451-.116,6.285.865,6.33,2.192s-2.717,2.5-6.167,2.615-6.285-.865-6.33-2.192S203.933,379.5,207.384,379.385Z" transform="translate(-200.682 -362.317)" fill="#ccc" opacity="0.2"/>
                <g id="Group_51439" data-name="Group 51439" transform="translate(3.952 14.235)">
                  <path id="Path_30627" data-name="Path 30627" d="M224.74,377.627c0,1.328,2.8,2.4,6.253,2.4s6.253-1.077,6.253-2.4V376.49h-12.5v1.137Z" transform="translate(-224.739 -374.086)" fill="#ff931e"/>
                  <g id="Group_51437" data-name="Group 51437" transform="translate(0.001 2.41)">
                    <path id="Path_30628" data-name="Path 30628" d="M263.66,380.51v2.945c.2.007.394.012.594.012V380.51Z" transform="translate(-258.003 -379.932)" fill="#d17918"/>
                    <path id="Path_30629" data-name="Path 30629" d="M255.37,380.51v2.855c.323.038.657.064,1,.081V380.51Z" transform="translate(-250.918 -379.932)" fill="#d17918"/>
                    <path id="Path_30630" data-name="Path 30630" d="M228.945,379.933v-3.4h-4.2v1.131C224.74,378.713,226.5,379.607,228.945,379.933Z" transform="translate(-224.74 -376.53)" fill="#d17918"/>
                    <path id="Path_30631" data-name="Path 30631" d="M283.08,380.51v2.8l.2-.031v-2.767h-.2Z" transform="translate(-274.6 -379.932)" fill="#d17918"/>
                    <path id="Path_30632" data-name="Path 30632" d="M277.73,383.4c.068-.006.137-.013.2-.02V380.51h-.2Z" transform="translate(-270.028 -379.932)" fill="#d17918"/>
                    <path id="Path_30633" data-name="Path 30633" d="M270.95,380.5v2.949c.1,0,.2-.006.3-.012V380.5h-.3Z" transform="translate(-264.234 -379.923)" fill="#d17918"/>
                  </g>
                  <g id="Group_51438" data-name="Group 51438">
                    <path id="Path_30634" data-name="Path 30634" d="M230.993,364.768c-3.453,0-6.253-1.077-6.253-2.4s2.8-2.4,6.253-2.4,6.253,1.077,6.253,2.4S234.446,364.768,230.993,364.768Z" transform="translate(-224.739 -359.959)" fill="#ff931e"/>
                    <path id="Path_30635" data-name="Path 30635" d="M234.506,364.4c-.177.006-.356.01-.538.01-3.453,0-6.253-1.077-6.253-2.4,0-.826,1.081-1.554,2.73-1.987-3.2.1-5.715,1.137-5.715,2.4,0,1.328,2.8,2.4,6.253,2.4A14.075,14.075,0,0,0,234.506,364.4Z" transform="translate(-224.73 -360.01)" opacity="0.4" fill="url(#linear-gradient)"/>
                    <path id="Path_30636" data-name="Path 30636" d="M237.274,363.31c-.1-1.294-2.859-2.33-6.247-2.33s-6.144,1.036-6.247,2.33c.1,1.294,2.859,2.33,6.247,2.33S237.172,364.6,237.274,363.31Zm-6.247,2.032c-2.807,0-5.089-.878-5.089-1.958s2.283-1.958,5.089-1.958,5.09.878,5.09,1.958S233.834,365.342,231.027,365.342Z" transform="translate(-224.773 -360.83)" fill="#d17918"/>
                    <path id="Path_30637" data-name="Path 30637" d="M249.639,374.183l-2.419.695v.483l2.475-.763a2.519,2.519,0,0,0,1.052.446c.036.009.074.015.112.022v.43h.9v-.331c.2.009.378.01.536.006v.326h.9V374.2h-.9v.625a5.251,5.251,0,0,1-.536-.007V374.2h-.9v.44a1.124,1.124,0,0,1-.519-.369l-.7-.093Z" transform="translate(-243.951 -372.112)" fill="#d17918"/>
                    <path id="Path_30638" data-name="Path 30638" d="M236.073,362.354c0,1.078-2.283,1.958-5.09,1.958s-5.089-.878-5.089-1.958,2.283-1.958,5.089-1.958,5.09.878,5.09,1.958m1.163,0c0-1.328-2.8-2.4-6.253-2.4s-6.253,1.077-6.253,2.4,2.8,2.4,6.253,2.4,6.253-1.077,6.253-2.4Z" transform="translate(-224.73 -359.95)" fill="#ffc022"/>
                    <path id="Path_30639" data-name="Path 30639" d="M237.37,366.5c0-.936,1.981-1.7,4.417-1.7s4.417.762,4.417,1.7-1.981,1.7-4.417,1.7S237.37,367.437,237.37,366.5Zm8.639,0c0-.9-1.894-1.624-4.222-1.624s-4.222.728-4.222,1.624,1.894,1.624,4.222,1.624S246.009,367.394,246.009,366.5Z" transform="translate(-235.533 -364.095)" fill="#ffc022"/>
                    <path id="Path_30640" data-name="Path 30640" d="M249.639,371.97l-2.419.695v.483l2.475-.763a2.52,2.52,0,0,0,1.052.446c.036.009.074.015.112.022v.432h.9v-.331c.2.009.378.009.536.006v.326h.9V371.99h-.9v.625a5.251,5.251,0,0,1-.536-.007v-.618h-.9v.44a1.124,1.124,0,0,1-.519-.369Z" transform="translate(-243.951 -370.223)" fill="#ffc022"/>
                  </g>
                </g>
                <g id="Group_51442" data-name="Group 51442" transform="translate(3.952 11.831)">
                  <path id="Path_30641" data-name="Path 30641" d="M224.74,361.087c0,1.327,2.8,2.4,6.253,2.4s6.253-1.077,6.253-2.4V359.95h-12.5v1.137Z" transform="translate(-224.739 -357.546)" fill="#ff931e"/>
                  <g id="Group_51440" data-name="Group 51440" transform="translate(0.001 2.41)">
                    <path id="Path_30642" data-name="Path 30642" d="M263.66,363.97v2.945c.2.007.394.012.594.012V363.97Z" transform="translate(-258.003 -363.392)" fill="#d17918"/>
                    <path id="Path_30643" data-name="Path 30643" d="M255.37,363.97v2.855c.323.038.657.065,1,.081V363.97Z" transform="translate(-250.918 -363.392)" fill="#d17918"/>
                    <path id="Path_30644" data-name="Path 30644" d="M228.945,363.393v-3.4h-4.2v1.131C224.74,362.173,226.5,363.066,228.945,363.393Z" transform="translate(-224.74 -359.99)" fill="#d17918"/>
                    <path id="Path_30645" data-name="Path 30645" d="M283.08,363.97v2.8l.2-.031v-2.767h-.2Z" transform="translate(-274.6 -363.392)" fill="#d17918"/>
                    <path id="Path_30646" data-name="Path 30646" d="M277.73,366.861c.068-.006.137-.013.2-.02V363.97h-.2Z" transform="translate(-270.028 -363.392)" fill="#d17918"/>
                    <path id="Path_30647" data-name="Path 30647" d="M270.95,363.97v2.949c.1,0,.2-.006.3-.012V363.97Z" transform="translate(-264.234 -363.392)" fill="#d17918"/>
                  </g>
                  <g id="Group_51441" data-name="Group 51441">
                    <path id="Path_30648" data-name="Path 30648" d="M230.993,348.218c-3.453,0-6.253-1.077-6.253-2.4s2.8-2.4,6.253-2.4,6.253,1.077,6.253,2.4S234.446,348.218,230.993,348.218Z" transform="translate(-224.739 -343.41)" fill="#ff931e"/>
                    <path id="Path_30649" data-name="Path 30649" d="M234.506,347.852c-.177.006-.356.009-.538.009-3.453,0-6.253-1.077-6.253-2.4,0-.826,1.081-1.554,2.73-1.987-3.2.1-5.715,1.137-5.715,2.4,0,1.328,2.8,2.4,6.253,2.4a14.078,14.078,0,0,0,3.523-.419Z" transform="translate(-224.73 -343.461)" opacity="0.4" fill="url(#linear-gradient-2)"/>
                    <path id="Path_30650" data-name="Path 30650" d="M237.274,346.76c-.1-1.294-2.859-2.33-6.247-2.33s-6.144,1.036-6.247,2.33c.1,1.294,2.859,2.33,6.247,2.33S237.172,348.053,237.274,346.76Zm-6.247,2.032c-2.807,0-5.089-.878-5.089-1.958s2.283-1.958,5.089-1.958,5.09.878,5.09,1.958S233.834,348.792,231.027,348.792Z" transform="translate(-224.773 -344.282)" fill="#d17918"/>
                    <path id="Path_30651" data-name="Path 30651" d="M249.639,357.641l-2.419.695v.483l2.475-.763a2.521,2.521,0,0,0,1.052.446c.036.009.074.015.112.022v.432h.9v-.331c.2.009.378.01.536.006v.326h.9v-1.294h-.9v.625a5.224,5.224,0,0,1-.536-.007v-.618h-.9v.44a1.125,1.125,0,0,1-.519-.369l-.7-.093Z" transform="translate(-243.951 -355.572)" fill="#d17918"/>
                    <path id="Path_30652" data-name="Path 30652" d="M236.073,345.814c0,1.078-2.283,1.958-5.09,1.958s-5.089-.878-5.089-1.958,2.283-1.958,5.089-1.958,5.09.878,5.09,1.958m1.163,0c0-1.328-2.8-2.4-6.253-2.4s-6.253,1.077-6.253,2.4,2.8,2.4,6.253,2.4,6.253-1.077,6.253-2.4Z" transform="translate(-224.73 -343.41)" fill="#ffc022"/>
                    <path id="Path_30653" data-name="Path 30653" d="M237.37,349.959c0-.937,1.981-1.7,4.417-1.7s4.417.762,4.417,1.7-1.981,1.7-4.417,1.7S237.37,350.9,237.37,349.959Zm8.639,0c0-.9-1.894-1.623-4.222-1.623s-4.222.728-4.222,1.623,1.894,1.624,4.222,1.624S246.009,350.854,246.009,349.959Z" transform="translate(-235.533 -347.555)" fill="#ffc022"/>
                    <path id="Path_30654" data-name="Path 30654" d="M249.639,355.421l-2.419.695v.483l2.475-.763a2.52,2.52,0,0,0,1.052.446l.112.022v.43h.9V356.4c.2.009.378.009.536.006v.326h.9V355.44h-.9v.625a5.216,5.216,0,0,1-.536-.007v-.618h-.9v.44a1.124,1.124,0,0,1-.519-.369l-.7-.092Z" transform="translate(-243.951 -353.674)" fill="#ffc022"/>
                  </g>
                </g>
                <g id="Group_51445" data-name="Group 51445" transform="translate(3.952 9.427)">
                  <path id="Path_30655" data-name="Path 30655" d="M224.74,344.537c0,1.327,2.8,2.4,6.253,2.4s6.253-1.077,6.253-2.4V343.4h-12.5v1.137Z" transform="translate(-224.739 -340.997)" fill="#ff931e"/>
                  <g id="Group_51443" data-name="Group 51443" transform="translate(0.001 2.408)">
                    <path id="Path_30656" data-name="Path 30656" d="M263.66,347.42v2.945c.2.007.394.012.594.012V347.42Z" transform="translate(-258.003 -346.842)" fill="#d17918"/>
                    <path id="Path_30657" data-name="Path 30657" d="M255.37,347.42v2.855c.323.038.657.065,1,.081V347.42Z" transform="translate(-250.918 -346.842)" fill="#d17918"/>
                    <path id="Path_30658" data-name="Path 30658" d="M228.945,346.843v-3.4h-4.2v1.131C224.74,345.623,226.5,346.516,228.945,346.843Z" transform="translate(-224.74 -343.44)" fill="#d17918"/>
                    <path id="Path_30659" data-name="Path 30659" d="M283.08,347.42v2.8l.2-.031V347.42Z" transform="translate(-274.6 -346.842)" fill="#d17918"/>
                    <path id="Path_30660" data-name="Path 30660" d="M277.73,350.311c.068-.006.137-.013.2-.02V347.42h-.2Z" transform="translate(-270.028 -346.842)" fill="#d17918"/>
                    <path id="Path_30661" data-name="Path 30661" d="M270.95,347.42v2.949c.1,0,.2-.006.3-.012V347.42Z" transform="translate(-264.234 -346.842)" fill="#d17918"/>
                  </g>
                  <g id="Group_51444" data-name="Group 51444">
                    <path id="Path_30662" data-name="Path 30662" d="M230.993,331.678c-3.453,0-6.253-1.077-6.253-2.4s2.8-2.4,6.253-2.4,6.253,1.077,6.253,2.4S234.446,331.678,230.993,331.678Z" transform="translate(-224.739 -326.87)" fill="#ff931e"/>
                    <path id="Path_30663" data-name="Path 30663" d="M234.506,331.3c-.177.006-.356.009-.538.009-3.453,0-6.253-1.077-6.253-2.4,0-.826,1.081-1.554,2.73-1.987-3.2.1-5.715,1.137-5.715,2.4,0,1.328,2.8,2.4,6.253,2.4a14.075,14.075,0,0,0,3.523-.419Z" transform="translate(-224.73 -326.913)" opacity="0.4" fill="url(#linear-gradient-3)"/>
                    <path id="Path_30664" data-name="Path 30664" d="M237.274,330.22c-.1-1.294-2.859-2.33-6.247-2.33s-6.144,1.036-6.247,2.33c.1,1.294,2.859,2.33,6.247,2.33S237.172,331.514,237.274,330.22Zm-6.247,2.032c-2.807,0-5.089-.878-5.089-1.958s2.283-1.958,5.089-1.958,5.09.878,5.09,1.958S233.834,332.252,231.027,332.252Z" transform="translate(-224.773 -327.742)" fill="#d17918"/>
                    <path id="Path_30665" data-name="Path 30665" d="M249.639,341.084l-2.419.695v.483l2.475-.763a2.521,2.521,0,0,0,1.052.446c.036.009.074.014.112.022v.43h.9v-.331c.2.009.378.01.536.006v.326h.9V341.1h-.9v.624a5.251,5.251,0,0,1-.536-.007V341.1h-.9v.44a1.124,1.124,0,0,1-.519-.369l-.7-.093Z" transform="translate(-243.951 -339.015)" fill="#d17918"/>
                    <path id="Path_30666" data-name="Path 30666" d="M236.073,329.274c0,1.078-2.283,1.958-5.09,1.958s-5.089-.878-5.089-1.958,2.283-1.958,5.089-1.958,5.09.878,5.09,1.958m1.163,0c0-1.328-2.8-2.4-6.253-2.4s-6.253,1.077-6.253,2.4,2.8,2.4,6.253,2.4,6.253-1.077,6.253-2.4Z" transform="translate(-224.73 -326.87)" fill="#ffc022"/>
                    <path id="Path_30667" data-name="Path 30667" d="M237.37,333.419c0-.937,1.981-1.7,4.417-1.7s4.417.762,4.417,1.7-1.981,1.7-4.417,1.7S237.37,334.357,237.37,333.419Zm8.639,0c0-.9-1.894-1.624-4.222-1.624s-4.222.728-4.222,1.624,1.894,1.624,4.222,1.624S246.009,334.314,246.009,333.419Z" transform="translate(-235.533 -331.015)" fill="#ffc022"/>
                    <path id="Path_30668" data-name="Path 30668" d="M249.639,338.881l-2.419.695v.483l2.475-.763a2.521,2.521,0,0,0,1.052.446l.112.022v.43h.9v-.331c.2.009.378.009.536.006v.326h.9V338.9h-.9v.625a5.251,5.251,0,0,1-.536-.007V338.9h-.9v.44a1.125,1.125,0,0,1-.519-.369l-.7-.092Z" transform="translate(-243.951 -337.134)" fill="#ffc022"/>
                  </g>
                </g>
                <g id="Group_51448" data-name="Group 51448" transform="translate(19.347 9.619)">
                  <path id="Path_30669" data-name="Path 30669" d="M330.66,345.857c0,1.328,2.8,2.4,6.253,2.4s6.253-1.077,6.253-2.4V344.72h-12.5v1.137Z" transform="translate(-330.659 -342.317)" fill="#ff931e"/>
                  <g id="Group_51446" data-name="Group 51446" transform="translate(0 2.408)">
                    <path id="Path_30670" data-name="Path 30670" d="M369.58,348.74v2.945c.2.007.394.012.594.012V348.74Z" transform="translate(-363.922 -348.162)" fill="#d17918"/>
                    <path id="Path_30671" data-name="Path 30671" d="M361.28,348.74v2.855c.323.038.657.064,1,.081V348.74Z" transform="translate(-356.828 -348.162)" fill="#d17918"/>
                    <path id="Path_30672" data-name="Path 30672" d="M334.855,348.163v-3.4h-4.2v1.131C330.65,346.943,332.407,347.837,334.855,348.163Z" transform="translate(-330.65 -344.76)" fill="#d17918"/>
                    <path id="Path_30673" data-name="Path 30673" d="M389,348.74v2.8l.2-.031v-2.767H389Z" transform="translate(-380.519 -348.162)" fill="#d17918"/>
                    <path id="Path_30674" data-name="Path 30674" d="M383.64,351.631l.2-.02V348.74h-.2Z" transform="translate(-375.938 -348.162)" fill="#d17918"/>
                    <path id="Path_30675" data-name="Path 30675" d="M376.86,348.732v2.949c.1,0,.2-.006.3-.012V348.73h-.3Z" transform="translate(-370.144 -348.153)" fill="#d17918"/>
                  </g>
                  <g id="Group_51447" data-name="Group 51447">
                    <path id="Path_30676" data-name="Path 30676" d="M336.9,333c-3.453,0-6.253-1.077-6.253-2.4s2.8-2.4,6.253-2.4,6.253,1.077,6.253,2.4S340.356,333,336.9,333Z" transform="translate(-330.65 -328.19)" fill="#ff931e"/>
                    <path id="Path_30677" data-name="Path 30677" d="M340.426,332.631c-.177.006-.356.01-.538.01-3.453,0-6.253-1.077-6.253-2.4,0-.826,1.081-1.554,2.73-1.987-3.2.1-5.715,1.137-5.715,2.4,0,1.328,2.8,2.4,6.253,2.4A14.075,14.075,0,0,0,340.426,332.631Z" transform="translate(-330.65 -328.241)" opacity="0.4" fill="url(#linear-gradient-4)"/>
                    <path id="Path_30678" data-name="Path 30678" d="M343.184,331.54c-.1-1.294-2.859-2.33-6.247-2.33s-6.144,1.036-6.247,2.33c.1,1.294,2.859,2.33,6.247,2.33S343.082,332.833,343.184,331.54Zm-6.247,2.032c-2.807,0-5.089-.878-5.089-1.958s2.283-1.958,5.089-1.958,5.09.878,5.09,1.958S339.744,333.572,336.937,333.572Z" transform="translate(-330.684 -329.062)" fill="#d17918"/>
                    <path id="Path_30679" data-name="Path 30679" d="M355.549,342.413l-2.419.695v.483l2.475-.763a2.52,2.52,0,0,0,1.052.446c.036.009.074.015.112.022v.43h.9v-.331c.2.009.378.01.536.006v.326h.9v-1.294h-.9v.625a5.241,5.241,0,0,1-.536-.007v-.618h-.9v.44a1.124,1.124,0,0,1-.519-.369l-.7-.093Z" transform="translate(-349.863 -340.343)" fill="#d17918"/>
                    <path id="Path_30680" data-name="Path 30680" d="M341.993,330.594c0,1.078-2.283,1.958-5.09,1.958s-5.089-.878-5.089-1.958,2.283-1.958,5.089-1.958,5.09.878,5.09,1.958m1.163,0c0-1.328-2.8-2.4-6.253-2.4s-6.253,1.077-6.253,2.4,2.8,2.4,6.253,2.4,6.253-1.077,6.253-2.4Z" transform="translate(-330.65 -328.19)" fill="#ffc022"/>
                    <path id="Path_30681" data-name="Path 30681" d="M343.29,334.739c0-.936,1.981-1.7,4.417-1.7s4.417.762,4.417,1.7-1.981,1.7-4.417,1.7S343.29,335.677,343.29,334.739Zm8.639,0c0-.9-1.894-1.624-4.222-1.624s-4.222.728-4.222,1.624,1.894,1.624,4.222,1.624S351.929,335.634,351.929,334.739Z" transform="translate(-341.453 -332.335)" fill="#ffc022"/>
                    <path id="Path_30682" data-name="Path 30682" d="M355.549,340.21l-2.419.695v.483l2.475-.763a2.521,2.521,0,0,0,1.052.446c.036.009.074.015.112.022v.432h.9v-.331c.2.009.378.009.536.006v.326h.9V340.23h-.9v.625a5.241,5.241,0,0,1-.536-.007v-.618h-.9v.44a1.124,1.124,0,0,1-.519-.369Z" transform="translate(-349.863 -338.463)" fill="#ffc022"/>
                  </g>
                </g>
                <g id="Group_51451" data-name="Group 51451" transform="translate(19.347 7.214)">
                  <path id="Path_30683" data-name="Path 30683" d="M330.66,329.317c0,1.327,2.8,2.4,6.253,2.4s6.253-1.077,6.253-2.4V328.18h-12.5v1.137Z" transform="translate(-330.659 -325.776)" fill="#ff931e"/>
                  <g id="Group_51449" data-name="Group 51449" transform="translate(0 2.41)">
                    <path id="Path_30684" data-name="Path 30684" d="M369.58,332.2v2.945c.2.007.394.012.594.012V332.2Z" transform="translate(-363.922 -331.622)" fill="#d17918"/>
                    <path id="Path_30685" data-name="Path 30685" d="M361.28,332.2v2.855c.323.038.657.065,1,.081V332.2Z" transform="translate(-356.828 -331.622)" fill="#d17918"/>
                    <path id="Path_30686" data-name="Path 30686" d="M334.855,331.623v-3.4h-4.2v1.131C330.65,330.4,332.407,331.3,334.855,331.623Z" transform="translate(-330.65 -328.22)" fill="#d17918"/>
                    <path id="Path_30687" data-name="Path 30687" d="M389,332.2V335l.2-.03V332.2H389Z" transform="translate(-380.519 -331.622)" fill="#d17918"/>
                    <path id="Path_30688" data-name="Path 30688" d="M383.64,335.091l.2-.02V332.2h-.2Z" transform="translate(-375.938 -331.622)" fill="#d17918"/>
                    <path id="Path_30689" data-name="Path 30689" d="M376.86,332.2v2.949c.1,0,.2-.006.3-.012V332.2Z" transform="translate(-370.144 -331.622)" fill="#d17918"/>
                  </g>
                  <g id="Group_51450" data-name="Group 51450">
                    <path id="Path_30690" data-name="Path 30690" d="M336.9,316.458c-3.453,0-6.253-1.077-6.253-2.4s2.8-2.4,6.253-2.4,6.253,1.077,6.253,2.4S340.356,316.458,336.9,316.458Z" transform="translate(-330.65 -311.649)" fill="#ff931e"/>
                    <path id="Path_30691" data-name="Path 30691" d="M340.426,316.082c-.177.006-.356.009-.538.009-3.453,0-6.253-1.077-6.253-2.4,0-.826,1.081-1.554,2.73-1.987-3.2.1-5.715,1.137-5.715,2.4,0,1.328,2.8,2.4,6.253,2.4a14.077,14.077,0,0,0,3.523-.419Z" transform="translate(-330.65 -311.691)" opacity="0.4" fill="url(#linear-gradient-5)"/>
                    <path id="Path_30692" data-name="Path 30692" d="M343.184,315c-.1-1.294-2.859-2.33-6.247-2.33s-6.144,1.036-6.247,2.33c.1,1.294,2.859,2.33,6.247,2.33S343.082,316.294,343.184,315Zm-6.247,2.032c-2.807,0-5.089-.878-5.089-1.958s2.283-1.958,5.089-1.958,5.09.878,5.09,1.958S339.744,317.032,336.937,317.032Z" transform="translate(-330.684 -312.52)" fill="#d17918"/>
                    <path id="Path_30693" data-name="Path 30693" d="M355.549,325.881l-2.419.695v.483l2.475-.763a2.521,2.521,0,0,0,1.052.446c.036.009.074.015.112.022v.432h.9v-.331c.2.009.378.01.536.006v.326h.9V325.9h-.9v.625a5.242,5.242,0,0,1-.536-.007V325.9h-.9v.44a1.124,1.124,0,0,1-.519-.369l-.7-.093Z" transform="translate(-349.863 -323.81)" fill="#d17918"/>
                    <path id="Path_30694" data-name="Path 30694" d="M341.993,314.044c0,1.078-2.283,1.958-5.09,1.958s-5.089-.878-5.089-1.958,2.283-1.958,5.089-1.958,5.09.878,5.09,1.958m1.163,0c0-1.328-2.8-2.4-6.253-2.4s-6.253,1.077-6.253,2.4,2.8,2.4,6.253,2.4,6.253-1.077,6.253-2.4Z" transform="translate(-330.65 -311.64)" fill="#ffc022"/>
                    <path id="Path_30695" data-name="Path 30695" d="M343.29,318.189c0-.937,1.981-1.7,4.417-1.7s4.417.762,4.417,1.7-1.981,1.7-4.417,1.7S343.29,319.127,343.29,318.189Zm8.639,0c0-.9-1.894-1.624-4.222-1.624s-4.222.728-4.222,1.624,1.894,1.624,4.222,1.624S351.929,319.084,351.929,318.189Z" transform="translate(-341.453 -315.785)" fill="#ffc022"/>
                    <path id="Path_30696" data-name="Path 30696" d="M355.549,323.651l-2.419.695v.483l2.475-.763a2.521,2.521,0,0,0,1.052.446l.112.022v.43h.9v-.331c.2.009.378.009.536.006v.326h.9V323.67h-.9v.625a5.215,5.215,0,0,1-.536-.007v-.618h-.9v.44a1.124,1.124,0,0,1-.519-.369l-.7-.092Z" transform="translate(-349.863 -321.904)" fill="#ffc022"/>
                  </g>
                </g>
                <g id="Group_51454" data-name="Group 51454" transform="translate(19.347 4.81)">
                  <path id="Path_30697" data-name="Path 30697" d="M330.66,312.777c0,1.327,2.8,2.4,6.253,2.4s6.253-1.077,6.253-2.4V311.64h-12.5v1.137Z" transform="translate(-330.659 -309.236)" fill="#ff931e"/>
                  <g id="Group_51452" data-name="Group 51452" transform="translate(0 2.408)">
                    <path id="Path_30698" data-name="Path 30698" d="M369.58,315.66V318.6c.2.007.394.012.594.012V315.66Z" transform="translate(-363.922 -315.08)" fill="#d17918"/>
                    <path id="Path_30699" data-name="Path 30699" d="M361.28,315.66v2.855c.323.038.657.065,1,.081V315.66Z" transform="translate(-356.828 -315.08)" fill="#d17918"/>
                    <path id="Path_30700" data-name="Path 30700" d="M334.855,315.073v-3.4h-4.2V312.8C330.65,313.853,332.407,314.746,334.855,315.073Z" transform="translate(-330.65 -311.67)" fill="#d17918"/>
                    <path id="Path_30701" data-name="Path 30701" d="M389,315.66v2.8l.2-.031v-2.767H389Z" transform="translate(-380.519 -315.08)" fill="#d17918"/>
                    <path id="Path_30702" data-name="Path 30702" d="M383.64,318.551c.068-.006.137-.013.2-.02V315.66h-.2Z" transform="translate(-375.938 -315.08)" fill="#d17918"/>
                    <path id="Path_30703" data-name="Path 30703" d="M376.86,315.66v2.949c.1,0,.2-.006.3-.012V315.66h-.3Z" transform="translate(-370.144 -315.08)" fill="#d17918"/>
                  </g>
                  <g id="Group_51453" data-name="Group 51453">
                    <path id="Path_30704" data-name="Path 30704" d="M336.9,299.908c-3.453,0-6.253-1.077-6.253-2.4s2.8-2.4,6.253-2.4,6.253,1.077,6.253,2.4S340.356,299.908,336.9,299.908Z" transform="translate(-330.65 -295.1)" fill="#ff931e"/>
                    <path id="Path_30705" data-name="Path 30705" d="M340.426,299.542c-.177.006-.356.009-.538.009-3.453,0-6.253-1.077-6.253-2.4,0-.826,1.081-1.554,2.73-1.987-3.2.1-5.715,1.137-5.715,2.4,0,1.328,2.8,2.4,6.253,2.4a14.075,14.075,0,0,0,3.523-.419Z" transform="translate(-330.65 -295.151)" opacity="0.4" fill="url(#linear-gradient-6)"/>
                    <path id="Path_30706" data-name="Path 30706" d="M343.184,298.45c-.1-1.294-2.859-2.33-6.247-2.33s-6.144,1.036-6.247,2.33c.1,1.294,2.859,2.33,6.247,2.33S343.082,299.743,343.184,298.45Zm-6.247,2.032c-2.807,0-5.089-.878-5.089-1.958s2.283-1.958,5.089-1.958,5.09.878,5.09,1.958S339.744,300.482,336.937,300.482Z" transform="translate(-330.684 -295.972)" fill="#d17918"/>
                    <path id="Path_30707" data-name="Path 30707" d="M355.549,309.314l-2.419.695v.483l2.475-.763a2.521,2.521,0,0,0,1.052.446c.036.009.074.014.112.022v.43h.9V310.3c.2.009.378.01.536.006v.326h.9v-1.294h-.9v.624a5.258,5.258,0,0,1-.536-.007v-.618h-.9v.44a1.124,1.124,0,0,1-.519-.369l-.7-.093Z" transform="translate(-349.863 -307.245)" fill="#d17918"/>
                    <path id="Path_30708" data-name="Path 30708" d="M341.993,297.5c0,1.078-2.283,1.958-5.09,1.958s-5.089-.878-5.089-1.958,2.283-1.958,5.089-1.958,5.09.878,5.09,1.958m1.163,0c0-1.328-2.8-2.4-6.253-2.4s-6.253,1.077-6.253,2.4,2.8,2.4,6.253,2.4,6.253-1.077,6.253-2.4Z" transform="translate(-330.65 -295.1)" fill="#ffc022"/>
                    <path id="Path_30709" data-name="Path 30709" d="M343.29,301.649c0-.938,1.981-1.7,4.417-1.7s4.417.762,4.417,1.7-1.981,1.7-4.417,1.7S343.29,302.587,343.29,301.649Zm8.639,0c0-.9-1.894-1.624-4.222-1.624s-4.222.728-4.222,1.624,1.894,1.624,4.222,1.624S351.929,302.544,351.929,301.649Z" transform="translate(-341.453 -299.245)" fill="#ffc022"/>
                    <path id="Path_30710" data-name="Path 30710" d="M355.549,307.111l-2.419.695v.483l2.475-.763a2.52,2.52,0,0,0,1.052.446l.112.022v.43h.9v-.331c.2.009.378.009.536.006v.326h.9V307.13h-.9v.625a5.25,5.25,0,0,1-.536-.007v-.618h-.9v.44a1.124,1.124,0,0,1-.519-.369l-.7-.092Z" transform="translate(-349.863 -305.364)" fill="#ffc022"/>
                  </g>
                </g>
                <g id="Group_51457" data-name="Group 51457" transform="translate(19.347 2.405)">
                  <path id="Path_30711" data-name="Path 30711" d="M330.66,296.227c0,1.327,2.8,2.4,6.253,2.4s6.253-1.077,6.253-2.4V295.09h-12.5v1.137Z" transform="translate(-330.659 -292.687)" fill="#ff931e"/>
                  <g id="Group_51455" data-name="Group 51455" transform="translate(0 2.408)">
                    <path id="Path_30712" data-name="Path 30712" d="M369.58,299.11v2.945c.2.007.394.012.594.012V299.11Z" transform="translate(-363.922 -298.532)" fill="#d17918"/>
                    <path id="Path_30713" data-name="Path 30713" d="M361.28,299.11v2.855c.323.038.657.064,1,.081V299.11Z" transform="translate(-356.828 -298.532)" fill="#d17918"/>
                    <path id="Path_30714" data-name="Path 30714" d="M334.855,298.533v-3.4h-4.2v1.131C330.65,297.313,332.407,298.206,334.855,298.533Z" transform="translate(-330.65 -295.13)" fill="#d17918"/>
                    <path id="Path_30715" data-name="Path 30715" d="M389,299.11v2.8l.2-.031v-2.767H389Z" transform="translate(-380.519 -298.532)" fill="#d17918"/>
                    <path id="Path_30716" data-name="Path 30716" d="M383.64,302c.068-.006.137-.013.2-.02V299.11h-.2Z" transform="translate(-375.938 -298.532)" fill="#d17918"/>
                    <path id="Path_30717" data-name="Path 30717" d="M376.86,299.1v2.949c.1,0,.2-.006.3-.012V299.1h-.3Z" transform="translate(-370.144 -298.523)" fill="#d17918"/>
                  </g>
                  <g id="Group_51456" data-name="Group 51456">
                    <path id="Path_30718" data-name="Path 30718" d="M336.9,283.368c-3.453,0-6.253-1.077-6.253-2.4s2.8-2.4,6.253-2.4,6.253,1.077,6.253,2.4S340.356,283.368,336.9,283.368Z" transform="translate(-330.65 -278.56)" fill="#ff931e"/>
                    <path id="Path_30719" data-name="Path 30719" d="M340.426,283c-.177.006-.356.01-.538.01-3.453,0-6.253-1.077-6.253-2.4,0-.826,1.081-1.554,2.73-1.987-3.2.1-5.715,1.137-5.715,2.4,0,1.328,2.8,2.4,6.253,2.4A14.075,14.075,0,0,0,340.426,283Z" transform="translate(-330.65 -278.611)" opacity="0.4" fill="url(#linear-gradient-7)"/>
                    <path id="Path_30720" data-name="Path 30720" d="M343.184,281.91c-.1-1.294-2.859-2.33-6.247-2.33s-6.144,1.036-6.247,2.33c.1,1.294,2.859,2.33,6.247,2.33S343.082,283.2,343.184,281.91Zm-6.247,2.032c-2.807,0-5.089-.878-5.089-1.958s2.283-1.958,5.089-1.958,5.09.878,5.09,1.958S339.744,283.942,336.937,283.942Z" transform="translate(-330.684 -279.432)" fill="#d17918"/>
                    <path id="Path_30721" data-name="Path 30721" d="M355.549,292.783l-2.419.695v.483l2.475-.763a2.52,2.52,0,0,0,1.052.446c.036.009.074.015.112.022v.43h.9v-.331c.2.009.378.009.536.006v.326h.9V292.8h-.9v.625a5.242,5.242,0,0,1-.536-.007V292.8h-.9v.44a1.124,1.124,0,0,1-.519-.369l-.7-.093Z" transform="translate(-349.863 -290.713)" fill="#d17918"/>
                    <path id="Path_30722" data-name="Path 30722" d="M341.993,280.964c0,1.078-2.283,1.958-5.09,1.958s-5.089-.878-5.089-1.958,2.283-1.958,5.089-1.958,5.09.878,5.09,1.958m1.163,0c0-1.328-2.8-2.4-6.253-2.4s-6.253,1.077-6.253,2.4,2.8,2.4,6.253,2.4,6.253-1.077,6.253-2.4Z" transform="translate(-330.65 -278.56)" fill="#ffc022"/>
                    <path id="Path_30723" data-name="Path 30723" d="M343.29,285.109c0-.937,1.981-1.7,4.417-1.7s4.417.762,4.417,1.7-1.981,1.7-4.417,1.7S343.29,286.047,343.29,285.109Zm8.639,0c0-.9-1.894-1.624-4.222-1.624s-4.222.728-4.222,1.624,1.894,1.624,4.222,1.624S351.929,286,351.929,285.109Z" transform="translate(-341.453 -282.705)" fill="#ffc022"/>
                    <path id="Path_30724" data-name="Path 30724" d="M355.549,290.58l-2.419.695v.483l2.475-.763a2.52,2.52,0,0,0,1.052.446c.036.009.074.015.112.022v.432h.9v-.331c.2.009.378.009.536.006v.326h.9V290.6h-.9v.625a5.215,5.215,0,0,1-.536-.007V290.6h-.9v.44a1.124,1.124,0,0,1-.519-.369Z" transform="translate(-349.863 -288.833)" fill="#ffc022"/>
                  </g>
                </g>
                <g id="Group_51460" data-name="Group 51460" transform="translate(19.347)">
                  <path id="Path_30725" data-name="Path 30725" d="M330.66,279.687c0,1.327,2.8,2.4,6.253,2.4s6.253-1.077,6.253-2.4V278.55h-12.5v1.137Z" transform="translate(-330.659 -276.146)" fill="#ff931e"/>
                  <g id="Group_51458" data-name="Group 51458" transform="translate(0 2.41)">
                    <path id="Path_30726" data-name="Path 30726" d="M369.58,282.57v2.945c.2.007.394.012.594.012V282.57Z" transform="translate(-363.922 -281.992)" fill="#d17918"/>
                    <path id="Path_30727" data-name="Path 30727" d="M361.28,282.57v2.855c.323.038.657.064,1,.081V282.57Z" transform="translate(-356.828 -281.992)" fill="#d17918"/>
                    <path id="Path_30728" data-name="Path 30728" d="M334.855,281.993v-3.4h-4.2v1.131C330.65,280.773,332.407,281.667,334.855,281.993Z" transform="translate(-330.65 -278.59)" fill="#d17918"/>
                    <path id="Path_30729" data-name="Path 30729" d="M389,282.57v2.8l.2-.031V282.57Z" transform="translate(-380.519 -281.992)" fill="#d17918"/>
                    <path id="Path_30730" data-name="Path 30730" d="M383.64,285.461c.068-.006.137-.013.2-.02V282.57h-.2Z" transform="translate(-375.938 -281.992)" fill="#d17918"/>
                    <path id="Path_30731" data-name="Path 30731" d="M376.86,282.561v2.949c.1,0,.2-.006.3-.012V282.56h-.3Z" transform="translate(-370.144 -281.983)" fill="#d17918"/>
                  </g>
                  <g id="Group_51459" data-name="Group 51459">
                    <path id="Path_30732" data-name="Path 30732" d="M336.9,266.828c-3.453,0-6.253-1.077-6.253-2.4s2.8-2.4,6.253-2.4,6.253,1.077,6.253,2.4S340.356,266.828,336.9,266.828Z" transform="translate(-330.65 -262.019)" fill="#ff931e"/>
                    <path id="Path_30733" data-name="Path 30733" d="M340.426,266.461c-.177.006-.356.01-.538.01-3.453,0-6.253-1.077-6.253-2.4,0-.826,1.081-1.554,2.73-1.987-3.2.1-5.715,1.137-5.715,2.4,0,1.328,2.8,2.4,6.253,2.4A14.074,14.074,0,0,0,340.426,266.461Z" transform="translate(-330.65 -262.07)" opacity="0.4" fill="url(#linear-gradient-8)"/>
                    <path id="Path_30734" data-name="Path 30734" d="M343.184,265.37c-.1-1.294-2.859-2.33-6.247-2.33s-6.144,1.036-6.247,2.33c.1,1.294,2.859,2.33,6.247,2.33S343.082,266.664,343.184,265.37Zm-6.247,2.032c-2.807,0-5.089-.878-5.089-1.958s2.283-1.958,5.089-1.958,5.09.878,5.09,1.958S339.744,267.4,336.937,267.4Z" transform="translate(-330.684 -262.89)" fill="#d17918"/>
                    <path id="Path_30735" data-name="Path 30735" d="M355.549,276.251l-2.419.695v.483l2.475-.763a2.52,2.52,0,0,0,1.052.446c.036.009.074.015.112.022v.432h.9v-.331c.2.009.378.01.536.006v.326h.9v-1.294h-.9v.625a5.225,5.225,0,0,1-.536-.007v-.618h-.9v.44a1.124,1.124,0,0,1-.519-.369l-.7-.093Z" transform="translate(-349.863 -274.18)" fill="#d17918"/>
                    <path id="Path_30736" data-name="Path 30736" d="M341.993,264.414c0,1.078-2.283,1.958-5.09,1.958s-5.089-.878-5.089-1.958,2.283-1.958,5.089-1.958,5.09.878,5.09,1.958m1.163,0c0-1.328-2.8-2.4-6.253-2.4s-6.253,1.077-6.253,2.4,2.8,2.4,6.253,2.4,6.253-1.077,6.253-2.4Z" transform="translate(-330.65 -262.01)" fill="#ffc022"/>
                    <path id="Path_30737" data-name="Path 30737" d="M343.29,268.559c0-.936,1.981-1.7,4.417-1.7s4.417.762,4.417,1.7-1.981,1.7-4.417,1.7S343.29,269.5,343.29,268.559Zm8.639,0c0-.9-1.894-1.624-4.222-1.624s-4.222.728-4.222,1.624,1.894,1.624,4.222,1.624S351.929,269.454,351.929,268.559Z" transform="translate(-341.453 -266.155)" fill="#ffc022"/>
                    <path id="Path_30738" data-name="Path 30738" d="M355.549,274.03l-2.419.695v.483l2.475-.763a2.52,2.52,0,0,0,1.052.446l.112.022v.432h.9v-.331c.2.009.378.009.536.006v.326h.9V274.05h-.9v.625a5.25,5.25,0,0,1-.536-.007v-.618h-.9v.44a1.124,1.124,0,0,1-.519-.369Z" transform="translate(-349.863 -272.283)" fill="#ffc022"/>
                  </g>
                </g>
                <g id="Group_51463" data-name="Group 51463" transform="translate(13.696 16.885)">
                  <path id="Path_30739" data-name="Path 30739" d="M291.78,395.857c0,1.328,2.8,2.4,6.253,2.4s6.253-1.077,6.253-2.4V394.72h-12.5v1.137Z" transform="translate(-291.779 -392.316)" fill="#ff931e"/>
                  <g id="Group_51461" data-name="Group 51461" transform="translate(0 2.41)">
                    <path id="Path_30740" data-name="Path 30740" d="M330.7,398.74v2.945c.2.007.394.012.595.012V398.74Z" transform="translate(-325.042 -398.162)" fill="#d17918"/>
                    <path id="Path_30741" data-name="Path 30741" d="M322.4,398.74v2.855c.323.038.657.064,1,.081V398.74Z" transform="translate(-317.948 -398.162)" fill="#d17918"/>
                    <path id="Path_30742" data-name="Path 30742" d="M295.975,398.163v-3.4h-4.2v1.131C291.77,396.943,293.527,397.837,295.975,398.163Z" transform="translate(-291.77 -394.76)" fill="#d17918"/>
                    <path id="Path_30743" data-name="Path 30743" d="M350.12,398.74v2.8l.2-.031V398.74Z" transform="translate(-341.639 -398.162)" fill="#d17918"/>
                    <path id="Path_30744" data-name="Path 30744" d="M344.76,401.631c.068-.006.137-.013.2-.02V398.74h-.2Z" transform="translate(-337.058 -398.162)" fill="#d17918"/>
                    <path id="Path_30745" data-name="Path 30745" d="M337.98,398.731v2.949c.1,0,.2-.006.3-.012V398.73h-.3Z" transform="translate(-331.264 -398.153)" fill="#d17918"/>
                  </g>
                  <g id="Group_51462" data-name="Group 51462">
                    <path id="Path_30746" data-name="Path 30746" d="M298.023,382.988c-3.453,0-6.253-1.077-6.253-2.4s2.8-2.4,6.253-2.4,6.253,1.077,6.253,2.4S301.476,382.988,298.023,382.988Z" transform="translate(-291.77 -378.18)" fill="#ff931e"/>
                    <path id="Path_30747" data-name="Path 30747" d="M301.546,382.631c-.177.006-.356.01-.538.01-3.453,0-6.253-1.077-6.253-2.4,0-.826,1.081-1.554,2.73-1.987-3.2.1-5.715,1.137-5.715,2.4,0,1.328,2.8,2.4,6.253,2.4A14.067,14.067,0,0,0,301.546,382.631Z" transform="translate(-291.77 -378.24)" opacity="0.4" fill="url(#linear-gradient-9)"/>
                    <path id="Path_30748" data-name="Path 30748" d="M304.3,381.53c-.1-1.294-2.859-2.33-6.247-2.33s-6.144,1.036-6.247,2.33c.1,1.294,2.859,2.33,6.247,2.33S304.2,382.824,304.3,381.53Zm-6.247,2.032c-2.807,0-5.089-.878-5.089-1.958s2.283-1.958,5.089-1.958,5.09.878,5.09,1.958S300.864,383.562,298.057,383.562Z" transform="translate(-291.804 -379.052)" fill="#d17918"/>
                    <path id="Path_30749" data-name="Path 30749" d="M316.669,392.4l-2.419.695v.483l2.475-.763a2.519,2.519,0,0,0,1.052.446c.036.009.074.015.112.022v.43h.9v-.331c.2.009.378.01.536.006v.326h.9v-1.294h-.9v.625a5.243,5.243,0,0,1-.536-.007v-.618h-.9v.44a1.124,1.124,0,0,1-.519-.369l-.7-.093Z" transform="translate(-310.983 -390.333)" fill="#d17918"/>
                    <path id="Path_30750" data-name="Path 30750" d="M303.113,380.584c0,1.078-2.283,1.958-5.09,1.958s-5.089-.878-5.089-1.958,2.283-1.958,5.089-1.958,5.09.878,5.09,1.958m1.163,0c0-1.328-2.8-2.4-6.253-2.4s-6.253,1.077-6.253,2.4,2.8,2.4,6.253,2.4,6.253-1.077,6.253-2.4Z" transform="translate(-291.77 -378.18)" fill="#ffc022"/>
                    <path id="Path_30751" data-name="Path 30751" d="M304.41,384.729c0-.936,1.981-1.7,4.417-1.7s4.417.762,4.417,1.7-1.981,1.7-4.417,1.7S304.41,385.667,304.41,384.729Zm8.639,0c0-.9-1.894-1.624-4.222-1.624s-4.222.728-4.222,1.624,1.894,1.624,4.222,1.624S313.049,385.624,313.049,384.729Z" transform="translate(-302.573 -382.325)" fill="#ffc022"/>
                    <path id="Path_30752" data-name="Path 30752" d="M316.669,390.2l-2.419.695v.483l2.475-.763a2.52,2.52,0,0,0,1.052.446c.036.009.074.015.112.022v.432h.9v-.331c.2.009.378.009.536.006v.326h.9V390.22h-.9v.625a5.216,5.216,0,0,1-.536-.007v-.618h-.9v.44a1.125,1.125,0,0,1-.519-.369Z" transform="translate(-310.983 -388.453)" fill="#ffc022"/>
                  </g>
                </g>
                <g id="Group_51466" data-name="Group 51466" transform="translate(13.696 14.481)">
                  <path id="Path_30753" data-name="Path 30753" d="M291.78,379.307c0,1.327,2.8,2.4,6.253,2.4s6.253-1.077,6.253-2.4V378.17h-12.5v1.137Z" transform="translate(-291.779 -375.767)" fill="#ff931e"/>
                  <g id="Group_51464" data-name="Group 51464" transform="translate(0 2.408)">
                    <path id="Path_30754" data-name="Path 30754" d="M330.7,382.19v2.945c.2.007.394.012.595.012V382.19Z" transform="translate(-325.042 -381.612)" fill="#d17918"/>
                    <path id="Path_30755" data-name="Path 30755" d="M322.4,382.19v2.855c.323.038.657.065,1,.081V382.19Z" transform="translate(-317.948 -381.612)" fill="#d17918"/>
                    <path id="Path_30756" data-name="Path 30756" d="M295.975,381.613v-3.4h-4.2v1.131C291.77,380.393,293.527,381.286,295.975,381.613Z" transform="translate(-291.77 -378.21)" fill="#d17918"/>
                    <path id="Path_30757" data-name="Path 30757" d="M350.12,382.19v2.8l.2-.031v-2.767h-.2Z" transform="translate(-341.639 -381.612)" fill="#d17918"/>
                    <path id="Path_30758" data-name="Path 30758" d="M344.76,385.081c.068-.006.137-.013.2-.02V382.19h-.2Z" transform="translate(-337.058 -381.612)" fill="#d17918"/>
                    <path id="Path_30759" data-name="Path 30759" d="M337.98,382.19v2.949c.1,0,.2-.006.3-.012V382.19Z" transform="translate(-331.264 -381.612)" fill="#d17918"/>
                  </g>
                  <g id="Group_51465" data-name="Group 51465">
                    <path id="Path_30760" data-name="Path 30760" d="M298.023,366.448c-3.453,0-6.253-1.077-6.253-2.4s2.8-2.4,6.253-2.4,6.253,1.077,6.253,2.4S301.476,366.448,298.023,366.448Z" transform="translate(-291.77 -361.64)" fill="#ff931e"/>
                    <path id="Path_30761" data-name="Path 30761" d="M301.546,366.072c-.177.006-.356.009-.538.009-3.453,0-6.253-1.077-6.253-2.4,0-.826,1.081-1.554,2.73-1.987-3.2.1-5.715,1.137-5.715,2.4,0,1.328,2.8,2.4,6.253,2.4a14.065,14.065,0,0,0,3.523-.419Z" transform="translate(-291.77 -361.683)" opacity="0.4" fill="url(#linear-gradient-10)"/>
                    <path id="Path_30762" data-name="Path 30762" d="M304.3,364.99c-.1-1.294-2.859-2.33-6.247-2.33s-6.144,1.036-6.247,2.33c.1,1.294,2.859,2.33,6.247,2.33S304.2,366.283,304.3,364.99Zm-6.247,2.032c-2.807,0-5.089-.878-5.089-1.958s2.283-1.958,5.089-1.958,5.09.878,5.09,1.958S300.864,367.022,298.057,367.022Z" transform="translate(-291.804 -362.512)" fill="#d17918"/>
                    <path id="Path_30763" data-name="Path 30763" d="M316.669,375.871l-2.419.695v.483l2.475-.763a2.52,2.52,0,0,0,1.052.446c.036.009.074.015.112.022v.432h.9v-.331c.2.009.378.01.536.006v.326h.9v-1.294h-.9v.625a5.269,5.269,0,0,1-.536-.007v-.618h-.9v.44a1.124,1.124,0,0,1-.519-.369l-.7-.093Z" transform="translate(-310.983 -373.802)" fill="#d17918"/>
                    <path id="Path_30764" data-name="Path 30764" d="M303.113,364.044c0,1.078-2.283,1.958-5.09,1.958s-5.089-.878-5.089-1.958,2.283-1.958,5.089-1.958,5.09.878,5.09,1.958m1.163,0c0-1.328-2.8-2.4-6.253-2.4s-6.253,1.077-6.253,2.4,2.8,2.4,6.253,2.4,6.253-1.077,6.253-2.4Z" transform="translate(-291.77 -361.64)" fill="#ffc022"/>
                    <path id="Path_30765" data-name="Path 30765" d="M304.41,368.189c0-.937,1.981-1.7,4.417-1.7s4.417.762,4.417,1.7-1.981,1.7-4.417,1.7S304.41,369.127,304.41,368.189Zm8.639,0c0-.9-1.894-1.624-4.222-1.624s-4.222.728-4.222,1.624,1.894,1.624,4.222,1.624S313.049,369.085,313.049,368.189Z" transform="translate(-302.573 -365.785)" fill="#ffc022"/>
                    <path id="Path_30766" data-name="Path 30766" d="M316.669,373.652l-2.419.695v.483l2.475-.763a2.521,2.521,0,0,0,1.052.446l.112.022v.43h.9v-.331c.2.009.378.009.536.006v.326h.9V373.67h-.9v.625a5.251,5.251,0,0,1-.536-.007v-.618h-.9v.44a1.125,1.125,0,0,1-.519-.369l-.7-.092Z" transform="translate(-310.983 -371.904)" fill="#ffc022"/>
                  </g>
                </g>
                <g id="Group_51469" data-name="Group 51469" transform="translate(13.696 12.075)">
                  <path id="Path_30767" data-name="Path 30767" d="M291.78,362.767c0,1.327,2.8,2.4,6.253,2.4s6.253-1.077,6.253-2.4V361.63h-12.5v1.137Z" transform="translate(-291.779 -359.226)" fill="#ff931e"/>
                  <g id="Group_51467" data-name="Group 51467" transform="translate(0 2.41)">
                    <path id="Path_30768" data-name="Path 30768" d="M330.7,365.65v2.945c.2.007.394.012.595.012V365.65Z" transform="translate(-325.042 -365.072)" fill="#d17918"/>
                    <path id="Path_30769" data-name="Path 30769" d="M322.4,365.65V368.5c.323.038.657.065,1,.081V365.65Z" transform="translate(-317.948 -365.072)" fill="#d17918"/>
                    <path id="Path_30770" data-name="Path 30770" d="M295.975,365.073v-3.4h-4.2V362.8C291.77,363.853,293.527,364.746,295.975,365.073Z" transform="translate(-291.77 -361.67)" fill="#d17918"/>
                    <path id="Path_30771" data-name="Path 30771" d="M350.12,365.65v2.8l.2-.031v-2.767h-.2Z" transform="translate(-341.639 -365.072)" fill="#d17918"/>
                    <path id="Path_30772" data-name="Path 30772" d="M344.76,368.541c.068-.006.137-.013.2-.02V365.65h-.2Z" transform="translate(-337.058 -365.072)" fill="#d17918"/>
                    <path id="Path_30773" data-name="Path 30773" d="M337.98,365.65V368.6c.1,0,.2-.006.3-.012V365.65Z" transform="translate(-331.264 -365.072)" fill="#d17918"/>
                  </g>
                  <g id="Group_51468" data-name="Group 51468">
                    <path id="Path_30774" data-name="Path 30774" d="M298.023,349.908c-3.453,0-6.253-1.077-6.253-2.4s2.8-2.4,6.253-2.4,6.253,1.077,6.253,2.4S301.476,349.908,298.023,349.908Z" transform="translate(-291.77 -345.099)" fill="#ff931e"/>
                    <path id="Path_30775" data-name="Path 30775" d="M301.546,349.532c-.177.006-.356.009-.538.009-3.453,0-6.253-1.077-6.253-2.4,0-.826,1.081-1.554,2.73-1.987-3.2.1-5.715,1.137-5.715,2.4,0,1.328,2.8,2.4,6.253,2.4a14.067,14.067,0,0,0,3.523-.419Z" transform="translate(-291.77 -345.141)" opacity="0.4" fill="url(#linear-gradient-11)"/>
                    <path id="Path_30776" data-name="Path 30776" d="M304.3,348.45c-.1-1.294-2.859-2.33-6.247-2.33s-6.144,1.036-6.247,2.33c.1,1.294,2.859,2.33,6.247,2.33S304.2,349.744,304.3,348.45Zm-6.247,2.032c-2.807,0-5.089-.878-5.089-1.958s2.283-1.958,5.089-1.958,5.09.878,5.09,1.958S300.864,350.482,298.057,350.482Z" transform="translate(-291.804 -345.97)" fill="#d17918"/>
                    <path id="Path_30777" data-name="Path 30777" d="M316.669,359.323l-2.419.695v.483l2.475-.763a2.52,2.52,0,0,0,1.052.446c.036.009.074.015.112.022v.43h.9V360.3c.2.009.378.01.536.006v.326h.9v-1.294h-.9v.625a5.251,5.251,0,0,1-.536-.007v-.618h-.9v.44a1.124,1.124,0,0,1-.519-.369l-.7-.093Z" transform="translate(-310.983 -357.252)" fill="#d17918"/>
                    <path id="Path_30778" data-name="Path 30778" d="M303.113,347.494c0,1.078-2.283,1.958-5.09,1.958s-5.089-.878-5.089-1.958,2.283-1.958,5.089-1.958,5.09.878,5.09,1.958m1.163,0c0-1.328-2.8-2.4-6.253-2.4s-6.253,1.077-6.253,2.4,2.8,2.4,6.253,2.4,6.253-1.077,6.253-2.4Z" transform="translate(-291.77 -345.09)" fill="#ffc022"/>
                    <path id="Path_30779" data-name="Path 30779" d="M304.41,351.639c0-.937,1.981-1.7,4.417-1.7s4.417.762,4.417,1.7-1.981,1.7-4.417,1.7S304.41,352.577,304.41,351.639Zm8.639,0c0-.9-1.894-1.624-4.222-1.624s-4.222.728-4.222,1.624,1.894,1.624,4.222,1.624S313.049,352.534,313.049,351.639Z" transform="translate(-302.573 -349.235)" fill="#ffc022"/>
                    <path id="Path_30780" data-name="Path 30780" d="M316.669,357.1l-2.419.695v.483l2.475-.763a2.52,2.52,0,0,0,1.052.446l.112.022v.43h.9v-.331c.2.009.378.009.536.006v.326h.9V357.12h-.9v.625a5.224,5.224,0,0,1-.536-.007v-.618h-.9v.44a1.125,1.125,0,0,1-.519-.369l-.7-.092Z" transform="translate(-310.983 -355.354)" fill="#ffc022"/>
                  </g>
                </g>
                <g id="Group_51472" data-name="Group 51472" transform="translate(13.696 9.671)">
                  <path id="Path_30781" data-name="Path 30781" d="M291.78,346.227c0,1.327,2.8,2.4,6.253,2.4s6.253-1.077,6.253-2.4V345.09h-12.5v1.137Z" transform="translate(-291.779 -342.686)" fill="#ff931e"/>
                  <g id="Group_51470" data-name="Group 51470" transform="translate(0 2.41)">
                    <path id="Path_30782" data-name="Path 30782" d="M330.7,349.11v2.945c.2.007.394.012.595.012V349.11Z" transform="translate(-325.042 -348.532)" fill="#d17918"/>
                    <path id="Path_30783" data-name="Path 30783" d="M322.4,349.11v2.855c.323.038.657.064,1,.081V349.11Z" transform="translate(-317.948 -348.532)" fill="#d17918"/>
                    <path id="Path_30784" data-name="Path 30784" d="M295.975,348.533v-3.4h-4.2v1.131C291.77,347.313,293.527,348.206,295.975,348.533Z" transform="translate(-291.77 -345.13)" fill="#d17918"/>
                    <path id="Path_30785" data-name="Path 30785" d="M350.12,349.11v2.8l.2-.031V349.11Z" transform="translate(-341.639 -348.532)" fill="#d17918"/>
                    <path id="Path_30786" data-name="Path 30786" d="M344.76,352c.068-.006.137-.013.2-.02V349.11h-.2Z" transform="translate(-337.058 -348.532)" fill="#d17918"/>
                    <path id="Path_30787" data-name="Path 30787" d="M337.98,349.1v2.949c.1,0,.2-.006.3-.012V349.1h-.3Z" transform="translate(-331.264 -348.523)" fill="#d17918"/>
                  </g>
                  <g id="Group_51471" data-name="Group 51471">
                    <path id="Path_30788" data-name="Path 30788" d="M298.023,333.358c-3.453,0-6.253-1.077-6.253-2.4s2.8-2.4,6.253-2.4,6.253,1.077,6.253,2.4S301.476,333.358,298.023,333.358Z" transform="translate(-291.77 -328.55)" fill="#ff931e"/>
                    <path id="Path_30789" data-name="Path 30789" d="M301.546,333c-.177.006-.356.01-.538.01-3.453,0-6.253-1.077-6.253-2.4,0-.826,1.081-1.554,2.73-1.987-3.2.1-5.715,1.137-5.715,2.4,0,1.328,2.8,2.4,6.253,2.4A14.067,14.067,0,0,0,301.546,333Z" transform="translate(-291.77 -328.61)" opacity="0.4" fill="url(#linear-gradient-12)"/>
                    <path id="Path_30790" data-name="Path 30790" d="M304.3,331.9c-.1-1.294-2.859-2.33-6.247-2.33s-6.144,1.036-6.247,2.33c.1,1.294,2.859,2.33,6.247,2.33S304.2,333.194,304.3,331.9Zm-6.247,2.032c-2.807,0-5.089-.878-5.089-1.958s2.283-1.958,5.089-1.958,5.09.878,5.09,1.958S300.864,333.932,298.057,333.932Z" transform="translate(-291.804 -329.422)" fill="#d17918"/>
                    <path id="Path_30791" data-name="Path 30791" d="M316.669,342.773l-2.419.695v.483l2.475-.763a2.52,2.52,0,0,0,1.052.446c.036.009.074.014.112.022v.43h.9v-.331c.2.009.378.009.536.006v.326h.9v-1.294h-.9v.625a5.259,5.259,0,0,1-.536-.007v-.618h-.9v.44a1.125,1.125,0,0,1-.519-.369l-.7-.093Z" transform="translate(-310.983 -340.703)" fill="#d17918"/>
                    <path id="Path_30792" data-name="Path 30792" d="M303.113,330.954c0,1.078-2.283,1.958-5.09,1.958s-5.089-.878-5.089-1.958S295.218,329,298.023,329s5.09.878,5.09,1.958m1.163,0c0-1.328-2.8-2.4-6.253-2.4s-6.253,1.077-6.253,2.4,2.8,2.4,6.253,2.4,6.253-1.077,6.253-2.4Z" transform="translate(-291.77 -328.55)" fill="#ffc022"/>
                    <path id="Path_30793" data-name="Path 30793" d="M304.41,335.1c0-.937,1.981-1.7,4.417-1.7s4.417.762,4.417,1.7-1.981,1.7-4.417,1.7S304.41,336.037,304.41,335.1Zm8.639,0c0-.9-1.894-1.624-4.222-1.624s-4.222.728-4.222,1.624,1.894,1.624,4.222,1.624S313.049,335.994,313.049,335.1Z" transform="translate(-302.573 -332.695)" fill="#ffc022"/>
                    <path id="Path_30794" data-name="Path 30794" d="M316.669,340.57l-2.419.695v.483l2.475-.763a2.521,2.521,0,0,0,1.052.446c.036.009.074.015.112.022v.432h.9v-.331c.2.009.378.009.536.006v.326h.9V340.59h-.9v.625a5.216,5.216,0,0,1-.536-.007v-.618h-.9v.44a1.124,1.124,0,0,1-.519-.369Z" transform="translate(-310.983 -338.823)" fill="#ffc022"/>
                  </g>
                </g>
                <g id="Group_51475" data-name="Group 51475" transform="translate(13.696 7.267)">
                  <path id="Path_30795" data-name="Path 30795" d="M291.78,329.677c0,1.327,2.8,2.4,6.253,2.4s6.253-1.077,6.253-2.4V328.54h-12.5v1.137Z" transform="translate(-291.779 -326.137)" fill="#ff931e"/>
                  <g id="Group_51473" data-name="Group 51473" transform="translate(0 2.408)">
                    <path id="Path_30796" data-name="Path 30796" d="M330.7,332.56V335.5c.2.007.394.012.595.012V332.56Z" transform="translate(-325.042 -331.982)" fill="#d17918"/>
                    <path id="Path_30797" data-name="Path 30797" d="M322.4,332.56v2.855c.323.038.657.064,1,.081V332.56Z" transform="translate(-317.948 -331.982)" fill="#d17918"/>
                    <path id="Path_30798" data-name="Path 30798" d="M295.975,331.983v-3.4h-4.2v1.131C291.77,330.763,293.527,331.657,295.975,331.983Z" transform="translate(-291.77 -328.58)" fill="#d17918"/>
                    <path id="Path_30799" data-name="Path 30799" d="M350.12,332.56v2.8l.2-.031v-2.767h-.2Z" transform="translate(-341.639 -331.982)" fill="#d17918"/>
                    <path id="Path_30800" data-name="Path 30800" d="M344.76,335.451c.068-.006.137-.013.2-.02V332.56h-.2Z" transform="translate(-337.058 -331.982)" fill="#d17918"/>
                    <path id="Path_30801" data-name="Path 30801" d="M337.98,332.552V335.5c.1,0,.2-.006.3-.012V332.55h-.3Z" transform="translate(-331.264 -331.973)" fill="#d17918"/>
                  </g>
                  <g id="Group_51474" data-name="Group 51474">
                    <path id="Path_30802" data-name="Path 30802" d="M298.023,316.818c-3.453,0-6.253-1.077-6.253-2.4s2.8-2.4,6.253-2.4,6.253,1.077,6.253,2.4S301.476,316.818,298.023,316.818Z" transform="translate(-291.77 -312.01)" fill="#ff931e"/>
                    <path id="Path_30803" data-name="Path 30803" d="M301.546,316.451c-.177.006-.356.01-.538.01-3.453,0-6.253-1.077-6.253-2.4,0-.826,1.081-1.554,2.73-1.987-3.2.1-5.715,1.137-5.715,2.4,0,1.328,2.8,2.4,6.253,2.4A14.067,14.067,0,0,0,301.546,316.451Z" transform="translate(-291.77 -312.061)" opacity="0.4" fill="url(#linear-gradient-13)"/>
                    <path id="Path_30804" data-name="Path 30804" d="M304.3,315.36c-.1-1.294-2.859-2.33-6.247-2.33s-6.144,1.036-6.247,2.33c.1,1.294,2.859,2.33,6.247,2.33S304.2,316.654,304.3,315.36Zm-6.247,2.032c-2.807,0-5.089-.878-5.089-1.958s2.283-1.958,5.089-1.958,5.09.878,5.09,1.958S300.864,317.392,298.057,317.392Z" transform="translate(-291.804 -312.882)" fill="#d17918"/>
                    <path id="Path_30805" data-name="Path 30805" d="M316.669,326.241l-2.419.695v.483l2.475-.763a2.52,2.52,0,0,0,1.052.446c.036.009.074.015.112.022v.432h.9v-.331c.2.009.378.01.536.006v.326h.9v-1.294h-.9v.625a5.241,5.241,0,0,1-.536-.007v-.618h-.9v.44a1.125,1.125,0,0,1-.519-.369l-.7-.093Z" transform="translate(-310.983 -324.172)" fill="#d17918"/>
                    <path id="Path_30806" data-name="Path 30806" d="M303.113,314.414c0,1.078-2.283,1.958-5.09,1.958s-5.089-.878-5.089-1.958,2.283-1.958,5.089-1.958,5.09.878,5.09,1.958m1.163,0c0-1.328-2.8-2.4-6.253-2.4s-6.253,1.077-6.253,2.4,2.8,2.4,6.253,2.4,6.253-1.077,6.253-2.4Z" transform="translate(-291.77 -312.01)" fill="#ffc022"/>
                    <path id="Path_30807" data-name="Path 30807" d="M304.41,318.559c0-.936,1.981-1.7,4.417-1.7s4.417.762,4.417,1.7-1.981,1.7-4.417,1.7S304.41,319.5,304.41,318.559Zm8.639,0c0-.9-1.894-1.624-4.222-1.624s-4.222.728-4.222,1.624,1.894,1.624,4.222,1.624S313.049,319.454,313.049,318.559Z" transform="translate(-302.573 -316.155)" fill="#ffc022"/>
                    <path id="Path_30808" data-name="Path 30808" d="M316.669,324.03l-2.419.695v.483l2.475-.763a2.52,2.52,0,0,0,1.052.446l.112.022v.432h.9v-.331c.2.009.378.009.536.006v.326h.9V324.05h-.9v.625a5.233,5.233,0,0,1-.536-.007v-.618h-.9v.44a1.125,1.125,0,0,1-.519-.369Z" transform="translate(-310.983 -322.283)" fill="#ffc022"/>
                  </g>
                </g>
                <path id="Path_30809" data-name="Path 30809" d="M227.764,332.258c-.937-.231-2.1,1.007-2.98,2.988a.021.021,0,0,0,0,.009q.011.039.026.079l.012.033a1,1,0,0,0,.049.106l.01.017q.024.044.052.087l.026.038.006.009c-.012.016-.023.032-.033.048s-.025.041-.036.061-.02.035-.029.052-.02.044-.031.065-.016.033-.022.051-.016.047-.023.07-.01.032-.015.048a.746.746,0,0,0-.016.079.335.335,0,0,0-.007.041.826.826,0,0,0-.007.121V337.4a.986.986,0,0,0,.007.113.292.292,0,0,0,.006.035.752.752,0,0,0,.016.078.282.282,0,0,0,.01.038.823.823,0,0,0,.026.079l.012.033a1,1,0,0,0,.049.106c0,.006.007.012.01.019q.024.044.052.087l.026.038.006.009c-.012.016-.023.032-.033.048s-.026.042-.038.063-.02.033-.029.051-.02.044-.031.065-.016.033-.022.049-.016.047-.023.071-.01.031-.015.047a.705.705,0,0,0-.016.08.374.374,0,0,0-.007.039.828.828,0,0,0-.007.121V339.8a.989.989,0,0,0,.007.113.293.293,0,0,0,.006.035.757.757,0,0,0,.016.078.286.286,0,0,0,.01.038.824.824,0,0,0,.026.078l.012.033c.015.036.031.071.049.108l.01.017q.024.044.052.087l.026.038c.016.023.032.045.049.068s.02.026.032.039.039.045.06.068.02.023.032.035c.031.032.064.064.1.094.012.012.026.022.039.033s.048.042.074.062l.054.042.068.052.061.044.073.049c.022.015.042.029.065.042.042.026.086.054.132.078.028.016.057.032.086.046l.068.036.094.048.065.032.1.049a.536.536,0,0,1,.051.023q.2.089.419.17a.4.4,0,0,0,.045.016l.144.051.042.015c.206.068.426.131.656.189a14.738,14.738,0,0,0,1.033-2.905c.824-3.353.448-6.328-.843-6.645Z" transform="translate(-220.796 -322.024)" fill="#ccc" opacity="0.2"/>
                <g id="Group_51478" data-name="Group 51478" transform="translate(0 9.047)">
                  <path id="Path_30810" data-name="Path 30810" d="M204.827,336.755c1.234.49,3.266-1.717,4.539-4.927s1.3-6.209.068-6.7l-1.057-.419-4.607,11.625,1.057.419Z" transform="translate(-202.865 -324.643)" fill="#ff931e"/>
                  <g id="Group_51476" data-name="Group 51476" transform="translate(0.909 3.835)">
                    <path id="Path_30811" data-name="Path 30811" d="M221.85,366.752l2.738,1.086c.078-.179.156-.362.23-.549L222.07,366.2Z" transform="translate(-219.227 -363.938)" fill="#d17918"/>
                    <path id="Path_30812" data-name="Path 30812" d="M218.8,372.249l2.654,1.052c.154-.286.3-.587.445-.9l-2.73-1.081-.368.929Z" transform="translate(-216.62 -368.314)" fill="#d17918"/>
                    <path id="Path_30813" data-name="Path 30813" d="M208.514,379.074l-3.164-1.254-1.549,3.908,1.052.417C205.83,382.534,207.309,381.228,208.514,379.074Z" transform="translate(-203.8 -373.87)" fill="#d17918"/>
                    <path id="Path_30814" data-name="Path 30814" d="M229,350.83l2.6,1.03c.016-.067.032-.134.047-.2l-2.574-1.02-.076.189Z" transform="translate(-225.337 -350.64)" fill="#d17918"/>
                    <path id="Path_30815" data-name="Path 30815" d="M229.717,356.874l.057-.2-2.669-1.058-.076.189Z" transform="translate(-223.654 -354.896)" fill="#d17918"/>
                    <path id="Path_30816" data-name="Path 30816" d="M224.54,361.6l2.741,1.086c.035-.094.067-.187.1-.281l-2.731-1.083-.109.276Z" transform="translate(-221.525 -359.768)" fill="#d17918"/>
                  </g>
                  <g id="Group_51477" data-name="Group 51477">
                    <path id="Path_30817" data-name="Path 30817" d="M202.993,331.029c-1.272,3.211-3.3,5.416-4.539,4.927s-1.2-3.488.068-6.7,3.3-5.416,4.539-4.927,1.2,3.488-.068,6.7Z" transform="translate(-197.547 -324.262)" fill="#ff931e"/>
                    <path id="Path_30818" data-name="Path 30818" d="M203.9,347.22c-.06.167-.122.334-.189.5-1.272,3.211-3.3,5.416-4.539,4.927-.767-.3-1.045-1.578-.842-3.269-1.081,3.014-1.048,5.731.121,6.195,1.234.49,3.267-1.717,4.539-4.927A14.157,14.157,0,0,0,203.9,347.22Z" transform="translate(-197.543 -343.882)" opacity="0.4" fill="url(#linear-gradient-14)"/>
                    <path id="Path_30819" data-name="Path 30819" d="M203.942,324.686c-1.24-.381-3.219,1.8-4.468,4.949s-1.3,6.094-.135,6.667c1.24.381,3.219-1.8,4.468-4.949S205.107,325.259,203.942,324.686Zm-.413,6.557c-1.033,2.609-2.692,4.408-3.695,4.01s-.978-2.843.055-5.452,2.692-4.408,3.695-4.01S204.563,328.634,203.53,331.243Z" transform="translate(-198.362 -324.586)" fill="#d17918"/>
                    <path id="Path_30820" data-name="Path 30820" d="M214.614,348.115l-.244,2.5.449.177.2-2.581a2.523,2.523,0,0,0,.8-.812c.022-.032.041-.064.061-.1l.4.158.331-.834-.308-.122c.08-.179.148-.349.2-.5l.3.119.33-.834-1.2-.477-.331.834.58.23c-.051.141-.119.315-.2.5l-.574-.227-.33.834.41.163a1.122,1.122,0,0,1-.533.346l-.344.618Z" transform="translate(-211.924 -341.831)" fill="#d17918"/>
                    <path id="Path_30821" data-name="Path 30821" d="M202.632,325.4c1,.4.978,2.843-.055,5.452s-2.692,4.408-3.695,4.01-.978-2.843.055-5.452,2.692-4.408,3.695-4.01m.429-1.081c-1.234-.49-3.267,1.717-4.539,4.927s-1.3,6.209-.068,6.7,3.267-1.717,4.539-4.927,1.3-6.209.068-6.7h0Z" transform="translate(-197.547 -324.252)" fill="#ffc022"/>
                    <path id="Path_30822" data-name="Path 30822" d="M204.672,344.392c-.871-.344-.849-2.468.048-4.731s2.336-3.826,3.206-3.481.849,2.468-.048,4.732S205.543,344.738,204.672,344.392Zm3.183-8.032c-.833-.33-2.208,1.163-3.065,3.327s-.878,4.195-.045,4.525,2.208-1.163,3.065-3.327.878-4.195.046-4.525Z" transform="translate(-203.09 -334.406)" fill="#ffc022"/>
                    <path id="Path_30823" data-name="Path 30823" d="M212.554,347.3l-.244,2.5.449.177.2-2.583a2.509,2.509,0,0,0,.8-.812l.061-.1.4.158.331-.834-.308-.122c.08-.179.148-.349.2-.5l.3.119.33-.834-1.2-.477-.33.834.58.23c-.051.141-.119.315-.2.5l-.574-.227-.331.834.41.163a1.119,1.119,0,0,1-.535.346l-.344.618Z" transform="translate(-210.164 -341.13)" fill="#ffc022"/>
                  </g>
                </g>
                <path id="Path_30824" data-name="Path 30824" d="M330.461,361.864c2.246-.365,3.821-1.219,3.821-2.217v-1.137a1.02,1.02,0,0,1,0-1.267v-1.137a1.019,1.019,0,0,1,0-1.267V353.7a1.019,1.019,0,0,1,0-1.267v-.016c-1.282-.449-3.676,1.483-5.5,4.5a12.583,12.583,0,0,0-1.9,5.09q.172.013.349.022h0c.262.013.529.02.8.02.256,0,.509-.007.757-.017h0a14.558,14.558,0,0,0,1.552-.153l.118-.017Z" transform="translate(-308.081 -339.224)" fill="#ccc" opacity="0.2"/>
                <g id="Group_51481" data-name="Group 51481" transform="translate(24.089 12.781)">
                  <path id="Path_30825" data-name="Path 30825" d="M368.791,362.445c-1.234.49-3.266-1.717-4.539-4.927s-1.3-6.209-.068-6.7l1.057-.419,4.607,11.625-1.057.419Z" transform="translate(-363.277 -350.334)" fill="#ff931e"/>
                  <g id="Group_51479" data-name="Group 51479" transform="translate(0.255 3.834)">
                    <path id="Path_30826" data-name="Path 30826" d="M372.948,392.432l-2.738,1.086c-.079-.179-.156-.362-.23-.549l2.748-1.089Z" transform="translate(-369.261 -389.618)" fill="#d17918"/>
                    <path id="Path_30827" data-name="Path 30827" d="M375.247,397.929l-2.654,1.052c-.154-.286-.3-.587-.443-.9L374.88,397Z" transform="translate(-371.115 -393.994)" fill="#d17918"/>
                    <path id="Path_30828" data-name="Path 30828" d="M376.02,404.764l3.164-1.254,1.549,3.908-1.052.417C378.7,408.224,377.225,406.918,376.02,404.764Z" transform="translate(-374.423 -399.558)" fill="#d17918"/>
                    <path id="Path_30829" data-name="Path 30829" d="M367.678,376.51l-2.6,1.031c-.016-.067-.032-.134-.047-.2l2.574-1.02.076.189Z" transform="translate(-365.03 -376.32)" fill="#d17918"/>
                    <path id="Path_30830" data-name="Path 30830" d="M366.4,382.564l-.057-.2,2.669-1.058.076.189Z" transform="translate(-366.15 -380.585)" fill="#d17918"/>
                    <path id="Path_30831" data-name="Path 30831" d="M371.02,387.288l-2.741,1.086c-.035-.095-.067-.187-.1-.281l2.731-1.083.109.276Z" transform="translate(-367.722 -385.456)" fill="#d17918"/>
                  </g>
                  <g id="Group_51480" data-name="Group 51480" transform="translate(1.057)">
                    <path id="Path_30832" data-name="Path 30832" d="M371.522,356.709c1.272,3.211,3.3,5.416,4.539,4.927s1.2-3.488-.068-6.7-3.3-5.416-4.539-4.927-1.2,3.488.068,6.7Z" transform="translate(-370.548 -349.944)" fill="#ff931e"/>
                    <path id="Path_30833" data-name="Path 30833" d="M370.99,372.9c.06.167.122.334.189.5,1.272,3.209,3.3,5.416,4.539,4.927.767-.3,1.045-1.578.842-3.269,1.081,3.014,1.048,5.731-.121,6.195-1.234.49-3.266-1.717-4.539-4.927A14.158,14.158,0,0,1,370.99,372.9Z" transform="translate(-370.926 -369.563)" opacity="0.4" fill="url(#linear-gradient-15)"/>
                    <path id="Path_30834" data-name="Path 30834" d="M371.528,357.033c1.249,3.15,3.228,5.33,4.468,4.949,1.164-.573,1.113-3.517-.135-6.667s-3.228-5.33-4.468-4.949C370.228,350.939,370.28,353.884,371.528,357.033Zm.222-5.562c1-.4,2.66,1.4,3.695,4.01s1.06,5.055.055,5.452-2.661-1.4-3.695-4.01S370.747,351.868,371.75,351.471Z" transform="translate(-370.553 -350.268)" fill="#d17918"/>
                    <path id="Path_30835" data-name="Path 30835" d="M381.312,373.805l.244,2.5-.449.177-.2-2.581a2.523,2.523,0,0,1-.8-.812c-.022-.032-.041-.064-.061-.1l-.4.158-.331-.834.308-.122c-.08-.179-.148-.349-.2-.5l-.3.119-.331-.834,1.2-.477.331.834-.58.23c.051.141.119.315.2.5l.574-.227.331.834-.41.163a1.122,1.122,0,0,0,.533.346l.344.618Z" transform="translate(-377.583 -367.521)" fill="#d17918"/>
                    <path id="Path_30836" data-name="Path 30836" d="M371.882,351.1c1-.4,2.661,1.4,3.695,4.01s1.058,5.055.055,5.452-2.661-1.4-3.695-4.01-1.06-5.055-.055-5.452m-.429-1.081c-1.234.49-1.2,3.488.068,6.7s3.3,5.416,4.539,4.927,1.2-3.488-.068-6.7-3.3-5.416-4.539-4.927h0Z" transform="translate(-370.548 -349.953)" fill="#ffc022"/>
                    <path id="Path_30837" data-name="Path 30837" d="M377.72,366.6c-.9-2.265-.919-4.387-.048-4.732s2.31,1.217,3.206,3.481.919,4.387.048,4.731S378.617,368.865,377.72,366.6Zm.07-.028c.858,2.164,2.233,3.657,3.065,3.327s.813-2.359-.045-4.525-2.233-3.657-3.065-3.327-.812,2.359.047,4.525Z" transform="translate(-376.09 -360.096)" fill="#ffc022"/>
                    <path id="Path_30838" data-name="Path 30838" d="M383.39,372.977l.244,2.5-.449.177-.2-2.583a2.51,2.51,0,0,1-.8-.813l-.061-.1-.4.158-.331-.834.308-.122c-.08-.179-.148-.349-.2-.5l-.3.119-.33-.834,1.2-.477.33.834-.58.23c.051.141.119.315.2.5l.574-.227.331.834-.41.163a1.119,1.119,0,0,0,.535.346l.344.618Z" transform="translate(-379.361 -366.812)" fill="#ffc022"/>
                  </g>
                </g>
              </g>
              <path id="Path_30839" data-name="Path 30839" d="M235.066,339.025l-.254-.645-.254.645-.647.256.647.254.254.647.254-.647.647-.254Z" transform="translate(-228.624 -327.28)" fill="#fff"/>
              <path id="Path_30840" data-name="Path 30840" d="M361.3,334.317l-.256-.647-.254.647-.647.254.647.254.254.647.256-.647.645-.254Z" transform="translate(-336.507 -323.255)" fill="#fff"/>
              <path id="Path_30841" data-name="Path 30841" d="M402.676,284.737l-.254-.647-.256.647-.645.254.645.254.256.647.254-.647.647-.254Z" transform="translate(-371.873 -280.881)" fill="#fff"/>
              <path id="Path_30842" data-name="Path 30842" d="M296.677,366.577l-.256-.647-.254.647-.647.254.647.254.254.647.256-.647.645-.254Z" transform="translate(-281.279 -350.826)" fill="#fff"/>
            </g>
            <path id="Path_30843" data-name="Path 30843" d="M212.794,156.18s-3.459,2.526-4.544,4.455a49.959,49.959,0,0,1,7.093-4.455Z" transform="translate(-190.09 -143.288)" fill="#dab873"/>
            <path id="Path_30844" data-name="Path 30844" d="M246.66,156.18a9.8,9.8,0,0,1,3.969,4.455,9.594,9.594,0,0,0-1.557-4.455Z" transform="translate(-222.918 -143.288)" fill="#dab873"/>
            <path id="Path_30845" data-name="Path 30845" d="M283.08,199.87a49.011,49.011,0,0,1,3.61,9.182A12.984,12.984,0,0,0,283.08,199.87Z" transform="translate(-254.044 -180.628)" fill="#dab873"/>
            <path id="Path_30846" data-name="Path 30846" d="M304.41,203.7a49.012,49.012,0,0,1,3.61,9.182A12.984,12.984,0,0,0,304.41,203.7Z" transform="translate(-272.274 -183.901)" fill="#e8c47b"/>
            <path id="Path_30847" data-name="Path 30847" d="M279.14,211.244a20.93,20.93,0,0,1,7.5.281A9.716,9.716,0,0,0,279.14,211.244Z" transform="translate(-250.677 -189.807)" fill="#e8c47b"/>
            <path id="Path_30848" data-name="Path 30848" d="M285.04,225.794a20.929,20.929,0,0,1,7.5.281A9.716,9.716,0,0,0,285.04,225.794Z" transform="translate(-255.719 -202.242)" fill="#e8c47b"/>
            <g id="Group_51484" data-name="Group 51484" transform="translate(28.465 20.819)">
              <path id="Path_30849" data-name="Path 30849" d="M285.04,225.854a21.579,21.579,0,0,1,3.122-.217c-.057-.135-.115-.27-.176-.407a8.815,8.815,0,0,0-2.946.625Z" transform="translate(-284.184 -223.121)" fill="#dab873"/>
              <path id="Path_30850" data-name="Path 30850" d="M282.153,211.123c-.067-.134-.135-.267-.2-.4a8.8,8.8,0,0,0-2.8.618,21.633,21.633,0,0,1,3-.217Z" transform="translate(-279.15 -210.72)" fill="#dab873"/>
            </g>
            <path id="Path_30851" data-name="Path 30851" d="M212.2,78.822l5.009,9.368V78.2l-.289.118-.052.02c-.1.039-.2.077-.294.115l-.012,0-.305.112-.063.022-.24.081-.081.026c-.092.029-.185.057-.276.083l-.025.007c-.1.028-.2.052-.294.076l-.08.017-.219.045c-.028.006-.057.01-.084.015-.1.016-.192.031-.286.039a8.044,8.044,0,0,1-2.407-.16Z" transform="translate(-193.466 -76.642)" fill="#dab873"/>
            <path id="Path_30852" data-name="Path 30852" d="M201.186,79.673c-.1-.029-.221-.065-.346-.1L205,85.939l-3.039-6.064c-.262-.062-.519-.131-.77-.2Z" transform="translate(-183.757 -77.813)" fill="#dab873"/>
            <path id="Path_30853" data-name="Path 30853" d="M283.367,69.094c.775-.592.933-1.452-.449-1.593-2.421-.247-4.026,1.84-6.434,2.01L270.94,80.373h2.151L283.366,69.1Z" transform="translate(-243.669 -67.48)" fill="#dab873"/>
            <path id="Path_30854" data-name="Path 30854" d="M275.54,84.384l4.1-8.2a3.731,3.731,0,0,1-1.932-.878l-2.17,9.074Z" transform="translate(-247.6 -74.172)" fill="#dab873"/>
            <path id="Path_30855" data-name="Path 30855" d="M182.893,223.093a7.934,7.934,0,1,1,8.123-7.932A8.038,8.038,0,0,1,182.893,223.093Zm0-14.847A6.917,6.917,0,1,0,190,215.16,7.02,7.02,0,0,0,182.893,208.246Z" transform="translate(-161.477 -186.918)" fill="#534741"/>
            <path id="Path_30856" data-name="Path 30856" d="M210.8,233.108l3.052,4.084h2.121l-3.352-4.18a4.3,4.3,0,0,0,1.961-1.776c.035-.062.064-.125.1-.189h1.891v-1.516h-1.453a5.4,5.4,0,0,0,.025-.906h1.429V227.11h-5.679v1.516h2.741a3.621,3.621,0,0,1-.032.906h-2.709v1.516h1.935a3.629,3.629,0,0,1-1.621.876l-.406,1.185Z" transform="translate(-192.27 -203.908)" fill="#534741"/>
          </g>
          <g id="Group_51487" data-name="Group 51487" transform="translate(19.653 10.475)">
            <path id="Path_30857" data-name="Path 30857" d="M230.344,141.574a.591.591,0,0,1-.141-.016c-3.789-.837-10.8,0-10.868.01a.754.754,0,0,1-.8-.725.8.8,0,0,1,.644-.9c.3-.036,7.3-.875,11.3.01a.817.817,0,0,1,.573.959.755.755,0,0,1-.712.66Z" transform="translate(-218.53 -139.548)" fill="#ff931e"/>
            <g id="Group_51486" data-name="Group 51486" transform="translate(0.464 0.002)">
              <path id="Path_30858" data-name="Path 30858" d="M250.492,139.76l-.36.013a5.271,5.271,0,0,0-.672,1.673l.305-.016A4.941,4.941,0,0,1,250.492,139.76Z" transform="translate(-245.428 -139.731)" fill="#bf6e17"/>
              <path id="Path_30859" data-name="Path 30859" d="M236.567,140.49l-.36.026a5.374,5.374,0,0,0-.626,1.693l.3-.025a5.092,5.092,0,0,1,.683-1.693Z" transform="translate(-233.566 -140.355)" fill="#bf6e17"/>
              <path id="Path_30860" data-name="Path 30860" d="M243.543,140.06c-.122.006-.243.013-.36.02a5.307,5.307,0,0,0-.653,1.683l.3-.02A4.98,4.98,0,0,1,243.543,140.06Z" transform="translate(-239.505 -139.987)" fill="#bf6e17"/>
              <path id="Path_30861" data-name="Path 30861" d="M229.545,141.05l-.359.032a5.419,5.419,0,0,0-.6,1.7l.3-.031a5.122,5.122,0,0,1,.651-1.7Z" transform="translate(-227.591 -140.833)" fill="#bf6e17"/>
              <path id="Path_30862" data-name="Path 30862" d="M222.262,141.758a5.474,5.474,0,0,0-.542,1.615.64.64,0,0,0,.288.055,5.162,5.162,0,0,1,.612-1.708C222.483,141.735,222.362,141.746,222.262,141.758Z" transform="translate(-221.72 -141.406)" fill="#bf6e17"/>
              <path id="Path_30863" data-name="Path 30863" d="M291.327,141.229c-.1-.017-.206-.033-.311-.049a5.386,5.386,0,0,0-.576,1.57c.1.012.195.025.289.038a5.137,5.137,0,0,1,.6-1.558Z" transform="translate(-280.452 -140.945)" fill="#bf6e17"/>
              <path id="Path_30864" data-name="Path 30864" d="M297.642,142.314l-.017,0a5.452,5.452,0,0,0-.515,1.557c.086.016.17.033.251.052.012,0,.022,0,.033,0a5.281,5.281,0,0,1,.5-1.494.673.673,0,0,0-.251-.115Z" transform="translate(-286.152 -141.91)" fill="#bf6e17"/>
              <path id="Path_30865" data-name="Path 30865" d="M277.948,139.932l-.336-.022a5.313,5.313,0,0,0-.653,1.608c.1,0,.2.007.3.012a4.973,4.973,0,0,1,.69-1.6Z" transform="translate(-268.931 -139.859)" fill="#bf6e17"/>
              <path id="Path_30866" data-name="Path 30866" d="M284.675,140.453c-.108-.012-.215-.023-.324-.033a5.316,5.316,0,0,0-.621,1.589l.294.023a5.054,5.054,0,0,1,.65-1.577Z" transform="translate(-274.717 -140.295)" fill="#bf6e17"/>
              <path id="Path_30867" data-name="Path 30867" d="M271.157,139.66l-.344-.01a5.21,5.21,0,0,0-.673,1.626l.3,0A4.972,4.972,0,0,1,271.157,139.66Z" transform="translate(-263.102 -139.637)" fill="#bf6e17"/>
              <path id="Path_30868" data-name="Path 30868" d="M263.972,139.56a5.2,5.2,0,0,0-.682,1.644l.3,0a4.92,4.92,0,0,1,.731-1.638Z" transform="translate(-257.248 -139.56)" fill="#bf6e17"/>
              <path id="Path_30869" data-name="Path 30869" d="M257.428,139.59l-.356.006a5.234,5.234,0,0,0-.682,1.66l.3-.01A4.928,4.928,0,0,1,257.428,139.59Z" transform="translate(-251.351 -139.586)" fill="#bf6e17"/>
            </g>
            <path id="Path_30870" data-name="Path 30870" d="M230.342,145.929a.591.591,0,0,1-.141-.016c-3.789-.837-10.8,0-10.868.01a.72.72,0,0,1-.735-.464.891.891,0,0,0-.065.436.754.754,0,0,0,.8.725c.07-.009,7.077-.847,10.868-.01a.676.676,0,0,0,.141.016.755.755,0,0,0,.712-.66.91.91,0,0,0-.058-.506.726.726,0,0,1-.654.469Z" transform="translate(-218.528 -144.601)" fill="#b3b3b3" opacity="0.8"/>
          </g>
          <g id="Group_51489" data-name="Group 51489" transform="translate(19.653 12.117)">
            <path id="Path_30871" data-name="Path 30871" d="M230.344,152.874a.591.591,0,0,1-.141-.016c-3.789-.837-10.8,0-10.868.01a.754.754,0,0,1-.8-.725.8.8,0,0,1,.644-.9c.3-.036,7.3-.875,11.3.01a.817.817,0,0,1,.573.959.755.755,0,0,1-.712.66Z" transform="translate(-218.53 -150.848)" fill="#ff931e"/>
            <g id="Group_51488" data-name="Group 51488" transform="translate(0.464 0.002)">
              <path id="Path_30872" data-name="Path 30872" d="M250.492,151.06l-.36.013a5.271,5.271,0,0,0-.672,1.673l.305-.016A4.941,4.941,0,0,1,250.492,151.06Z" transform="translate(-245.428 -151.031)" fill="#bf6e17"/>
              <path id="Path_30873" data-name="Path 30873" d="M236.567,151.8l-.36.026a5.374,5.374,0,0,0-.626,1.693l.3-.025a5.092,5.092,0,0,1,.683-1.693Z" transform="translate(-233.566 -151.663)" fill="#bf6e17"/>
              <path id="Path_30874" data-name="Path 30874" d="M243.543,151.37c-.122.006-.243.013-.36.02a5.306,5.306,0,0,0-.653,1.683l.3-.02A4.98,4.98,0,0,1,243.543,151.37Z" transform="translate(-239.505 -151.296)" fill="#bf6e17"/>
              <path id="Path_30875" data-name="Path 30875" d="M229.545,152.35l-.359.032a5.419,5.419,0,0,0-.6,1.7l.3-.031a5.122,5.122,0,0,1,.651-1.7Z" transform="translate(-227.591 -152.133)" fill="#bf6e17"/>
              <path id="Path_30876" data-name="Path 30876" d="M222.262,153.068a5.474,5.474,0,0,0-.542,1.615.641.641,0,0,0,.288.055,5.162,5.162,0,0,1,.612-1.708C222.483,153.045,222.362,153.056,222.262,153.068Z" transform="translate(-221.72 -152.715)" fill="#bf6e17"/>
              <path id="Path_30877" data-name="Path 30877" d="M291.327,152.539c-.1-.017-.206-.033-.311-.049a5.386,5.386,0,0,0-.576,1.57c.1.012.195.025.289.038a5.137,5.137,0,0,1,.6-1.558Z" transform="translate(-280.452 -152.253)" fill="#bf6e17"/>
              <path id="Path_30878" data-name="Path 30878" d="M297.642,153.614l-.017,0a5.452,5.452,0,0,0-.515,1.557c.086.016.17.033.251.052.012,0,.022,0,.033,0a5.281,5.281,0,0,1,.5-1.494.673.673,0,0,0-.251-.115Z" transform="translate(-286.152 -153.21)" fill="#bf6e17"/>
              <path id="Path_30879" data-name="Path 30879" d="M277.948,151.242l-.336-.022a5.313,5.313,0,0,0-.653,1.608c.1,0,.2.007.3.012a4.973,4.973,0,0,1,.69-1.6Z" transform="translate(-268.931 -151.168)" fill="#bf6e17"/>
              <path id="Path_30880" data-name="Path 30880" d="M284.675,151.753c-.108-.012-.215-.023-.324-.033a5.317,5.317,0,0,0-.621,1.589l.294.023a5.054,5.054,0,0,1,.65-1.577Z" transform="translate(-274.717 -151.595)" fill="#bf6e17"/>
              <path id="Path_30881" data-name="Path 30881" d="M271.157,150.96l-.344-.01a5.21,5.21,0,0,0-.673,1.626l.3,0A4.971,4.971,0,0,1,271.157,150.96Z" transform="translate(-263.102 -150.937)" fill="#bf6e17"/>
              <path id="Path_30882" data-name="Path 30882" d="M263.972,150.86a5.2,5.2,0,0,0-.682,1.644l.3,0a4.92,4.92,0,0,1,.731-1.638Z" transform="translate(-257.248 -150.86)" fill="#bf6e17"/>
              <path id="Path_30883" data-name="Path 30883" d="M257.428,150.89l-.356.006a5.234,5.234,0,0,0-.682,1.66l.3-.01A4.928,4.928,0,0,1,257.428,150.89Z" transform="translate(-251.351 -150.886)" fill="#bf6e17"/>
            </g>
            <path id="Path_30884" data-name="Path 30884" d="M230.342,157.229a.591.591,0,0,1-.141-.016c-3.789-.837-10.8,0-10.868.01a.72.72,0,0,1-.735-.464.891.891,0,0,0-.065.436.754.754,0,0,0,.8.725c.07-.009,7.077-.847,10.868-.01a.675.675,0,0,0,.141.016.755.755,0,0,0,.712-.66.91.91,0,0,0-.058-.506.726.726,0,0,1-.654.469Z" transform="translate(-218.528 -155.901)" fill="#b3b3b3" opacity="0.8"/>
          </g>
        </g>
      </g>
    </g>
  </g>
</svg>
