<svg xmlns="http://www.w3.org/2000/svg" width="15.509" height="15.5" viewBox="0 0 15.509 15.5">
  <path id="home-svgrepo-com" d="M14.736,12.792l-1.877-1.6V8.64a.512.512,0,0,0-.5-.522H11.179a.512.512,0,0,0-.5.522v.7L8.172,7.205a1.064,1.064,0,0,0-1.343,0L.263,12.792c-.3.254-.28.475-.243.584s.157.292.54.292h.9v7.348a.931.931,0,0,0,.908.951H5.206a.91.91,0,0,0,.886-.951V18a.5.5,0,0,1,.477-.493H8.476A.466.466,0,0,1,8.908,18v3.013a.954.954,0,0,0,.931.951h2.793a.931.931,0,0,0,.908-.951V13.667h.9c.383,0,.5-.183.54-.292S15.035,13.045,14.736,12.792Z" transform="translate(0.255 -6.716)" fill="none" stroke="#000" stroke-width="0.5"/>
</svg>
