<svg xmlns="http://www.w3.org/2000/svg" width="21.015" height="21" viewBox="0 0 21.015 21">
  <path id="home-svgrepo-com_1_" data-name="home-svgrepo-com (1)" d="M19.649,14.733l-2.5-2.129V9.2a.682.682,0,0,0-.666-.7H14.905a.682.682,0,0,0-.666.7v.932L10.9,7.285a1.419,1.419,0,0,0-1.791,0L.351,14.733c-.4.338-.374.633-.324.779s.209.389.72.389h1.2v9.8a1.242,1.242,0,0,0,1.211,1.268H6.942A1.214,1.214,0,0,0,8.123,25.7V21.68a.673.673,0,0,1,.636-.658H11.3a.622.622,0,0,1,.575.658V25.7a1.272,1.272,0,0,0,1.242,1.268h3.725A1.242,1.242,0,0,0,18.055,25.7V15.9h1.2c.511,0,.67-.244.72-.389S20.046,15.072,19.649,14.733Z" transform="translate(0.508 -6.466)" fill="none" stroke="#707070" stroke-width="1"/>
</svg>
