<svg xmlns="http://www.w3.org/2000/svg" width="59.259" height="25" viewBox="0 0 59.259 25">
  <g id="Group_51067" data-name="Group 51067" transform="translate(-208.741 -169)">
    <path id="Path_29956" data-name="Path 29956" d="M-175.785,1236.435h-10.2a1.175,1.175,0,0,1-.261-.017.6.6,0,0,1-.444-.638.591.591,0,0,1,.553-.553c.06,0,.12,0,.18,0h10.213c-.057-.064-.091-.1-.128-.141q-1.475-1.522-2.949-3.043a.62.62,0,0,1-.064-.846.575.575,0,0,1,.818-.087,1.355,1.355,0,0,1,.111.107l3.995,4.122a.632.632,0,0,1,0,.991q-2.012,2.076-4.023,4.152a.591.591,0,0,1-.624.2.613.613,0,0,1-.3-.963,1.6,1.6,0,0,1,.114-.124q1.46-1.507,2.921-3.013a.756.756,0,0,1,.127-.087Z" transform="translate(-1022.233 1.162) rotate(-90)" fill="#068006"/>
    <text id="_5.6_" data-name="5.6 %" transform="translate(223 188)" fill="#068006" font-size="18" font-family="Poppins-Regular, Poppins"><tspan x="0" y="0">5.6 %</tspan></text>
  </g>
</svg>
