<svg xmlns="http://www.w3.org/2000/svg" width="59.259" height="25" viewBox="0 0 59.259 25">
  <g id="Group_51494" data-name="Group 51494" transform="translate(-208.741 -169)">
    <path id="Path_29956" data-name="Path 29956" d="M10.911,4.266H.708a1.175,1.175,0,0,0-.261.017A.6.6,0,0,0,0,4.922a.591.591,0,0,0,.553.553c.06,0,.12,0,.18,0H10.948c-.057.064-.091.1-.128.141Q9.346,7.14,7.871,8.662a.62.62,0,0,0-.064.846.575.575,0,0,0,.818.087,1.355,1.355,0,0,0,.111-.107L12.73,5.367a.632.632,0,0,0,0-.991Q10.718,2.3,8.707.224a.591.591,0,0,0-.624-.2.613.613,0,0,0-.3.963,1.6,1.6,0,0,0,.114.124q1.46,1.507,2.921,3.013a.756.756,0,0,0,.127.087Z" transform="translate(218.468 174.887) rotate(90)" fill="#dc1515"/>
    <text id="_5.6_" data-name="5.6 %" transform="translate(223 188)" fill="rgba(220,21,21,0.93)" font-size="18" font-family="Poppins-Regular, Poppins"><tspan x="0" y="0">5.6 %</tspan></text>
  </g>
</svg>
