<svg id="thumbs-up-hand-svgrepo-com" xmlns="http://www.w3.org/2000/svg" width="24" height="23" viewBox="0 0 24 23">
  <path id="Path_30909" data-name="Path 30909" d="M24,17.794a2.245,2.245,0,0,1-.477,1.385,2.342,2.342,0,0,1-.4.391,2.243,2.243,0,0,1,.374,1.237,2.275,2.275,0,0,1-2.279,2.272H18.056a4.36,4.36,0,0,0-.88.115,1.075,1.075,0,0,0-.507.248.532.532,0,0,0-.161.394,1.341,1.341,0,0,0,.126.51,6.531,6.531,0,0,0,.573.988c.112.169.224.336.325.5a3.07,3.07,0,0,1,.262.518,8.366,8.366,0,0,1,.675,2.989,5.261,5.261,0,0,1-.3,1.766,2.745,2.745,0,0,1-.833,1.243,1.947,1.947,0,0,1-1.231.448,2,2,0,0,1-1.4-.594,2.78,2.78,0,0,1-.759-1.547,5.844,5.844,0,0,0-.309-1.023,14.01,14.01,0,0,0-1.157-2.309,10.006,10.006,0,0,0-1.8-2.206C9.818,24.367,9,23.726,8.3,23.163a11.794,11.794,0,0,1-1.677-1.533A1.406,1.406,0,0,0,6.2,21.3a3.957,3.957,0,0,0-.918-.331c-.139-.034-.259-.057-.343-.072l-.05-.008v.243H1.709A1.706,1.706,0,0,1,0,19.433V11.822a1.706,1.706,0,0,1,1.709-1.7H3.749a1.137,1.137,0,0,1,1.14,1.136v.056H6.712a7.6,7.6,0,0,0,1.348-.205c.9-.192,2.031-.488,3.134-.746a17.568,17.568,0,0,1,3.012-.509c.893-.034,1.551-.047,2.072-.047a17.387,17.387,0,0,1,2.378.153l.019,0,1.066.153.01,0a2.268,2.268,0,0,1,1.91,2.236,2.125,2.125,0,0,1-.047.425,2.273,2.273,0,0,1,.769.532,2.245,2.245,0,0,1,.606,1.537,2.212,2.212,0,0,1-.214.952A2.253,2.253,0,0,1,24,17.794ZM2.4,11.933a.782.782,0,1,0,.785.782A.784.784,0,0,0,2.4,11.933ZM21.784,16.7a.581.581,0,0,1-.35-1.02,1.1,1.1,0,0,0,.39-.832,1.08,1.08,0,0,0-.294-.744,1.117,1.117,0,0,0-.723-.352.582.582,0,0,1-.46-.863,1.083,1.083,0,0,0,.148-.535,1.1,1.1,0,0,0-.93-1.087l-1.046-.15a16.319,16.319,0,0,0-2.24-.145c-.5,0-1.145.014-2.03.047a11.628,11.628,0,0,0-1.736.248c-1.015.207-2.174.505-3.213.755-.521.125-1.011.237-1.447.32a6.513,6.513,0,0,1-1.141.139H5.473v7.347c.135.031.286.069.45.12a4.64,4.64,0,0,1,.829.338,2.529,2.529,0,0,1,.781.618,11.005,11.005,0,0,0,1.5,1.36c.688.555,1.526,1.211,2.416,2a12.111,12.111,0,0,1,2.53,3.343,14.57,14.57,0,0,1,.749,1.628,6.866,6.866,0,0,1,.371,1.247,1.623,1.623,0,0,0,.426.909.829.829,0,0,0,.58.258.772.772,0,0,0,.494-.187,1.583,1.583,0,0,0,.467-.725,4.136,4.136,0,0,0,.234-1.382,7.315,7.315,0,0,0-.6-2.59,2.778,2.778,0,0,0-.253-.458c-.193-.3-.455-.669-.678-1.075a2.945,2.945,0,0,1-.426-1.386,1.716,1.716,0,0,1,.477-1.189,2.192,2.192,0,0,1,1.064-.579,5.481,5.481,0,0,1,1.14-.153h3.195a1.106,1.106,0,0,0,.627-2.02.581.581,0,0,1,.174-1.041,1.129,1.129,0,0,0,.586-.39,1.079,1.079,0,0,0,.229-.669A1.1,1.1,0,0,0,21.784,16.7Z" transform="translate(0 -9.803)" fill="#143c6d"/>
</svg>
