<svg xmlns="http://www.w3.org/2000/svg" width="90" height="90" viewBox="0 0 90 90">
  <g id="Group_51097" data-name="Group 51097" transform="translate(-150 -572)">
    <circle id="Ellipse_7403" data-name="Ellipse 7403" cx="45" cy="45" r="45" transform="translate(150 572)" fill="#1b8dc9"/>
    <g id="Group_3167" data-name="Group 3167" transform="translate(816.604 537.251)">
      <path id="Path_10744" data-name="Path 10744" d="M-427.884,56.851a1.015,1.015,0,0,1,.45.953c-.014,2.056-.006,4.112-.007,6.168a1.69,1.69,0,0,1-.028.414.641.641,0,0,1-.667.517.636.636,0,0,1-.665-.519,1.965,1.965,0,0,1-.029-.456c0-2.028.007-4.056-.008-6.084a1.046,1.046,0,0,1,.454-.993Z" transform="translate(-192.895 0)" fill="#fff" stroke="#fff" stroke-width="0.5"/>
      <path id="Path_10745" data-name="Path 10745" d="M-633.055,384.816c.814-.25,1.608-.559,2.431-.734a8.346,8.346,0,0,1,5.739.727,8.65,8.65,0,0,0,4.171,1.015c1.256-.007,2.512.072,3.768.089a4.489,4.489,0,0,1,3.982,2.2c.029.046.066.087.115.15l4.16-1.954c.517-.243,1.028-.5,1.554-.723a3.552,3.552,0,0,1,4.372,1.354.731.731,0,0,1-.241,1.168c-4.121,2.66-8.219,5.358-12.384,7.95a7.154,7.154,0,0,1-4.937.9,43.36,43.36,0,0,1-4.379-1.066c-1.764-.469-3.519-.97-5.275-1.467a2.58,2.58,0,0,0-2.022.223,6.515,6.515,0,0,1-.627.333c-.474.2-.821.433-.785,1.046a.588.588,0,0,1-.67.6c-1.857-.038-3.713-.079-5.569-.143-.515-.018-.736-.317-.721-.878q.088-3.316.185-6.632.071-2.565.141-5.131c.02-.75.238-.961.995-.943q2.512.061,5.025.125c.8.022,1.007.253.974,1.055C-633.064,384.327-633.055,384.577-633.055,384.816Zm28.729,2.475a2.086,2.086,0,0,0-2.444-.339c-1.741.816-3.474,1.649-5.221,2.451-.322.148-.421.293-.36.65.121.7-.093,1.175-1.028,1.14-2.484-.093-4.969-.14-7.454-.208a5.972,5.972,0,0,1-.668-.043.687.687,0,0,1-.6-.687.692.692,0,0,1,.662-.678,3.511,3.511,0,0,1,.377,0l6.742.179c.16,0,.321,0,.489,0a3,3,0,0,0-2.726-2.42c-.809-.043-1.619-.057-2.428-.081-1.019-.031-2.038-.05-3.057-.09a9.113,9.113,0,0,1-3.474-1.116,7.6,7.6,0,0,0-7.262.313.608.608,0,0,0-.353.588c-.051,2.17-.12,4.339-.18,6.508a1.711,1.711,0,0,0,.039.265c.225-.116.41-.206.591-.3a3.981,3.981,0,0,1,3.116-.34c1.394.4,2.789.79,4.188,1.168,1.654.447,3.293.986,4.975,1.281a6.612,6.612,0,0,0,4.882-1.015c2.145-1.406,4.309-2.782,6.465-4.172Zm-30.444,7.845c.1-3.537.2-7.113.3-10.752h-4.174c-.1,3.553-.2,7.118-.3,10.752Z" transform="translate(0 -296.105)" fill="#fff" stroke="#fff" stroke-width="0.5"/>
      <path id="Path_10746" data-name="Path 10746" d="M-526.588,183.593a10.168,10.168,0,0,1-10.143-10.187,10.181,10.181,0,0,1,10.2-10.132,10.168,10.168,0,0,1,10.142,10.19A10.168,10.168,0,0,1-526.588,183.593Zm.033-1.393a8.771,8.771,0,0,0,8.762-8.757,8.756,8.756,0,0,0-8.746-8.765,8.765,8.765,0,0,0-8.784,8.772A8.772,8.772,0,0,0-526.555,182.2Z" transform="translate(-94.471 -96.532)" fill="#fff" stroke="#fff" stroke-width="0.5"/>
      <path id="Path_10747" data-name="Path 10747" d="M-368.874,99.1c0-.5-.009-1,0-1.5a.692.692,0,0,1,.7-.763.7.7,0,0,1,.682.781q.013,1.481,0,2.962c0,.5-.282.811-.7.8s-.677-.31-.685-.823C-368.881,100.072-368.875,99.585-368.874,99.1Z" transform="translate(-247.573 -36.474)" fill="#fff" stroke="#fff" stroke-width="0.5"/>
      <path id="Path_10748" data-name="Path 10748" d="M-487.313,99.117c0,.5.009,1,0,1.5a.7.7,0,0,1-.7.764.7.7,0,0,1-.684-.78q-.013-1.5,0-3a.688.688,0,0,1,.7-.764.7.7,0,0,1,.685.78C-487.3,98.116-487.312,98.616-487.313,99.117Z" transform="translate(-138.303 -36.475)" fill="#fff" stroke="#fff" stroke-width="0.5"/>
      <g id="Group_3166" data-name="Group 3166" transform="translate(-623.766 72.654)">
        <path id="Path_10749" data-name="Path 10749" d="M-446.026,230.749h-2.347a2.132,2.132,0,0,1,.8,1.451h1.55v.711h-1.536c-.142,1.451-1.294,2.375-3.115,2.432,1.109,1.152,2.318,2.6,3.513,4.067h-1.365c-1.109-1.337-2.148-2.574-3.484-4v-.882h.782c1.536,0,2.361-.64,2.46-1.621h-3.242V232.2h3.2c-.2-.825-.953-1.237-2.19-1.237h-1.01v-.924h5.987Z" transform="translate(452.013 -230.038)" fill="#fff" stroke="#fff" stroke-width="0.5"/>
      </g>
    </g>
  </g>
</svg>
