<?xml version="1.0" standalone="no"?>
<!DOCTYPE svg PUBLIC "-//W3C//DTD SVG 20010904//EN"
 "http://www.w3.org/TR/2001/REC-SVG-20010904/DTD/svg10.dtd">
<svg version="1.0" xmlns="http://www.w3.org/2000/svg"
 width="132.000000pt" height="132.000000pt" viewBox="0 0 132.000000 132.000000"
 preserveAspectRatio="xMidYMid meet">

<g transform="translate(0.000000,132.000000) scale(0.100000,-0.100000)"
fill="#000000" stroke="none">
<path d="M1144 1238 l-45 -41 38 -39 38 -39 43 45 c23 25 42 50 42 56 0 14
-46 60 -60 60 -6 0 -31 -19 -56 -42z"/>
<path d="M575 1217 l-70 -52 78 -3 c42 -2 112 -2 154 0 l77 3 -71 53 c-39 28
-77 52 -84 51 -8 0 -45 -24 -84 -52z"/>
<path d="M854 947 c-147 -148 -185 -192 -203 -235 -12 -30 -21 -56 -19 -58 3
-2 30 6 61 19 49 19 82 47 237 202 l180 181 -38 37 -38 37 -180 -183z"/>
<path d="M153 906 l-112 -81 -1 -392 0 -393 620 0 620 0 0 393 -1 392 -112 81
-112 82 -3 -157 -2 -156 -157 -102 -157 -102 -38 30 -38 31 -38 -30 -38 -30
-157 101 -157 102 -2 156 -3 157 -112 -82z"/>
</g>
</svg>
