<svg xmlns="http://www.w3.org/2000/svg" xmlns:xlink="http://www.w3.org/1999/xlink" width="339" height="59" viewBox="0 0 339 59">
  <defs>
    <filter id="Rectangle_4011" x="0" y="0" width="339" height="59" filterUnits="userSpaceOnUse">
      <feOffset dy="3" input="SourceAlpha"/>
      <feGaussianBlur stdDeviation="1.5" result="blur"/>
      <feFlood flood-opacity="0.161"/>
      <feComposite operator="in" in2="blur"/>
      <feComposite in="SourceGraphic"/>
    </filter>
  </defs>
  <g id="Group_51012" data-name="Group 51012" transform="translate(-25.5 -719.5)">
    <g transform="matrix(1, 0, 0, 1, 25.5, 719.5)" filter="url(#Rectangle_4011)">
      <rect id="Rectangle_4011-2" data-name="Rectangle 4011" width="330" height="50" rx="25" transform="translate(4.5 1.5)" fill="#ffb600"/>
    </g>
    <text id="Next" transform="translate(195 752)" font-size="16" font-family="Poppins-Regular, Poppins"><tspan x="-17" y="0">Next</tspan></text>
    <g id="Group_13632" data-name="Group 13632" transform="translate(37 210)">
      <circle id="Ellipse_7397" data-name="Ellipse 7397" cx="25" cy="25" r="25" transform="translate(273 511)" fill="#fff"/>
      <path id="Path_24217" data-name="Path 24217" d="M18.33,6.946H1.189a2.015,2.015,0,0,0-.438.028A.984.984,0,0,0,.934,8.914c.1.006.2,0,.3,0H18.392c-.1.1-.154.169-.215.23Q15.7,11.626,13.223,14.1a.989.989,0,0,0,1.266,1.52,2.211,2.211,0,0,0,.186-.174l6.711-6.711a1.009,1.009,0,0,0,0-1.613q-3.379-3.38-6.758-6.76A1.012,1.012,0,0,0,13.58.041a.986.986,0,0,0-.5,1.567,2.633,2.633,0,0,0,.192.2q2.453,2.454,4.907,4.9a1.293,1.293,0,0,0,.213.142Z" transform="translate(288 529)" fill="#6b6b6b"/>
    </g>
  </g>
</svg>
