<?xml version="1.0" ?><!DOCTYPE svg  PUBLIC '-//W3C//DTD SVG 1.1//EN'  'http://www.w3.org/Graphics/SVG/1.1/DTD/svg11.dtd'><svg enable-background="new 0 0 50 50" id="Layer_1" version="1.1" viewBox="0 0 50 50" xml:space="preserve" xmlns="http://www.w3.org/2000/svg" xmlns:xlink="http://www.w3.org/1999/xlink"><g><path d="M17.8,9.6c-6,1.3-11.7,4.3-16.4,9c-0.5,0.5-0.5,1.4,0,2c0.6,0.6,1.4,0.5,2,0c4.3-4.3,9.5-7,15-8.2L17.8,9.6z"/><path d="M48.6,18.5c-4.7-4.7-10.4-7.7-16.5-9l-0.5,2.7c5.5,1.2,10.8,3.9,15,8.2c0.5,0.5,1.4,0.5,2,0C49.1,20,49.1,19.1,48.6,18.5z"/><path d="M18.8,14.7c-5.2,1.1-9.9,3.8-13.7,7.6c-0.5,0.5-0.5,1.4,0,2c0.5,0.5,1.4,0.5,2,0c3.4-3.4,7.7-5.8,12.3-6.8L18.8,14.7z"/><path d="M31.1,14.7l-0.5,2.7c4.6,1,8.9,3.3,12.3,6.8c0.5,0.5,1.4,0.5,2,0c0.5-0.5,0.5-1.4,0-2C41.1,18.4,36.3,15.8,31.1,14.7z"/><path d="M19.8,19.9c-4,0.9-7.9,3-11,6.1c-0.5,0.5-0.5,1.4,0,2c0.5,0.5,1.4,0.6,2,0c2.8-2.8,6.1-4.5,9.6-5.4L19.8,19.9z"/><path d="M30.2,19.8l-0.5,2.7c3.5,0.8,6.9,2.6,9.6,5.3c0.5,0.5,1.4,0.5,2,0c0.5-0.5,0.5-1.4,0-2C38.1,22.8,34.2,20.7,30.2,19.8z"/><path d="M21.3,27.7L20.8,25c-3.1,0.8-6,2.4-8.3,4.7c-0.5,0.5-0.5,1.4,0,2c0.5,0.6,1.4,0.5,2,0C16.3,29.7,18.7,28.3,21.3,27.7   L21.3,27.7z"/><path d="M29.2,24.9l-0.5,2.7c2.6,0.6,5,2,6.9,3.9c0.5,0.5,1.4,0.5,2,0c0.5-0.5,0.5-1.4,0-2C35.2,27.3,32.3,25.7,29.2,24.9z"/><path d="M21.8,30.1c-2.1,0.5-4,1.6-5.7,3.3c-0.5,0.5-0.5,1.4,0,2c0.5,0.5,1.4,0.5,2,0c1.2-1.2,2.7-2,4.2-2.5L21.8,30.1z"/><path d="M28.2,30.1l-0.5,2.7c1.6,0.4,3,1.2,4.2,2.5c0.5,0.5,1.4,0.5,2,0c0.5-0.5,0.5-1.4,0-2C32.2,31.7,30.3,30.6,28.2,30.1z"/><circle cx="25" cy="41.2" r="5.5"/><path d="M24.2,32h1.6c0.6-3,0.3-1.8,4.4-23c0.4-2.9-2-5.7-5.2-5.7c-3.2,0-5.6,2.7-5.2,5.7C20.1,10.9,24.5,33.9,24.2,32z"/></g></svg>