<svg xmlns="http://www.w3.org/2000/svg" width="20.425" height="25" viewBox="0 0 20.425 25">
  <g id="notification-bell-svgrepo-com" transform="translate(-43.956)">
    <g id="Group_13752" data-name="Group 13752" transform="translate(42.669)">
      <g id="Group_13751" data-name="Group 13751">
        <path id="Path_24694" data-name="Path 24694" d="M84.119,18.412c-.008-.017-.016-.033-.025-.049a1.514,1.514,0,0,0-.523-.609c-1.531-.973-2.458-3.622-2.755-7.872A7.205,7.205,0,0,0,75.9,3.368a2.336,2.336,0,0,0,.315-1.179,2,2,0,1,0-3.973,0,2.337,2.337,0,0,0,.315,1.179,7.206,7.206,0,0,0-4.916,6.515c-.3,4.25-1.223,6.9-2.754,7.872a2.281,2.281,0,0,0-.833,1.731,3.4,3.4,0,0,0,.309,2.147.542.542,0,0,0,.4.183h6.055a3.418,3.418,0,0,0,6.82,0h6.055a.542.542,0,0,0,.4-.183,3.4,3.4,0,0,0,.309-2.148A3.45,3.45,0,0,0,84.119,18.412ZM74.229,1.25a.9.9,0,0,1,.852.938.856.856,0,1,1-1.7,0A.9.9,0,0,1,74.229,1.25Zm0,22.5a2.382,2.382,0,0,1-2.252-1.933h4.5A2.382,2.382,0,0,1,74.229,23.75Zm9.056-3.183H65.174a4.066,4.066,0,0,1,0-.834,1.433,1.433,0,0,1,.284-.9c1.9-1.209,2.987-4.107,3.319-8.859a5.458,5.458,0,1,1,10.912,0,21.391,21.391,0,0,0,1.009,5.588H78.562a.628.628,0,0,0,0,1.25h2.677a6.118,6.118,0,0,0,.862,1.25H76.442a.628.628,0,0,0,0,1.25h6.78a3.175,3.175,0,0,1,.066.416A4.062,4.062,0,0,1,83.285,20.567Z" transform="translate(-62.73)"/>
        <path id="Path_24696" data-name="Path 24696" d="M243.16,308.339h-.386a.643.643,0,0,0,0,1.286h.386a.643.643,0,0,0,0-1.286Z" transform="translate(-231.467 -290.3)"/>
      </g>
    </g>
  </g>
</svg>
