<svg id="Layer_1" data-name="Layer 1" xmlns="http://www.w3.org/2000/svg" width="205.278" height="113.101" viewBox="0 0 205.278 113.101">
  <path id="Path_24671" data-name="Path 24671" d="M205.278,2000h0Z" transform="translate(0 -1886.899)" fill="#fff"/>
  <path id="Path_24580" data-name="Path 24580" d="M172.591,146.191c26.676-1.543,54.645,6.493,50.533,18.141s21.98-4.138,32.393.061c7.413,2.989,4.45,12.092,8.036,15.76,8.222,8.409,16.632-2.18,27.1,4.173s6.114,65.771,1.853,65.762l-161.38-.295-1.931.061s-11.835-17.068-1.121-27.035,3.355-14.524,2.055-18.376c-1.495-4.423-4.983-12.147,10.216-17.813s11.275-18,10.9-20.558-5.326-18.343,21.351-19.887Z" transform="translate(-116.044 -146.002)" fill="#eafcfc"/>
  <rect id="Rectangle_4237" data-name="Rectangle 4237" width="12.225" height="94.624" transform="translate(138.774 9.186)" fill="#9bc1f9" opacity="0.6"/>
  <rect id="Rectangle_4238" data-name="Rectangle 4238" width="12.225" height="65.762" transform="translate(121.702 38.049)" fill="#9bc1f9" opacity="0.6"/>
  <rect id="Rectangle_4239" data-name="Rectangle 4239" width="12.225" height="74.123" transform="translate(156.092 29.687)" fill="#9bc1f9" opacity="0.6"/>
  <rect id="Rectangle_4240" data-name="Rectangle 4240" width="12.225" height="77.038" transform="translate(104.628 26.772)" fill="#9bc1f9" opacity="0.6"/>
  <rect id="Rectangle_4241" data-name="Rectangle 4241" width="12.225" height="54.196" transform="translate(87.556 49.613)" fill="#9bc1f9" opacity="0.6"/>
  <rect id="Rectangle_4242" data-name="Rectangle 4242" width="12.225" height="72.816" transform="translate(138.774 30.994)" fill="#9bc1f9" opacity="0.3"/>
  <rect id="Rectangle_4243" data-name="Rectangle 4243" width="12.225" height="50.605" transform="translate(121.702 53.204)" fill="#9bc1f9" opacity="0.3"/>
  <rect id="Rectangle_4244" data-name="Rectangle 4244" width="12.225" height="57.04" transform="translate(156.092 46.77)" fill="#9bc1f9" opacity="0.3"/>
  <rect id="Rectangle_4245" data-name="Rectangle 4245" width="12.225" height="59.283" transform="translate(104.628 44.527)" fill="#9bc1f9" opacity="0.3"/>
  <rect id="Rectangle_4246" data-name="Rectangle 4246" width="12.225" height="41.706" transform="translate(87.556 62.104)" fill="#9bc1f9" opacity="0.3"/>
  <path id="Path_24581" data-name="Path 24581" d="M1522.245,308.45l-9.741,7.367,3.716.237-23.253,40.926-12.875-19.3-18.214,42.484-11.716-16.64-14.6,20.641.919,3.694,13.677-19.239,12.383,17.589,18.147-42.328,12.492,18.729,25.744-45.309,2.39,2.571Z" transform="translate(-1347.985 -298.54)" fill="#5183bf"/>
  <path id="Path_24582" data-name="Path 24582" d="M424.186,746a133.09,133.09,0,0,1-34.618-42.436L370.34,719.005a153.852,153.852,0,0,0,40.026,49.062Z" transform="translate(-347.748 -669.547)" fill="#3c8f7c"/>
  <path id="Path_24583" data-name="Path 24583" d="M439.892,769.73l-11.943,9.748a4.505,4.505,0,0,1-.808,5.362A152.725,152.725,0,0,0,460.7,825.978a3.062,3.062,0,0,1,4.575-.748l8.714-13.706a3.79,3.79,0,0,1-.458-4.938,134.073,134.073,0,0,1-29.47-36.126A2.609,2.609,0,0,1,439.892,769.73Z" transform="translate(-401.083 -731.68)" fill="#96d9c9"/>
  <path id="Path_24584" data-name="Path 24584" d="M691.681,1129.245c2.985-3.852,2.956-9.534.141-12.933s-7.646-3.55-10.981-.122a10.3,10.3,0,0,0-.476,13.318A7.008,7.008,0,0,0,691.681,1129.245Z" transform="translate(-636.784 -1054.658)" fill="#50bfa5"/>
  <path id="Path_24585" data-name="Path 24585" d="M743.021,1168.1l-1.125,1.249a3.845,3.845,0,0,1-.26,4.453c-.976,1.118-2.071,1.22-3.738.234-1.21-.684-1.792-.886-2.161-.488-.312.337-.415.95.244,1.786a4.563,4.563,0,0,0,1.037.97,1.118,1.118,0,0,1,.3,1.424h0a.8.8,0,0,1-1.194.346,6.376,6.376,0,0,1-1.092-1.013l-.976,1.074q-.51-.639-1.013-1.285l1.06-1.149a3.685,3.685,0,0,1,.3-4.345c1.1-1.153,2.368-.8,3.823.114,1.009.63,1.594.732,2.013.264.441-.491.3-1.24-.257-1.947a4.954,4.954,0,0,0-1.259-1.131,1.075,1.075,0,0,1-.257-1.423l.031-.054a.808.808,0,0,1,1.141-.351,6.718,6.718,0,0,1,1.389,1.232l1.054-1.151Q742.55,1167.507,743.021,1168.1Z" transform="translate(-688.322 -1104.442)" fill="#3c8f7c"/>
  <path id="Path_24586" data-name="Path 24586" d="M915.477,1397.813q-4.778-4.092-9.2-8.663l-1.515,1.97q4.482,4.631,9.334,8.785Q914.783,1398.858,915.477,1397.813Z" transform="translate(-849.566 -1313.313)" fill="#50bfa5"/>
  <path id="Path_24587" data-name="Path 24587" d="M284.861,1059.1a135.918,135.918,0,0,1-50.755-17.315L225,1063.135a157.062,157.062,0,0,0,58.681,20.02Q284.27,1071.13,284.861,1059.1Z" transform="translate(-211.274 -987.143)" fill="#3c8f7c"/>
  <path id="Path_24588" data-name="Path 24588" d="M277.944,1096.249q-2.793,6.691-5.584,13.382a3.945,3.945,0,0,1,1.921,4.636,155.958,155.958,0,0,0,49.2,16.785,3.073,3.073,0,0,1,3.6-2.754l.849-15a3.438,3.438,0,0,1-2.812-3.7,136.991,136.991,0,0,1-43.206-14.74A2.711,2.711,0,0,1,277.944,1096.249Z" transform="translate(-255.745 -1036.976)" fill="#96d9c9"/>
  <path id="Path_24589" data-name="Path 24589" d="M637.962,1303.06a9.538,9.538,0,0,0-6.2-10.331,7.369,7.369,0,0,0-9.578,5.094c-1.215,4.3,1.483,9.265,6.1,10.8S637.261,1307.52,637.962,1303.06Z" transform="translate(-583.953 -1222.396)" fill="#50bfa5"/>
  <path id="Path_24590" data-name="Path 24590" d="M703.146,1319.873l-.366,1.525a3.394,3.394,0,0,1,1.952,3.66c-.3,1.349-1.2,1.948-3.124,1.952-1.384.029-1.987.144-2.111.635-.106.416.1.95,1.087,1.3a4.771,4.771,0,0,0,1.373.281,1.037,1.037,0,0,1,.953.99h0a.792.792,0,0,1-.865.839,6.619,6.619,0,0,1-1.442-.288l-.318,1.309q-.754-.267-1.507-.54l.357-1.413c-1.552-.908-2.209-2.294-1.858-3.593.387-1.434,1.661-1.753,3.369-1.717,1.182.022,1.738-.175,1.873-.742.142-.6-.349-1.124-1.176-1.423a5.174,5.174,0,0,0-1.647-.305.985.985,0,0,1-.915-1.008v-.057a.8.8,0,0,1,.818-.818,7.056,7.056,0,0,1,1.8.322q.177-.706.353-1.413Q702.448,1319.627,703.146,1319.873Z" transform="translate(-654.654 -1247.79)" fill="#3c8f7c"/>
  <path id="Path_24591" data-name="Path 24591" d="M953.012,728.152a10.837,10.837,0,0,1-1.25-.5,6.257,6.257,0,0,0-1.425-.535,3.441,3.441,0,0,0-2.892.768c-.932,1.008-2.588.183-2.257,5.459.378,5.973,3.71,5.317,3.791,5.216s2.972-3.821,2.972-3.821,1.011,2.2,1.011,2.123S958.13,729.87,953.012,728.152Z" transform="translate(-887.488 -691.626)" fill="#0e2e35"/>
  <path id="Path_24592" data-name="Path 24592" d="M440.194,1390.24a110.639,110.639,0,0,1-44.924,7.354q1.579,10.126,3.159,20.253a127.908,127.908,0,0,0,51.942-8.5Z" transform="translate(-371.157 -1314.337)" fill="#3c8f7c"/>
  <path id="Path_24593" data-name="Path 24593" d="M422.49,1435.935l2.074,12.646a3.743,3.743,0,0,1,3.528,2.806,126.947,126.947,0,0,0,43.551-7.129,2.543,2.543,0,0,1,1.356-3.6l-6.264-11.957a3.15,3.15,0,0,1-3.748-1.717,111.469,111.469,0,0,1-38.243,6.26A2.166,2.166,0,0,1,422.49,1435.935Z" transform="translate(-396.716 -1348.835)" fill="#96d9c9"/>
  <path id="Path_24594" data-name="Path 24594" d="M744.972,1546.4a8.9,8.9,0,0,0-9.26-5.463c-3.613.629-5.728,4.038-4.641,7.863a8.563,8.563,0,0,0,9.4,5.863A5.828,5.828,0,0,0,744.972,1546.4Z" transform="translate(-686.204 -1455.744)" fill="#50bfa5"/>
  <path id="Path_24595" data-name="Path 24595" d="M792.186,1560.06l.433,1.329a3.2,3.2,0,0,1,3.1,2.033c.4,1.167.022,2-1.38,2.79-.994.589-1.381.924-1.246,1.356.114.366.512.693,1.388.563a3.786,3.786,0,0,0,1.129-.345.931.931,0,0,1,1.148.376h0a.669.669,0,0,1-.244,1,5.277,5.277,0,0,1-1.182.366q.183.573.37,1.147-.671.1-1.346.2l-.388-1.239a3.06,3.06,0,0,1-3-2.023c-.376-1.269.406-2.037,1.667-2.707.872-.466,1.186-.846,1.024-1.342-.171-.521-.77-.728-1.51-.622a4.123,4.123,0,0,0-1.337.438.891.891,0,0,1-1.131-.4l-.026-.045a.671.671,0,0,1,.22-.967,5.572,5.572,0,0,1,1.458-.488l-.392-1.239Q791.563,1560.155,792.186,1560.06Z" transform="translate(-741.375 -1473.797)" fill="#3c8f7c"/>
  <path id="Path_24596" data-name="Path 24596" d="M1000.446,1569.26q-4.928,1.746-10.056,3.039l.793,1.908q5.195-1.309,10.2-3.082Z" transform="translate(-929.972 -1482.436)" fill="#50bfa5"/>
  <path id="Path_24597" data-name="Path 24597" d="M758.05,1755.24v4.946c0,.8,8.92,1.448,19.924,1.448s19.923-.648,19.923-1.448v-4.946Z" transform="translate(-711.806 -1657.07)" fill="#e59f39"/>
  <path id="Path_24598" data-name="Path 24598" d="M772.468,1761.578v-6.338H758.05v4.946C758.05,1760.847,764.142,1761.4,772.468,1761.578Z" transform="translate(-711.806 -1657.07)" fill="#eab054"/>
  <path id="Path_24599" data-name="Path 24599" d="M1005.4,1761.591c1.548.028,3.167.042,4.835.042,2.484,0,4.862-.033,7.055-.093v-6.3H1005.4Z" transform="translate(-944.067 -1657.07)" fill="#eab054"/>
  <path id="Path_24600" data-name="Path 24600" d="M1213.39,1761.518c7.1-.221,12.07-.732,12.07-1.331v-4.946h-12.07Z" transform="translate(-1139.369 -1657.07)" fill="#eab054"/>
  <ellipse id="Ellipse_7410" data-name="Ellipse 7410" cx="19.923" cy="1.448" rx="19.923" ry="1.448" transform="translate(46.245 96.67)" fill="#e59f39"/>
  <path id="Path_24601" data-name="Path 24601" d="M848.466,1738.934c0,.555-7.346,1-16.406,1s-16.41-.449-16.41-1,7.345-1,16.41-1S848.466,1738.38,848.466,1738.934Z" transform="translate(-765.892 -1640.816)" fill="#f7cc7f"/>
  <path id="Path_24602" data-name="Path 24602" d="M702.18,1669.45v4.946c0,.8,8.92,1.448,19.923,1.448s19.923-.648,19.923-1.448v-4.946Z" transform="translate(-659.344 -1576.514)" fill="#e59f39"/>
  <path id="Path_24603" data-name="Path 24603" d="M716.6,1675.788v-6.338H702.18v4.946C702.18,1675.057,708.272,1675.614,716.6,1675.788Z" transform="translate(-659.344 -1576.514)" fill="#eab054"/>
  <path id="Path_24604" data-name="Path 24604" d="M949.53,1675.8c1.548.028,3.167.043,4.834.043,2.484,0,4.862-.033,7.055-.093v-6.3H949.53Z" transform="translate(-891.605 -1576.514)" fill="#eab054"/>
  <path id="Path_24605" data-name="Path 24605" d="M1157.51,1675.727c7.1-.222,12.069-.732,12.069-1.33v-4.946H1157.51Z" transform="translate(-1086.897 -1576.514)" fill="#eab054"/>
  <ellipse id="Ellipse_7411" data-name="Ellipse 7411" cx="19.923" cy="1.448" rx="19.923" ry="1.448" transform="translate(42.836 91.436)" fill="#e59f39"/>
  <path id="Path_24606" data-name="Path 24606" d="M792.643,1653.134c0,.555-7.346,1-16.406,1s-16.406-.449-16.406-1,7.345-1,16.406-1S792.643,1652.58,792.643,1653.134Z" transform="translate(-713.477 -1560.25)" fill="#f7cc7f"/>
  <path id="Path_24607" data-name="Path 24607" d="M739.41,1581.38v4.946c0,.8,8.92,1.448,19.923,1.448s19.923-.648,19.923-1.448v-4.946Z" transform="translate(-694.303 -1493.816)" fill="#e59f39"/>
  <path id="Path_24608" data-name="Path 24608" d="M753.828,1587.718v-6.338H739.41v4.946C739.41,1586.986,745.5,1587.544,753.828,1587.718Z" transform="translate(-694.303 -1493.816)" fill="#eab054"/>
  <path id="Path_24609" data-name="Path 24609" d="M986.76,1587.73c1.548.028,3.167.043,4.834.043,2.484,0,4.862-.033,7.055-.093v-6.3H986.76Z" transform="translate(-926.564 -1493.816)" fill="#eab054"/>
  <path id="Path_24610" data-name="Path 24610" d="M1194.74,1587.657c7.1-.221,12.07-.732,12.07-1.331v-4.946h-12.07Z" transform="translate(-1121.856 -1493.817)" fill="#eab054"/>
  <ellipse id="Ellipse_7412" data-name="Ellipse 7412" cx="19.923" cy="1.448" rx="19.923" ry="1.448" transform="translate(45.107 86.063)" fill="#e59f39"/>
  <path id="Path_24611" data-name="Path 24611" d="M829.873,1565.063c0,.555-7.346,1-16.406,1s-16.406-.45-16.406-1,7.345-1,16.406-1S829.873,1564.509,829.873,1565.063Z" transform="translate(-748.436 -1477.553)" fill="#f7cc7f"/>
  <path id="Path_24612" data-name="Path 24612" d="M702.18,1494.51v4.946c0,.8,8.92,1.448,19.923,1.448s19.923-.648,19.923-1.448v-4.946Z" transform="translate(-659.344 -1412.246)" fill="#e59f39"/>
  <path id="Path_24613" data-name="Path 24613" d="M716.6,1500.848v-6.338H702.18v4.946C702.18,1500.117,708.272,1500.674,716.6,1500.848Z" transform="translate(-659.344 -1412.246)" fill="#eab054"/>
  <path id="Path_24614" data-name="Path 24614" d="M949.53,1500.86c1.548.028,3.167.043,4.834.043,2.484,0,4.862-.033,7.055-.094v-6.3H949.53Z" transform="translate(-891.605 -1412.246)" fill="#eab054"/>
  <path id="Path_24615" data-name="Path 24615" d="M1157.51,1500.787c7.1-.221,12.069-.732,12.069-1.331v-4.946H1157.51Z" transform="translate(-1086.897 -1412.246)" fill="#eab054"/>
  <ellipse id="Ellipse_7413" data-name="Ellipse 7413" cx="19.923" cy="1.448" rx="19.923" ry="1.448" transform="translate(42.836 80.764)" fill="#e59f39"/>
  <path id="Path_24616" data-name="Path 24616" d="M792.643,1478.194c0,.554-7.346,1-16.406,1s-16.406-.45-16.406-1,7.345-1,16.406-1S792.643,1477.64,792.643,1478.194Z" transform="translate(-713.477 -1395.983)" fill="#f7cc7f"/>
  <path id="Path_24617" data-name="Path 24617" d="M2398.99,1748.32v4.758c0,.769-8.579,1.393-19.16,1.393s-19.16-.623-19.16-1.393v-4.758Z" transform="translate(-2216.66 -1650.572)" fill="#e59f39"/>
  <path id="Path_24618" data-name="Path 24618" d="M2761.53,1754.414v-6.095H2775.4v4.758C2775.4,1753.711,2769.537,1754.248,2761.53,1754.414Z" transform="translate(-2593.066 -1650.572)" fill="#eab054"/>
  <path id="Path_24619" data-name="Path 24619" d="M2575.013,1754.427c-1.488.027-3.045.042-4.648.042-2.389,0-4.676-.032-6.785-.09v-6.058h11.433Z" transform="translate(-2407.192 -1650.572)" fill="#eab054"/>
  <path id="Path_24620" data-name="Path 24620" d="M2372.277,1754.309c-6.826-.214-11.607-.706-11.607-1.281v-4.758h11.607Z" transform="translate(-2216.66 -1650.526)" fill="#eab054"/>
  <ellipse id="Ellipse_7414" data-name="Ellipse 7414" cx="19.159" cy="1.392" rx="19.159" ry="1.392" transform="translate(144.011 96.305)" fill="#e59f39"/>
  <path id="Path_24621" data-name="Path 24621" d="M2416.12,1732.635c0,.533,7.064.965,15.777.965s15.778-.432,15.778-.965-7.064-.965-15.778-.965S2416.12,1732.1,2416.12,1732.635Z" transform="translate(-2268.727 -1634.938)" fill="#f7cc7f"/>
  <path id="Path_24622" data-name="Path 24622" d="M2452.729,1665.81v4.758c0,.769-8.577,1.392-19.159,1.392s-19.159-.624-19.159-1.392v-4.758Z" transform="translate(-2267.121 -1573.096)" fill="#e59f39"/>
  <path id="Path_24623" data-name="Path 24623" d="M2815.26,1671.9v-6.095h13.865v4.758C2829.125,1671.2,2823.267,1671.739,2815.26,1671.9Z" transform="translate(-2643.518 -1573.096)" fill="#eab054"/>
  <path id="Path_24624" data-name="Path 24624" d="M2628.694,1671.918c-1.489.027-3.046.041-4.649.041-2.389,0-4.676-.032-6.785-.089v-6.059h11.434Z" transform="translate(-2457.597 -1573.096)" fill="#eab054"/>
  <path id="Path_24625" data-name="Path 24625" d="M2426.017,1671.8c-6.826-.213-11.607-.706-11.607-1.281v-4.758h11.607Z" transform="translate(-2267.121 -1573.049)" fill="#eab054"/>
  <ellipse id="Ellipse_7415" data-name="Ellipse 7415" cx="19.159" cy="1.392" rx="19.159" ry="1.392" transform="translate(147.288 91.271)" fill="#e59f39"/>
  <ellipse id="Ellipse_7416" data-name="Ellipse 7416" cx="15.777" cy="0.965" rx="15.777" ry="0.965" transform="translate(150.67 91.699)" fill="#f7cc7f"/>
  <path id="Path_24626" data-name="Path 24626" d="M2416.929,1581.11v4.758c0,.769-8.578,1.392-19.16,1.392s-19.159-.623-19.159-1.392v-4.758Z" transform="translate(-2233.505 -1493.563)" fill="#e59f39"/>
  <path id="Path_24627" data-name="Path 24627" d="M2779.46,1587.185v-6.095h13.865v4.758C2793.325,1586.483,2787.467,1587.02,2779.46,1587.185Z" transform="translate(-2609.902 -1493.544)" fill="#eab054"/>
  <path id="Path_24628" data-name="Path 24628" d="M2592.893,1587.218c-1.488.027-3.045.041-4.648.041-2.389,0-4.676-.032-6.785-.09v-6.059h11.433Z" transform="translate(-2423.98 -1493.563)" fill="#eab054"/>
  <path id="Path_24629" data-name="Path 24629" d="M2390.217,1587.1c-6.826-.213-11.607-.706-11.607-1.281v-4.758h11.607Z" transform="translate(-2233.505 -1493.516)" fill="#eab054"/>
  <ellipse id="Ellipse_7417" data-name="Ellipse 7417" cx="19.159" cy="1.392" rx="19.159" ry="1.392" transform="translate(145.104 86.105)" fill="#e59f39"/>
  <ellipse id="Ellipse_7418" data-name="Ellipse 7418" cx="15.777" cy="0.965" rx="15.777" ry="0.965" transform="translate(148.487 86.532)" fill="#f7cc7f"/>
  <path id="Path_24630" data-name="Path 24630" d="M2452.729,1497.58v4.758c0,.769-8.577,1.393-19.159,1.393s-19.159-.624-19.159-1.393v-4.758Z" transform="translate(-2267.121 -1415.129)" fill="#e59f39"/>
  <path id="Path_24631" data-name="Path 24631" d="M2815.26,1503.674v-6.094h13.865v4.758C2829.125,1502.974,2823.267,1503.508,2815.26,1503.674Z" transform="translate(-2643.518 -1415.129)" fill="#eab054"/>
  <path id="Path_24632" data-name="Path 24632" d="M2628.694,1503.687c-1.489.027-3.046.042-4.649.042-2.389,0-4.676-.032-6.785-.09v-6.058h11.434Z" transform="translate(-2457.597 -1415.129)" fill="#eab054"/>
  <path id="Path_24633" data-name="Path 24633" d="M2426.017,1503.57c-6.826-.214-11.607-.707-11.607-1.281v-4.758h11.607Z" transform="translate(-2267.121 -1415.082)" fill="#eab054"/>
  <ellipse id="Ellipse_7419" data-name="Ellipse 7419" cx="19.159" cy="1.392" rx="19.159" ry="1.392" transform="translate(147.288 81.009)" fill="#e59f39"/>
  <ellipse id="Ellipse_7420" data-name="Ellipse 7420" cx="15.777" cy="0.965" rx="15.777" ry="0.965" transform="translate(150.67 81.436)" fill="#f7cc7f"/>
  <path id="Path_24634" data-name="Path 24634" d="M2672.636,1260.112l-1.15,4.018c-.186.65-7.583-.9-16.523-3.46s-16.035-5.163-15.849-5.812l1.151-4.018Z" transform="translate(-2478.115 -1183.44)" fill="#e59f39"/>
  <path id="Path_24635" data-name="Path 24635" d="M2972.5,1352.979l1.475-5.149,11.712,3.355-1.15,4.018C2984.384,1355.74,2979.3,1354.775,2972.5,1352.979Z" transform="translate(-2791.166 -1274.514)" fill="#eab054"/>
  <path id="Path_24636" data-name="Path 24636" d="M2815.017,1307.846c-1.264-.337-2.583-.7-3.937-1.09-2.018-.578-3.942-1.159-5.71-1.718l1.464-5.118,9.66,2.767Z" transform="translate(-2634.232 -1229.526)" fill="#eab054"/>
  <path id="Path_24637" data-name="Path 24637" d="M2648.61,1258.748c-5.716-1.83-9.635-3.405-9.5-3.89l1.151-4.018,9.805,2.806Z" transform="translate(-2478.115 -1183.44)" fill="#eab054"/>
  <path id="Path_24638" data-name="Path 24638" d="M2658.187,1247.86c-.183.649,6.909,3.251,15.849,5.812s16.336,4.11,16.522,3.46-6.91-3.252-15.849-5.812S2658.373,1247.211,2658.187,1247.86Z" transform="translate(-2496.023 -1180.504)" fill="#e59f39"/>
  <path id="Path_24639" data-name="Path 24639" d="M2705.038,1262.211c-.128.45,5.735,2.525,13.1,4.636s13.433,3.453,13.562,3-5.734-2.525-13.095-4.636S2705.168,1261.761,2705.038,1262.211Z" transform="translate(-2540.018 -1194.036)" fill="#f7cc7f"/>
  <path id="Path_24640" data-name="Path 24640" d="M2521.534,949.5l1.226,4c.2.646-6.848,3.38-15.739,6.106s-16.257,4.413-16.455,3.767l-1.226-4Z" transform="translate(-2337.481 -900.483)" fill="#e59f39"/>
  <path id="Path_24641" data-name="Path 24641" d="M2827.7,958.193l-1.57-5.121,11.648-3.572,1.226,4C2839.167,954.03,2834.384,955.99,2827.7,958.193Z" transform="translate(-2653.725 -900.483)" fill="#eab054"/>
  <path id="Path_24642" data-name="Path 24642" d="M2670.928,1015.921c-1.243.406-2.548.819-3.9,1.232-2.007.616-3.936,1.178-5.722,1.673l-1.561-5.09,9.605-2.946Z" transform="translate(-2497.494 -958.035)" fill="#eab054"/>
  <path id="Path_24643" data-name="Path 24643" d="M2500.656,1067.419c-5.79,1.58-9.934,2.4-10.081,1.916l-1.225-4,9.751-2.989Z" transform="translate(-2337.49 -1006.449)" fill="#eab054"/>
  <path id="Path_24644" data-name="Path 24644" d="M2489.077,956.561c.2.646,7.564-1.041,16.455-3.767s15.936-5.46,15.739-6.106-7.565,1.04-16.456,3.766S2488.879,955.915,2489.077,956.561Z" transform="translate(-2337.229 -897.714)" fill="#e59f39"/>
  <path id="Path_24645" data-name="Path 24645" d="M2535.683,969.976c.137.448,6.183-1.009,13.5-3.255s13.144-4.428,13.007-4.876-6.183,1.009-13.5,3.254S2535.545,969.526,2535.683,969.976Z" transform="translate(-2380.994 -912)" fill="#f7cc7f"/>
  <path id="Path_24646" data-name="Path 24646" d="M1295.07,1755.437s.473,2.513.474,2.518c.026.327.016,1.155.087,1.441.266,1.075,4.786-1.537,3.6-1.747a4.921,4.921,0,0,1-1.063-1.139,9.984,9.984,0,0,1-.595-1.661Z" transform="translate(-1216.066 -1656.704)" fill="#f7a491"/>
  <path id="Path_24647" data-name="Path 24647" d="M1293.936,1792.592a17.617,17.617,0,0,1-1.76.348c-.594.059-1.356-.863-1.781-.689-.469.192-.724,3.119-.724,3.119s7.455.34,9.217-.147C1299.585,1795.03,1296.256,1793.481,1293.936,1792.592Z" transform="translate(-1210.995 -1691.803)" fill="#f47458"/>
  <path id="Path_24648" data-name="Path 24648" d="M1465.47,1753.558s.474,2.513.474,2.518c.027.328.016,1.155.087,1.441.266,1.075,4.7-1.365,3.517-1.575a6.628,6.628,0,0,1-.98-1.311,9.981,9.981,0,0,1-.595-1.66Z" transform="translate(-1376.071 -1654.939)" fill="#f7a491"/>
  <path id="Path_24649" data-name="Path 24649" d="M1462.466,1792.592a17.656,17.656,0,0,1-1.76.348c-.594.059-1.356-.863-1.781-.689-.469.192-.724,3.119-.724,3.119s7.455.34,9.217-.147C1468.116,1795.03,1464.786,1793.481,1462.466,1792.592Z" transform="translate(-1369.244 -1691.803)" fill="#f47458"/>
  <path id="Path_24650" data-name="Path 24650" d="M1038.027,1291.977l13.563-3.146s6.082-1.608,7.551.28,7.7,27.94,7.7,27.94a26.418,26.418,0,0,1-3.426.14l-7.528-13.36a11.643,11.643,0,0,1-1.388-4.11l-.536-3.829-5.523,1.608s-6.362,1.4-8.949-.209S1038.027,1291.977,1038.027,1291.977Z" transform="translate(-974.476 -1218.514)" fill="#0e2e35"/>
  <path id="Path_24651" data-name="Path 24651" d="M1095.551,966.93c.214.009.8.2,1.66,1.821,1.1,2.064,2.7,8.3,2.7,8.3l-4.783,1.775-.615-1.3L1093.5,967.5S1095.492,966.927,1095.551,966.93Z" transform="translate(-1026.792 -916.85)" fill="#eab054"/>
  <path id="Path_24652" data-name="Path 24652" d="M892.96,952.19a29.19,29.19,0,0,1,6.322.9s1.153,9.883-1.037,17.392c-.488,1.681.406,6.969.406,6.969l-14.171-.183s1.679-12.786,1.044-14.851-.647-9.262-.647-9.262.1-.015,3.184-.549A32.228,32.228,0,0,1,892.96,952.19Z" transform="translate(-830.523 -903.009)" fill="#f7cc7f"/>
  <path id="Path_24653" data-name="Path 24653" d="M854.444,985.769c1.325-.5,1.973,11.4,2.152,16.3a58.187,58.187,0,0,0,7.455-.075c.479-.035,1.586-.439,2.06-.5a4.94,4.94,0,0,1,1.17-.056,22.209,22.209,0,0,1,2.745,1.231c.259.271.961.955.842,1.25s-1.349-.824-1.349-.824l-.6-.336c.748.732,2.177,1.689,1.971,2.039s-1.489-.633-2.407-1.3c.788.709,1.769,1.978,1.54,2.175-.2.177-1.315-1.291-2.5-1.714-.44-.157-.88.277-1.227.33a2.467,2.467,0,0,1-.9.05l-1.194-.115a6.222,6.222,0,0,0-.986.143c-.514.109-1.358.224-2.013.383-3.771.919-5.029,1.342-6.184,1.342C851.515,1006.1,851.312,986.941,854.444,985.769Z" transform="translate(-800.244 -934.526)" fill="#f7a491"/>
  <path id="Path_24654" data-name="Path 24654" d="M845.763,979.862c-.248-5.016-.212-11.2,2.61-12.254,1.113-.417,3.076,2.086,2.723,12.356A21.268,21.268,0,0,1,845.763,979.862Z" transform="translate(-794.078 -917.447)" fill="#eab054"/>
  <path id="Path_24655" data-name="Path 24655" d="M973.165,1118.86l-13.351.872a.874.874,0,0,0-.77.593l-3.456,10.295-7.361.481a.374.374,0,0,0-.348.4h0a.373.373,0,0,0,.4.348l20.949-1.368a1.464,1.464,0,0,0,1.277-.951l3.538-9.491a.872.872,0,0,0-.875-1.175Z" transform="translate(-890.053 -1059.51)" fill="#f47458"/>
  <path id="Path_24656" data-name="Path 24656" d="M1230.893,1209.655a.737.737,0,1,1-.681-.877A.788.788,0,0,1,1230.893,1209.655Z" transform="translate(-1154.434 -1143.943)" fill="#fff"/>
  <path id="Path_24657" data-name="Path 24657" d="M882.7,1314.776l14.78-2.552s6.39-.976,7.859.915,5.734,26.357,5.734,26.357a26.324,26.324,0,0,1-3.425.14c-.163-.108-4.056-8.266-5.805-11.941a13.985,13.985,0,0,1-1.159-3.678l-.562-3.33-1.86.64a22.691,22.691,0,0,1-10.181,1.089,9.635,9.635,0,0,1-3.608-1C881.879,1319.8,882.7,1314.776,882.7,1314.776Z" transform="translate(-828.733 -1240.843)" fill="#184655"/>
  <path id="Path_24658" data-name="Path 24658" d="M979.971,870.9l.288,2.135s.644,3.075-.183,3.667-3.526-3.755-3.526-3.755l.285-5.408Z" transform="translate(-916.977 -823.523)" fill="#f7a491"/>
  <path id="Path_24659" data-name="Path 24659" d="M979.68,869.245a6.124,6.124,0,0,0,3.477,3.416l-.244-1.81-3.138-3.361Z" transform="translate(-919.916 -823.476)" fill="#f47458"/>
  <path id="Path_24660" data-name="Path 24660" d="M974.057,770.5a2.853,2.853,0,0,1,3.289,2.878,21.554,21.554,0,0,1-.244,2.737c-.382,2.464-2.069,4.633-3.184,4.44a5.34,5.34,0,0,1-3.427-5.825A4.725,4.725,0,0,1,974.057,770.5Z" transform="translate(-911.233 -732.372)" fill="#f7a491"/>
  <path id="Path_24661" data-name="Path 24661" d="M959.095,829.865a.832.832,0,1,1-.635-1.12A.92.92,0,0,1,959.095,829.865Z" transform="translate(-899.059 -787.085)" fill="#f7a491"/>
  <path id="Path_24662" data-name="Path 24662" d="M967.159,761.443s1.348.334,1.849-.531,2.289-2.729,4.564-1.956-2-1.881-2.184-1.881-2.366-.015-2.366-.015-1.683,1.38-1.743,1.532-.549,1.8-.549,1.8Z" transform="translate(-907.756 -719.783)" fill="#0e2e35"/>
  <rect id="Rectangle_4247" data-name="Rectangle 4247" width="33.565" height="12.216" transform="translate(159.041 103.679) rotate(180)" fill="#50bfa5"/>
  <rect id="Rectangle_4248" data-name="Rectangle 4248" width="33.565" height="1.571" transform="translate(159.041 94.815) rotate(180)" fill="#96d9c9"/>
  <rect id="Rectangle_4249" data-name="Rectangle 4249" width="33.565" height="1.571" transform="translate(159.041 97.885) rotate(180)" fill="#96d9c9"/>
  <rect id="Rectangle_4250" data-name="Rectangle 4250" width="33.565" height="1.571" transform="translate(159.041 100.954) rotate(180)" fill="#96d9c9"/>
  <rect id="Rectangle_4251" data-name="Rectangle 4251" width="33.565" height="1.571" transform="translate(159.041 103.68) rotate(180)" fill="#96d9c9"/>
  <rect id="Rectangle_4252" data-name="Rectangle 4252" width="6.981" height="12.216" transform="translate(144.952 103.679) rotate(180)" fill="#f7cc7f"/>
  <rect id="Rectangle_4253" data-name="Rectangle 4253" width="5.069" height="12.216" transform="translate(163.703 103.679) rotate(180)" fill="#3c8f7c"/>
  <rect id="Rectangle_4254" data-name="Rectangle 4254" width="185.476" height="1.058" transform="translate(10.867 103.506)" fill="#0e2e35"/>
  <path id="Path_24663" data-name="Path 24663" d="M1053.839,215.937a3.334,3.334,0,0,0-4.087-2.476,4.909,4.909,0,0,0-5.9-2.607,6.047,6.047,0,0,0-10.859,1.057,4.148,4.148,0,0,0-6.162,3.625q0,.2.02.4Z" transform="translate(-964.189 -204.154)" fill="#fff" opacity="0.8"/>
  <path id="Path_24664" data-name="Path 24664" d="M1354.3,515.766a2.523,2.523,0,0,0-3.093-1.874,3.715,3.715,0,0,0-4.467-1.969,4.575,4.575,0,0,0-8.219.8,3.139,3.139,0,0,0-4.666,2.745c0,.1.006.2.015.3Z" transform="translate(-1252.489 -487.521)" fill="#fff" opacity="0.8"/>
  <path id="Path_24665" data-name="Path 24665" d="M736.45,489.765a2.2,2.2,0,0,1,2.7-1.634,3.238,3.238,0,0,1,3.894-1.72,3.99,3.99,0,0,1,7.167.7,2.737,2.737,0,0,1,4.068,2.392c0,.09,0,.178-.013.266Z" transform="translate(-691.524 -463.832)" fill="#fff" opacity="0.8"/>
  <path id="Path_24666" data-name="Path 24666" d="M1354.68,746.43l.238,2.895,1.682-1.891,5.437-4.453-4.636,1.461s-2.283,1.109-2.388,1.255A5.987,5.987,0,0,0,1354.68,746.43Z" transform="translate(-1272.039 -706.562)" fill="#50bfa5"/>
  <path id="Path_24667" data-name="Path 24667" d="M1314.29,745.149l9.82-2.209-7.356,3.452Z" transform="translate(-1234.113 -706.524)" fill="#96d9c9"/>
  <path id="Path_24668" data-name="Path 24668" d="M1370,748.536l-3.027-1.51,6.607-4.085Z" transform="translate(-1283.579 -706.524)" fill="#96d9c9"/>
  <path id="Path_24669" data-name="Path 24669" d="M1334.763,819.438a3.619,3.619,0,0,1,.793-.208l-.022-.21a3.789,3.789,0,0,0-.844.22Z" transform="translate(-1253.269 -777.963)" fill="#3c8f7c"/>
  <path id="Path_24670" data-name="Path 24670" d="M1256.44,853.12a8.645,8.645,0,0,0,1.064-1.164l.169.127a8.752,8.752,0,0,1-1.091,1.193Zm1.882-2.511c.1-.218.2-.445.284-.675a7.775,7.775,0,0,0,.252-.808l.2.052a8.656,8.656,0,0,1-.258.829c-.087.236-.183.469-.291.692Zm.854-4.628.211,0a13.623,13.623,0,0,1-.052,1.611l-.21-.02a13.489,13.489,0,0,0,.052-1.586Zm-.3-3.172.209-.03c.089.619.152,1.125.2,1.592l-.211.021c-.046-.464-.109-.967-.2-1.583Zm-.237-1.593a7.73,7.73,0,0,1-.08-1.606l.211.013a7.589,7.589,0,0,0,.078,1.562v.012l-.21.029Zm.266-3.2a3.844,3.844,0,0,1,.918-1.349l.146.154a3.629,3.629,0,0,0-.868,1.276Z" transform="translate(-1179.792 -794.536)" fill="#3c8f7c"/>
</svg>
