<svg xmlns="http://www.w3.org/2000/svg" width="23.8" height="23.8" viewBox="0 0 23.8 23.8">
  <g id="price-tag-svgrepo-com" transform="translate(0.391 0.4)">
    <path id="Path_24216" data-name="Path 24216" d="M23.008,4.412A12.75,12.75,0,0,1,21.42,10.55a.683.683,0,0,1-1.167-.709,11.56,11.56,0,0,0,1.39-5.43,2.806,2.806,0,0,0-2.732-3.047A2.734,2.734,0,0,0,16.179,4.1a21.575,21.575,0,0,0,.43,2.846.683.683,0,0,1-1.337.279,22.425,22.425,0,0,1-.46-3.125,4.1,4.1,0,0,1,4.1-4.1A4.17,4.17,0,0,1,23.008,4.412ZM19.027,5.486c.272,2.268.665,6.688.213,7.138L9.315,22.542a1.564,1.564,0,0,1-2.212,0L.467,15.911a1.562,1.562,0,0,1,0-2.21l9.926-9.918a14.8,14.8,0,0,1,3.8-.064c-.011.127-.038.247-.038.377a13.5,13.5,0,0,0,.224,1.936,1.878,1.878,0,1,0,2.627-.489A11.433,11.433,0,0,1,16.83,4.1c0-.061.012-.117.018-.176.238.025.472.051.694.078C18.853,4.159,18.866,4.156,19.027,5.486Zm-5.29,7.423a4.275,4.275,0,0,0-.967-1.532l.753-.754-.839-.837-.813.813a2.222,2.222,0,0,0-2.971.077c-.83.829-.634,1.882-.025,3.105.418.847.5,1.335.17,1.659s-.873.189-1.361-.3a4.268,4.268,0,0,1-1.044-1.8l-1.259.746a4.9,4.9,0,0,0,1.1,1.813l-.821.821.838.838.882-.881a2.3,2.3,0,0,0,3.1-.051c.779-.78.848-1.652.18-3.038-.463-.993-.574-1.481-.3-1.754.24-.24.668-.309,1.224.247a3.761,3.761,0,0,1,.933,1.532Z" fill="none" stroke="#707070" stroke-width="0.8"/>
  </g>
</svg>
