<svg xmlns="http://www.w3.org/2000/svg" xmlns:xlink="http://www.w3.org/1999/xlink" width="376" height="178" viewBox="0 0 376 178">
  <defs>
    <filter id="desktop_carousel_1_2a5bc5be23" x="0" y="0" width="376" height="178" filterUnits="userSpaceOnUse">
      <feOffset dy="3" input="SourceAlpha"/>
      <feGaussianBlur stdDeviation="3" result="blur"/>
      <feFlood flood-opacity="0.039"/>
      <feComposite operator="in" in2="blur"/>
      <feComposite in="SourceGraphic"/>
    </filter>
  </defs>
  <g id="Group_51095" data-name="Group 51095" transform="translate(-7 -97)">
    <g transform="matrix(1, 0, 0, 1, 7, 97)" filter="url(#desktop_carousel_1_2a5bc5be23)">
      <rect id="desktop_carousel_1_2a5bc5be23-2" data-name="desktop_carousel_1_2a5bc5be23" width="358" height="160" rx="15" transform="translate(9 6)" fill="#e5f6ff"/>
    </g>
    <g id="_4988918" data-name="4988918" transform="translate(-1.546 42.73)">
      <g id="OBJECTS" transform="translate(83.75 68.269)">
        <g id="Group_13797" data-name="Group 13797" transform="translate(0 3.63)">
          <g id="Group_13792" data-name="Group 13792" transform="translate(24.925 68.71)">
            <rect id="Rectangle_4287" data-name="Rectangle 4287" width="6.121" height="29.511" transform="translate(0 26.076)" fill="#397afa"/>
            <rect id="Rectangle_4288" data-name="Rectangle 4288" width="6.121" height="41.597" transform="translate(47.263 13.994)" fill="#397afa"/>
            <rect id="Rectangle_4289" data-name="Rectangle 4289" width="6.121" height="38.989" transform="translate(24.14 16.598)" fill="#397afa"/>
            <path id="Path_24830" data-name="Path 24830" d="M177.21,284.24v44h6.676v-44Zm.556,43.641v-43.2h5.569v43.2Z" transform="translate(-165.816 -272.652)" fill="#fff"/>
            <path id="Path_24831" data-name="Path 24831" d="M239.63,254.42v55.587h6.676V254.42Zm.556,55.136v-54.58h5.569v54.58Z" transform="translate(-203.979 -254.42)" fill="#fff"/>
          </g>
          <g id="Group_13793" data-name="Group 13793" transform="translate(112.84)">
            <rect id="Rectangle_4290" data-name="Rectangle 4290" width="9.128" height="64.906" transform="translate(0 17.989)" fill="#397afa"/>
            <rect id="Rectangle_4291" data-name="Rectangle 4291" width="9.128" height="62.03" transform="translate(70.482 20.864)" fill="#397afa"/>
            <rect id="Rectangle_4292" data-name="Rectangle 4292" width="9.128" height="58.144" transform="translate(36.001 24.751)" fill="#397afa"/>
            <path id="Path_24832" data-name="Path 24832" d="M417.85,77.61V160.5H427.8V77.61Zm.828,82.222v-81.4h8.3v81.394h-8.3Z" transform="translate(-400.856 -77.61)" fill="#fff"/>
            <path id="Path_24833" data-name="Path 24833" d="M510.93,77.61V160.5h9.952V77.61Zm.828,82.222v-81.4h8.3v81.394h-8.3Z" transform="translate(-457.764 -77.61)" fill="#fff"/>
            <path id="Path_24834" data-name="Path 24834" d="M592.1,211.36v30.191h9.952V211.36Zm.828,29.348V212.184h8.3v28.524Z" transform="translate(-507.391 -159.383)" fill="#fff"/>
          </g>
          <g id="Group_13796" data-name="Group 13796" transform="translate(0 2.46)">
            <g id="Group_13794" data-name="Group 13794" transform="translate(193.761)">
              <path id="Path_24835" data-name="Path 24835" d="M617.45,164.6a.925.925,0,1,1-.925-.925A.925.925,0,0,1,617.45,164.6Z" transform="translate(-602.679 -132.692)" fill="#397afa"/>
              <path id="Path_24836" data-name="Path 24836" d="M642.97,84.865a.925.925,0,1,1-.925-.925A.925.925,0,0,1,642.97,84.865Z" transform="translate(-618.281 -83.94)" fill="#397afa"/>
              <path id="Path_24837" data-name="Path 24837" d="M583.912,99.934a1.562,1.562,0,1,1,1.562-1.562A1.562,1.562,0,0,1,583.912,99.934Zm0-2.736a1.174,1.174,0,1,0,1.174,1.174A1.175,1.175,0,0,0,583.912,97.2Z" transform="translate(-582.35 -91.809)" fill="#fff"/>
              <path id="Path_24838" data-name="Path 24838" d="M657.782,136.9a1.562,1.562,0,1,1,1.562-1.562A1.562,1.562,0,0,1,657.782,136.9Zm0-2.736a1.174,1.174,0,1,0,1.174,1.174A1.175,1.175,0,0,0,657.782,134.169Z" transform="translate(-627.513 -114.412)" fill="#fff"/>
            </g>
            <g id="Group_13795" data-name="Group 13795" transform="translate(0 58.968)">
              <path id="Path_24839" data-name="Path 24839" d="M118.85,370.315a.925.925,0,1,1-.925-.925A.925.925,0,0,1,118.85,370.315Z" transform="translate(-104.079 -317.429)" fill="#397afa"/>
              <circle id="Ellipse_7422" data-name="Ellipse 7422" cx="0.925" cy="0.925" r="0.925" transform="translate(22.835 20.977)" fill="#397afa"/>
              <path id="Path_24840" data-name="Path 24840" d="M85.312,305.654a1.562,1.562,0,1,1,1.562-1.562A1.562,1.562,0,0,1,85.312,305.654Zm0-2.736a1.174,1.174,0,1,0,1.174,1.174A1.175,1.175,0,0,0,85.312,302.919Z" transform="translate(-83.75 -276.551)" fill="#fff"/>
              <path id="Path_24841" data-name="Path 24841" d="M86.986,237.048a1.368,1.368,0,1,1-1.368-1.368A1.367,1.367,0,0,1,86.986,237.048Z" transform="translate(-84.056 -235.68)" fill="#fff"/>
            </g>
          </g>
        </g>
        <g id="Group_13819" data-name="Group 13819" transform="translate(117.764 0)">
          <g id="Group_13804" data-name="Group 13804">
            <g id="Group_13803" data-name="Group 13803" transform="translate(33.666 36.034)">
              <g id="Group_13798" data-name="Group 13798" transform="translate(1.835 1.59)">
                <path id="Path_24842" data-name="Path 24842" d="M521.421,214.1h0c1.9-1.667,2.063-4.733-.742-7.939l-32.464-37.073c-2.806-3.206-6.626-4.453-8.53-2.786h0c-1.9,1.667-1.17,5.615,1.636,8.821l32.464,37.073C516.59,215.4,519.516,215.763,521.421,214.1Z" transform="translate(-478.438 -165.375)" fill="#576184"/>
                <path id="Path_24843" data-name="Path 24843" d="M518.577,214.982a4.7,4.7,0,0,1-.972-.1,8.283,8.283,0,0,1-4.263-2.841l-32.464-37.073c-2.872-3.28-3.6-7.364-1.621-9.1s5.93-.474,8.8,2.806l32.464,37.077a7.943,7.943,0,0,1,2.184,4.663,4.3,4.3,0,0,1-1.461,3.548,3.978,3.978,0,0,1-2.678,1.026Zm-37.027-49.52a2.99,2.99,0,0,0-2.032.7c-1.819,1.593-1.076,5.429,1.655,8.549l32.464,37.073a7.883,7.883,0,0,0,4.049,2.716,3.676,3.676,0,0,0,3.311-.832h0a3.931,3.931,0,0,0,1.329-3.237,7.553,7.553,0,0,0-2.091-4.43l-32.464-37.073c-1.924-2.2-4.329-3.463-6.222-3.463Z" transform="translate(-478.143 -165.087)" fill="#353148"/>
              </g>
              <g id="Group_13802" data-name="Group 13802" transform="translate(0 0)">
                <g id="Group_13799" data-name="Group 13799">
                  <path id="Path_24844" data-name="Path 24844" d="M2.091,0h8.546a2.087,2.087,0,0,1,2.087,2.087v3.6a2.091,2.091,0,0,1-2.091,2.091H2.087A2.087,2.087,0,0,1,0,5.689v-3.6A2.087,2.087,0,0,1,2.087,0Z" transform="translate(14.695 5.85) rotate(138.79)" fill="#9dd3ff"/>
                  <path id="Path_24845" data-name="Path 24845" d="M479.775,175.58c-.051,0-.1,0-.155,0a2.255,2.255,0,0,1-1.566-.773l-2.371-2.709a2.286,2.286,0,0,1,.214-3.222l6.428-5.631a2.284,2.284,0,0,1,1.655-.56,2.255,2.255,0,0,1,1.566.773l2.371,2.709a2.285,2.285,0,0,1-.214,3.222l-6.431,5.631a2.26,2.26,0,0,1-1.5.567Zm4.053-12.513a1.88,1.88,0,0,0-1.247.47l-6.428,5.631a1.9,1.9,0,0,0-.179,2.674l2.371,2.709a1.89,1.89,0,0,0,2.67.175l6.431-5.631a1.89,1.89,0,0,0,.175-2.67l-2.371-2.709a1.875,1.875,0,0,0-1.3-.641c-.043,0-.086,0-.128,0Zm-2.681,11.8Z" transform="translate(-474.459 -162.024)" fill="#121936"/>
                </g>
                <g id="Group_13800" data-name="Group 13800" transform="translate(8.042 2.527)">
                  <line id="Line_543" data-name="Line 543" x2="4.178" y2="4.823" transform="translate(0.195 0.195)" fill="#708cf5"/>
                  <path id="Path_24846" data-name="Path 24846" d="M498.49,172.71a.2.2,0,0,1-.148-.066l-4.178-4.823a.2.2,0,1,1,.3-.256l4.178,4.823a.192.192,0,0,1-.148.319Z" transform="translate(-494.118 -167.498)" fill="#121936"/>
                </g>
                <g id="Group_13801" data-name="Group 13801" transform="translate(8.435 6.735)">
                  <line id="Line_544" data-name="Line 544" x2="2.091" y2="2.409" transform="translate(0.191 0.195)" fill="#708cf5"/>
                  <path id="Path_24847" data-name="Path 24847" d="M497.41,181.127a.2.2,0,0,1-.148-.066l-2.087-2.409a.2.2,0,0,1,.019-.276.192.192,0,0,1,.272.019l2.087,2.409a.192.192,0,0,1-.148.319Z" transform="translate(-495.128 -178.328)" fill="#121936"/>
                </g>
              </g>
            </g>
            <path id="Path_24848" data-name="Path 24848" d="M392.763,108.281a24.122,24.122,0,1,0,2.258-34.038A24.123,24.123,0,0,0,392.763,108.281Zm5.658-30.374a19.137,19.137,0,1,1-1.792,27,19.137,19.137,0,0,1,1.792-27Z" transform="translate(-386.789 -68.269)" fill="#121936"/>
            <path id="Path_24849" data-name="Path 24849" d="M403.072,111.625a19.889,19.889,0,1,0,1.861-28.065A19.891,19.891,0,0,0,403.072,111.625Z" transform="translate(-393.733 -74.606)" fill="#fff" opacity="0.47"/>
            <path id="Path_24850" data-name="Path 24850" d="M431.067,94.947a5.194,5.194,0,1,0,.486-7.329,5.2,5.2,0,0,0-.486,7.329Z" transform="translate(-413.075 -79.313)" fill="#fff" opacity="0.69"/>
          </g>
          <g id="Group_13807" data-name="Group 13807" transform="translate(30.739 70.712)">
            <path id="Path_24851" data-name="Path 24851" d="M515.541,252.686c-.058-.225-22.427-2.456-22.427-2.456l-7.4,26a29.465,29.465,0,0,0-1.08,6.447l-2.172,31.683a.9.9,0,0,0,.905.956l10.077-.124a1.061,1.061,0,0,0,1.041-.944l2.712-24.486,3.412-8.371,1.076,32.962a1.017,1.017,0,0,0,1.03.983h10.64a.672.672,0,0,0,.668-.618l1.819-36.327c.276-5.542,1-11.068.937-16.625a38.235,38.235,0,0,0-1.247-9.078Z" transform="translate(-476.023 -250.23)" fill="#121936"/>
            <path id="Path_24852" data-name="Path 24852" d="M527.607,314.967a.153.153,0,0,1-.07-.016.193.193,0,0,1-.109-.253l5.009-12.684a.19.19,0,0,1,.253-.109.193.193,0,0,1,.109.253l-5.009,12.684a.2.2,0,0,1-.179.124Z" transform="translate(-503.505 -281.815)" fill="#fff"/>
            <g id="Group_13805" data-name="Group 13805" transform="translate(19.866 61.988)">
              <path id="Path_24853" data-name="Path 24853" d="M524.649,417.55l-.49.424-6.929,6.261a.672.672,0,0,0,.459,1.17l15.517-.214a.74.74,0,0,0,.731-.766l-.027-6.871h-9.261Z" transform="translate(-517.008 -414.516)" fill="#397afa"/>
              <path id="Path_24854" data-name="Path 24854" d="M517.23,434.035l.241-.218a.647.647,0,0,0,.455.175l15.517-.214a.714.714,0,0,0,.49-.2v.645a.739.739,0,0,1-.727.766l-15.517.214A.672.672,0,0,1,517.23,434.035Z" transform="translate(-517.008 -424.316)" fill="#121936"/>
              <path id="Path_24855" data-name="Path 24855" d="M523.064,434.147a.2.2,0,0,1-.194-.194.192.192,0,0,1,.194-.194l14.441-.128h0a.2.2,0,0,1,.194.194.192.192,0,0,1-.194.194l-14.441.128Z" transform="translate(-520.592 -424.347)" fill="#fff"/>
              <path id="Path_24856" data-name="Path 24856" d="M536.4,419.938a.2.2,0,0,1-.144-.062l-1.3-1.418a.2.2,0,0,1,.012-.276.2.2,0,0,1,.276.012l1.3,1.418a.194.194,0,0,1-.144.326Z" transform="translate(-527.952 -414.872)" fill="#fff"/>
              <path id="Path_24857" data-name="Path 24857" d="M533.661,422.526a.2.2,0,0,1-.144-.062l-1.3-1.418a.2.2,0,1,1,.288-.264l1.3,1.418a.194.194,0,0,1-.144.326Z" transform="translate(-526.277 -416.453)" fill="#fff"/>
              <path id="Path_24858" data-name="Path 24858" d="M531.081,425.076a.194.194,0,0,1-.144-.062l-1.3-1.418a.2.2,0,0,1,.288-.264l1.3,1.418a.194.194,0,0,1-.144.326Z" transform="translate(-524.699 -418.012)" fill="#fff"/>
              <path id="Path_24859" data-name="Path 24859" d="M537.913,413.06l-.12-.043c-.521-.264-.354-2.429-.326-2.573a.857.857,0,1,1,1.687.311h0A6.954,6.954,0,0,1,538,413.013l-.086.043Zm.4-2.93a.461.461,0,0,0-.264.082.445.445,0,0,0-.194.3,7.067,7.067,0,0,0,.07,2.036,9.715,9.715,0,0,0,.855-1.865h0a.458.458,0,0,0-.074-.354.445.445,0,0,0-.3-.194.636.636,0,0,0-.085-.008Z" transform="translate(-529.487 -409.742)" fill="#fff"/>
              <path id="Path_24860" data-name="Path 24860" d="M534.073,414.853a8.173,8.173,0,0,1-2.13-.56.858.858,0,1,1,.867-1.481h0c.221.128,1.488,1.127,1.62,1.655a.366.366,0,0,1-.031.276c-.047.078-.167.1-.326.1Zm-1.694-1.768a.447.447,0,0,0-.12.016.464.464,0,0,0-.288.218.473.473,0,0,0,.167.645,8.69,8.69,0,0,0,1.9.517,6.483,6.483,0,0,0-1.426-1.325.475.475,0,0,0-.237-.066Z" transform="translate(-525.881 -411.546)" fill="#fff"/>
            </g>
            <g id="Group_13806" data-name="Group 13806" transform="translate(0 61.987)">
              <path id="Path_24861" data-name="Path 24861" d="M473.529,417.55l-.49.424-6.929,6.261a.672.672,0,0,0,.459,1.17l15.517-.214a.74.74,0,0,0,.731-.766l-.027-6.871h-9.261Z" transform="translate(-465.888 -414.515)" fill="#397afa"/>
              <path id="Path_24862" data-name="Path 24862" d="M466.11,434.035l.241-.218a.648.648,0,0,0,.455.175l15.517-.214a.714.714,0,0,0,.49-.2v.645a.739.739,0,0,1-.727.766l-15.517.214a.672.672,0,0,1-.459-1.17Z" transform="translate(-465.888 -424.316)" fill="#121936"/>
              <path id="Path_24863" data-name="Path 24863" d="M471.944,434.147a.2.2,0,0,1-.194-.194.192.192,0,0,1,.194-.194l14.441-.128h0a.2.2,0,0,1,.194.194.192.192,0,0,1-.194.194l-14.441.128Z" transform="translate(-469.472 -424.346)" fill="#fff"/>
              <path id="Path_24864" data-name="Path 24864" d="M498.645,424.234a1.485,1.485,0,0,1-.828-.256,1.458,1.458,0,0,1-.618-.944h0a1.479,1.479,0,0,1,1.174-1.725,1.473,1.473,0,1,1,.548,2.9,1.365,1.365,0,0,1-.28.027Zm-1.065-1.271a1.085,1.085,0,1,0,.867-1.271,1.093,1.093,0,0,0-.867,1.271Z" transform="translate(-485.016 -416.797)" fill="#fff"/>
              <path id="Path_24865" data-name="Path 24865" d="M485.281,419.938a.2.2,0,0,1-.144-.062l-1.3-1.418a.2.2,0,0,1,.012-.276.2.2,0,0,1,.276.012l1.3,1.418a.194.194,0,0,1-.144.326Z" transform="translate(-476.832 -414.871)" fill="#fff"/>
              <path id="Path_24866" data-name="Path 24866" d="M482.531,422.526a.2.2,0,0,1-.144-.062l-1.3-1.418a.2.2,0,1,1,.288-.264l1.3,1.418a.194.194,0,0,1-.144.326Z" transform="translate(-475.151 -416.452)" fill="#fff"/>
              <path id="Path_24867" data-name="Path 24867" d="M479.951,425.076a.2.2,0,0,1-.144-.062l-1.3-1.418a.2.2,0,0,1,.288-.264l1.3,1.418a.194.194,0,0,1-.144.326Z" transform="translate(-473.573 -418.011)" fill="#fff"/>
              <path id="Path_24868" data-name="Path 24868" d="M486.793,413.059l-.12-.043c-.521-.264-.354-2.429-.326-2.573a.859.859,0,1,1,1.69.311h0a7.02,7.02,0,0,1-1.15,2.258l-.085.043Zm.4-2.93a.473.473,0,0,0-.462.385,7.072,7.072,0,0,0,.07,2.036,9.961,9.961,0,0,0,.855-1.865h0a.458.458,0,0,0-.074-.354.445.445,0,0,0-.3-.194A.632.632,0,0,0,487.189,410.129Z" transform="translate(-478.367 -409.741)" fill="#fff"/>
              <path id="Path_24869" data-name="Path 24869" d="M482.953,414.853a8.171,8.171,0,0,1-2.13-.56.866.866,0,0,1-.307-1.177.856.856,0,0,1,1.174-.3h0c.221.128,1.488,1.127,1.62,1.655a.365.365,0,0,1-.031.276c-.047.074-.167.1-.326.1Zm-1.694-1.768a.469.469,0,0,0-.408.233.474.474,0,0,0,.167.645,8.689,8.689,0,0,0,1.9.517,6.482,6.482,0,0,0-1.426-1.325h0a.475.475,0,0,0-.237-.066Z" transform="translate(-474.761 -411.546)" fill="#fff"/>
            </g>
          </g>
          <g id="Group_13818" data-name="Group 13818" transform="translate(23.029 14.99)">
            <g id="Group_13809" data-name="Group 13809" transform="translate(0 24.61)">
              <g id="Group_13808" data-name="Group 13808">
                <path id="Path_24870" data-name="Path 24870" d="M448.541,171.94c-.626-.361-1.341-.556-1.745.253-.466.676.043,1.2.649,1.617-.416-.2-.836-.249-1.131.214-.622.766-.039,1.488.633,1.928-.758-.222-.968,1.092-.272,1.858l3.552,4.352c.742.96,3.194,1.352,3.972,1.5a.693.693,0,0,0,.474-.074c1.64-.917,2.293-4.111,1.733-6.8a49.822,49.822,0,0,0-1.916-5.289,1.346,1.346,0,0,0-.264-.377.5.5,0,0,0-.424-.14.66.66,0,0,0-.412.408,5.223,5.223,0,0,0-.377,1.819c-.381-.389-.781-.808-1.216-1.271-.987-.913-2.429-2.615-3.544-1.255-.346.505-.1.933.284,1.263Z" transform="translate(-446.05 -170.173)" fill="#ffa386"/>
                <path id="Path_24871" data-name="Path 24871" d="M463.97,176.187l1.935,2.359a31.052,31.052,0,0,0-1.788-3.486Z" transform="translate(-457.006 -173.161)" fill="#ff6a48" opacity="0.36"/>
              </g>
              <path id="Path_24872" data-name="Path 24872" d="M453.1,175.585a.2.2,0,0,1-.14-.058,18.3,18.3,0,0,0-1.453-1.415.193.193,0,1,1,.194-.334,17.786,17.786,0,0,1,1.535,1.481.2.2,0,0,1-.008.276.2.2,0,0,1-.136.054Z" transform="translate(-449.328 -172.361)" fill="#ff6a48"/>
              <path id="Path_24873" data-name="Path 24873" d="M450.179,180.345a.2.2,0,0,1-.14-.058l-1.166-1.177a.2.2,0,0,1,.276-.276l1.166,1.177a.2.2,0,0,1,0,.276.184.184,0,0,1-.136.054Z" transform="translate(-447.742 -175.434)" fill="#ff6a48"/>
              <path id="Path_24874" data-name="Path 24874" d="M448.695,185.546a.209.209,0,0,1-.136-.054l-.641-.618a.2.2,0,0,1,.272-.28l.641.618a.194.194,0,0,1-.136.334Z" transform="translate(-447.156 -178.956)" fill="#ff6a48"/>
            </g>
            <g id="Group_13815" data-name="Group 13815" transform="translate(27.365)">
              <g id="Group_13814" data-name="Group 13814" transform="translate(0 7.325)">
                <path id="Path_24875" data-name="Path 24875" d="M528.218,135.081a3.5,3.5,0,0,1-1.636-1.143l2.032.066a2.551,2.551,0,0,0,.49-.035,2.24,2.24,0,0,0,.369-.1c.008,0,.019-.008.027-.008a2.488,2.488,0,0,0,.326-.152.288.288,0,0,0,.047-.027,2.442,2.442,0,0,0,.292-.2.256.256,0,0,0,.035-.031,2.711,2.711,0,0,0,.264-.253h0a2.276,2.276,0,0,0,.218-.291.239.239,0,0,1,.027-.039,2.614,2.614,0,0,0,.159-.311l.023-.058a2.452,2.452,0,0,0,.1-.338c0-.019.008-.035.012-.054a2.433,2.433,0,0,0,.047-.377v-.054a2.243,2.243,0,0,0-.008-.28.578.578,0,0,0-.012-.082c-.008-.066-.019-.128-.031-.194-.008-.027-.012-.054-.019-.085a1.731,1.731,0,0,0-.058-.2c-.008-.019-.012-.039-.019-.054-.031-.085-.07-.171-.109-.253v-.008c-.039-.078-.086-.152-.132-.225l-.031-.043a2.01,2.01,0,0,0-.14-.179c-.012-.012-.019-.023-.031-.035a2.212,2.212,0,0,0-.416-.369h0a2.329,2.329,0,0,0-1.275-.427l-2.985-.1a12.722,12.722,0,0,1,.334-1.566,1.484,1.484,0,0,0-1.772-1.838c-3.2.758-4.446.793-5.192.668a2.567,2.567,0,0,1-.272-.058l-1.516,7.889c-.583,2.67,1.154,3.991,3.754,4.652l.035,3.2a3.741,3.741,0,0,0,3.49,3.937h.078a3.521,3.521,0,0,0,3.692-3.5l-.206-4.807a1.729,1.729,0,0,1-.284.047l.288-2.678Z" transform="translate(-516.952 -125.694)" fill="#ffa386"/>
                <g id="Group_13813" data-name="Group 13813" transform="translate(0 1.882)">
                  <path id="Path_24876" data-name="Path 24876" d="M548.109,146.72a2.474,2.474,0,0,1-.369.1A2.351,2.351,0,0,0,548.109,146.72Z" transform="translate(-535.588 -140.431)" fill="none"/>
                  <path id="Path_24877" data-name="Path 24877" d="M545.639,140.259a.206.206,0,0,1-.1-.031l-.964-.622.971-1.088a.2.2,0,1,1,.291.26l-.668.75.583.377a.2.2,0,0,1,.058.268.2.2,0,0,1-.163.089Z" transform="translate(-533.649 -135.377)" fill="#ff6a48"/>
                  <g id="Group_13810" data-name="Group 13810" transform="translate(2.393)">
                    <path id="Path_24878" data-name="Path 24878" d="M522.94,136.682a.5.5,0,1,0,.517-.482A.5.5,0,0,0,522.94,136.682Z" transform="translate(-522.818 -133.999)" fill="#121936"/>
                    <path id="Path_24879" data-name="Path 24879" d="M524.7,144.887a1.842,1.842,0,0,1-.832-.233.194.194,0,1,1,.175-.346,1.089,1.089,0,0,0,.94.128.55.55,0,0,0,.245-.222.2.2,0,0,1,.26-.085.191.191,0,0,1,.089.256.939.939,0,0,1-.532.443,1.136,1.136,0,0,1-.35.054Z" transform="translate(-523.324 -138.835)" fill="#ff6a48"/>
                    <path id="Path_24880" data-name="Path 24880" d="M528.491,132.146a1.179,1.179,0,0,1-.5-.222c-.163-.1-.33-.206-.482-.288s-.323-.167-.5-.253a1.176,1.176,0,0,1-.455-.3c-.1-.132-.054-.33.214-.459a1.436,1.436,0,0,1,1.244.12,1.4,1.4,0,0,1,.762.975c.031.291-.121.431-.28.42Z" transform="translate(-525 -130.536)" fill="#121936"/>
                    <path id="Path_24881" data-name="Path 24881" d="M523.7,138.585a.179.179,0,0,1-.128-.051.507.507,0,0,0-.641-.019.2.2,0,0,1-.225-.319.9.9,0,0,1,1.123.051.2.2,0,0,1,.016.276.2.2,0,0,1-.144.066Z" transform="translate(-522.627 -135.113)" fill="#ff6a48"/>
                  </g>
                  <path id="Path_24882" data-name="Path 24882" d="M527.19,158.2s3.152.451,3.781-.707h0s.171,1.9-3.762,2.565l-.019-1.861Z" transform="translate(-523.023 -146.701)" fill="#ff6a48"/>
                  <g id="Group_13811" data-name="Group 13811" transform="translate(0 1.297)">
                    <path id="Path_24883" data-name="Path 24883" d="M518.428,134.39l-.272.828a.6.6,0,0,1-.762.381h0a.3.3,0,0,0-.381.19h0a.973.973,0,0,0,.618,1.228l.334.109" transform="translate(-516.772 -134.189)" fill="#ffa386"/>
                    <path id="Path_24884" data-name="Path 24884" d="M517.666,137.008A.126.126,0,0,1,517.6,137l-.334-.113a1.168,1.168,0,0,1-.742-1.473.5.5,0,0,1,.626-.315.405.405,0,0,0,.513-.26l.272-.828a.193.193,0,0,1,.245-.124.2.2,0,0,1,.124.245l-.272.828a.8.8,0,0,1-1,.509.1.1,0,0,0-.082.008.108.108,0,0,0-.054.062.776.776,0,0,0,.494.983l.334.113a.2.2,0,0,1,.124.245.191.191,0,0,1-.183.132Z" transform="translate(-516.468 -133.874)" fill="#ff6a48"/>
                  </g>
                  <g id="Group_13812" data-name="Group 13812" transform="translate(0.95 0.829)">
                    <path id="Path_24885" data-name="Path 24885" d="M522.669,136.408a1.869,1.869,0,1,1,1.869-1.869A1.872,1.872,0,0,1,522.669,136.408Zm0-3.35a1.481,1.481,0,1,0,1.481,1.481A1.483,1.483,0,0,0,522.669,133.059Z" transform="translate(-520.066 -132.67)" fill="#fff"/>
                    <path id="Path_24886" data-name="Path 24886" d="M529.617,135.031a.193.193,0,0,1-.027-.385l4.858-.75a.2.2,0,0,1,.221.163.194.194,0,0,1-.163.222l-4.858.75Z" transform="translate(-525.339 -133.419)" fill="#fff"/>
                    <path id="Path_24887" data-name="Path 24887" d="M519.9,136.038a.18.18,0,0,1-.089-.023,1.219,1.219,0,0,0-.672-.066.194.194,0,1,1-.07-.381,1.616,1.616,0,0,1,.925.1.2.2,0,0,1-.089.369Z" transform="translate(-518.912 -134.425)" fill="#fff"/>
                  </g>
                </g>
              </g>
              <path id="Path_24888" data-name="Path 24888" d="M527.473,108.467l-2.922-.385a2.411,2.411,0,0,0-4.352.3c-.093.043-.183.089-.272.132a1.923,1.923,0,0,0-1.049-.229,1.948,1.948,0,0,0-1.8,2.079,1.857,1.857,0,0,0,.159.622,6.35,6.35,0,0,0-.595,1.247,2.311,2.311,0,0,0,1.628,2.514c.074.023.152.043.233.066s.175.039.272.058c.742.128,1.99.089,5.192-.668a1.485,1.485,0,0,1,1.772,1.838,12.05,12.05,0,0,0-.334,1.566l2.985.1a2.34,2.34,0,0,1,1.275.427,2.69,2.69,0,0,1,.416.369c.012.012.019.023.031.035.051.058.093.117.14.179l.031.043c.047.074.093.148.132.225v.008a1.84,1.84,0,0,1,.109.253c.008.019.012.039.019.054a1.743,1.743,0,0,1,.058.2c.008.027.012.054.019.085.012.062.023.128.031.194a.6.6,0,0,0,.012.082,2.211,2.211,0,0,1,.008.28v.054a2.946,2.946,0,0,1-.047.377.275.275,0,0,1-.012.054,2.436,2.436,0,0,1-.1.338l-.023.058a2.132,2.132,0,0,1-.159.311.227.227,0,0,1-.027.039,2.265,2.265,0,0,1-.218.291h0a2.311,2.311,0,0,1-.264.253c-.012.012-.023.019-.035.031a2.993,2.993,0,0,1-.291.2.288.288,0,0,0-.047.027,2.5,2.5,0,0,1-.326.152c-.008,0-.019.008-.027.008a2.476,2.476,0,0,1-.369.1,2.272,2.272,0,0,1-.49.035l-2.032-.066a3.518,3.518,0,0,0,1.636,1.143l-.287,2.678a2.275,2.275,0,0,0,.284-.047,1.955,1.955,0,0,0,1.368-1.123l.626-1.442a3.524,3.524,0,0,0,2.444-4.562,2.419,2.419,0,0,0,1.076-1.9c2.779-4.7-3.2-8.34-5.864-8.689Z" transform="translate(-516.56 -106.844)" fill="#121936"/>
            </g>
            <g id="Group_13817" data-name="Group 13817" transform="translate(3.318 23.77)">
              <path id="Path_24889" data-name="Path 24889" d="M511.718,191.7s-10.236-18.7-10.834-19.481A10.12,10.12,0,0,0,493,168.263l-5.86-.082-6.684-.171c-1.038,0-4.061.548-4.838,1.236-2.421,2.161-4.084,5.95-5.033,8.872l-1.978,6.1-5.868-6.824a.716.716,0,0,0-.933-.136l-6.91,4.43a.661.661,0,0,0-.175.948l9.54,12.875a6.288,6.288,0,0,0,9.882.905l-1.714,13.737h28.368l.917-11.717,6.906-.361a4.05,4.05,0,0,0,3.1-6.373Z" transform="translate(-454.588 -168.01)" fill="#3e2fd1"/>
              <g id="Group_13816" data-name="Group 13816" transform="translate(13.096 15.256)">
                <path id="Path_24890" data-name="Path 24890" d="M490.294,210.036a.2.2,0,0,1-.155-.078l-1.811-2.378a.2.2,0,0,1,.035-.272.193.193,0,0,1,.272.039l1.811,2.378a.2.2,0,0,1-.035.272A.191.191,0,0,1,490.294,210.036Z" transform="translate(-488.288 -207.268)" fill="#121936"/>
                <path id="Path_24891" data-name="Path 24891" d="M575.249,224.969h-.019a.2.2,0,0,1-.171-.214l1.729-15.976a.192.192,0,0,1,.214-.171.2.2,0,0,1,.171.214L575.443,224.8a.194.194,0,0,1-.194.175Z" transform="translate(-541.338 -208.087)" fill="#121936"/>
                <path id="Path_24892" data-name="Path 24892" d="M504.6,226.485a.232.232,0,0,1-.109-.031.194.194,0,0,1-.054-.268l6.086-9.222a.193.193,0,0,1,.323.214l-6.086,9.222a.188.188,0,0,1-.163.086Z" transform="translate(-498.143 -213.143)" fill="#121936"/>
              </g>
            </g>
          </g>
        </g>
        <g id="Group_13833" data-name="Group 13833" transform="translate(11.767 13.396)">
          <g id="Group_13827" data-name="Group 13827">
            <g id="Group_13823" data-name="Group 13823">
              <rect id="Rectangle_4293" data-name="Rectangle 4293" width="93.309" height="65.15" rx="6.26" transform="translate(0.194 0.19)" fill="#fff"/>
              <g id="Group_13822" data-name="Group 13822">
                <g id="Group_13820" data-name="Group 13820">
                  <path id="Path_24893" data-name="Path 24893" d="M205.406,103.23H116.963a2.431,2.431,0,0,0-2.433,2.433v7.2h93.309v-7.2A2.431,2.431,0,0,0,205.406,103.23Z" transform="translate(-114.336 -103.04)" fill="#397afa"/>
                  <path id="Path_24894" data-name="Path 24894" d="M207.533,112.766H114.224a.192.192,0,0,1-.194-.194v-7.2a2.629,2.629,0,0,1,2.627-2.627H205.1a2.629,2.629,0,0,1,2.627,2.627v7.2A.192.192,0,0,1,207.533,112.766Zm-93.115-.389h92.92v-7.011a2.239,2.239,0,0,0-2.238-2.238H116.657a2.239,2.239,0,0,0-2.238,2.238Z" transform="translate(-114.03 -102.74)" fill="#353148"/>
                </g>
                <g id="Group_13821" data-name="Group 13821" transform="translate(75.95 3.276)">
                  <path id="Path_24895" data-name="Path 24895" d="M310.989,114.209a1.519,1.519,0,1,1,1.519-1.519A1.519,1.519,0,0,1,310.989,114.209Zm0-2.65a1.131,1.131,0,1,0,1.131,1.131A1.132,1.132,0,0,0,310.989,111.559Z" transform="translate(-309.47 -111.17)" fill="#fff"/>
                  <path id="Path_24896" data-name="Path 24896" d="M324.889,114.209a1.519,1.519,0,1,1,1.519-1.519A1.519,1.519,0,0,1,324.889,114.209Zm0-2.65a1.131,1.131,0,1,0,1.131,1.131A1.132,1.132,0,0,0,324.889,111.559Z" transform="translate(-317.968 -111.17)" fill="#fff"/>
                  <path id="Path_24897" data-name="Path 24897" d="M339.209,114.209a1.519,1.519,0,1,1,1.519-1.519A1.519,1.519,0,0,1,339.209,114.209Zm0-2.65a1.131,1.131,0,1,0,1.131,1.131A1.132,1.132,0,0,0,339.209,111.559Z" transform="translate(-326.723 -111.17)" fill="#fff"/>
                </g>
              </g>
            </g>
            <g id="Group_13824" data-name="Group 13824" transform="translate(4.294 13.135)">
              <rect id="Rectangle_4294" data-name="Rectangle 4294" width="84.717" height="47.566" rx="5.1" transform="translate(0.198 0.194)" fill="#fff"/>
              <path id="Path_24898" data-name="Path 24898" d="M208.009,184.494H127.256a2.178,2.178,0,0,1-2.176-2.176v-43.6a2.178,2.178,0,0,1,2.176-2.176h80.753a2.178,2.178,0,0,1,2.176,2.176v43.6A2.178,2.178,0,0,1,208.009,184.494Zm-80.753-47.566a1.788,1.788,0,0,0-1.788,1.788v43.6a1.788,1.788,0,0,0,1.788,1.788h80.753a1.788,1.788,0,0,0,1.788-1.788v-43.6a1.788,1.788,0,0,0-1.788-1.788H127.256Z" transform="translate(-125.08 -136.54)" fill="#353148"/>
            </g>
            <g id="Group_13825" data-name="Group 13825" transform="translate(9.571 19.007)">
              <path id="Path_24899" data-name="Path 24899" d="M157.508,189.345a18.848,18.848,0,0,1,0-37.7c.237,0,.109,37.691,0,37.691Z" transform="translate(-138.66 -151.65)" fill="#9dd3ff"/>
              <path id="Path_24900" data-name="Path 24900" d="M209.867,170.508a18.848,18.848,0,0,0-18.848-18.848c-.12,0-.148,9.2-.128,18.925,0,.07,18.972,0,18.972-.078Z" transform="translate(-170.59 -151.656)" fill="#3e2fd1"/>
              <path id="Path_24901" data-name="Path 24901" d="M191.59,218q-.245,0-.264-7.182c0-1.745,0-3.49,0-4.8q0-2.374.21-2.374c13.893-.027,13.982.062,14.068.148a.207.207,0,0,1,.058.14A14.084,14.084,0,0,1,191.594,218Zm.128-13.971c-.035,1.543,0,12.144.05,13.578a13.7,13.7,0,0,0,13.5-13.508C204.344,204.039,199.284,204.011,191.718,204.027Z" transform="translate(-170.857 -183.434)" fill="#121936"/>
            </g>
            <g id="Group_13826" data-name="Group 13826" transform="translate(54.483 28.291)">
              <path id="Path_24902" data-name="Path 24902" d="M279.995,175.929h-25.57a.194.194,0,0,1,0-.389h25.57a.194.194,0,1,1,0,.389Z" transform="translate(-254.23 -175.54)" fill="#121936"/>
              <path id="Path_24903" data-name="Path 24903" d="M266.747,190.679H254.424a.194.194,0,1,1,0-.389h12.323a.194.194,0,0,1,0,.389Z" transform="translate(-254.23 -184.558)" fill="#121936"/>
              <path id="Path_24904" data-name="Path 24904" d="M302.626,190.679H291.5a.194.194,0,0,1,0-.389h11.122a.194.194,0,0,1,0,.389Z" transform="translate(-276.9 -184.558)" fill="#121936"/>
            </g>
          </g>
          <g id="Group_13831" data-name="Group 13831" transform="translate(34.798 41.138)">
            <g id="Group_13828" data-name="Group 13828">
              <path id="Path_24905" data-name="Path 24905" d="M268.545,208.661c-.855-.019-1.539,0-1.539,0l-45.277-.051a10.093,10.093,0,0,0-9.9,8.483h-.043v.268a10.477,10.477,0,0,0-.089,1.407l.023,3.859a10.349,10.349,0,0,1-3.435,7.889,10.091,10.091,0,0,1-4.694,2.316,8.646,8.646,0,0,0,1.123.047c.855.019,1.539,0,1.539,0l45.277.051a10.093,10.093,0,0,0,9.9-8.483h.043v-.268a10.474,10.474,0,0,0,.089-1.407l-.035-5.343a10.288,10.288,0,0,1,8.137-8.72,7.838,7.838,0,0,0-1.123-.047Z" transform="translate(-203.576 -208.606)" fill="#121936"/>
              <path id="Path_24906" data-name="Path 24906" d="M308.647,208.6H250.74a12.877,12.877,0,0,1,12.6,13.135v54.677a8.317,8.317,0,0,0,8.141,8.483h55.287V227.486C327.479,217.608,321.957,208.6,308.647,208.6Z" transform="translate(-232.412 -208.6)" fill="#fff"/>
              <path id="Path_24907" data-name="Path 24907" d="M326.3,228.76a.148.148,0,0,1-.148-.148v-4.174A15.462,15.462,0,0,0,310.707,209h-60.6a.148.148,0,0,1,0-.3h60.6a15.751,15.751,0,0,1,15.735,15.735v4.174a.148.148,0,0,1-.148.148Z" transform="translate(-231.935 -208.661)" fill="#121936"/>
              <path id="Path_24908" data-name="Path 24908" d="M371.9,363.284l-60.312.074.035,5.868a10.608,10.608,0,0,1-8.5,10.388,8.611,8.611,0,0,0,1.158.051c.886.019,1.589,0,1.589,0l46.773.054c.1,0,.21-.008.315-.012l8.612.012a10.429,10.429,0,0,0,10.364-10.492l-.035-5.946Z" transform="translate(-264.433 -303.17)" fill="#121936"/>
            </g>
            <g id="Group_13830" data-name="Group 13830" transform="translate(41.101 13.951)">
              <path id="Path_24909" data-name="Path 24909" d="M354.05,269.759H309.534a.194.194,0,0,1,0-.389H354.05a.194.194,0,0,1,0,.389Z" transform="translate(-309.34 -259.705)" fill="#121936"/>
              <path id="Path_24910" data-name="Path 24910" d="M335,245.277h-23.5a.389.389,0,0,1,0-.777H335a.389.389,0,0,1,0,.777Z" transform="translate(-310.428 -244.5)" fill="#3e2fd1"/>
              <path id="Path_24911" data-name="Path 24911" d="M330.949,317.559h-21.4a.194.194,0,0,1,0-.389h21.4a.194.194,0,0,1,0,.389Z" transform="translate(-309.346 -288.93)" fill="#121936"/>
              <path id="Path_24912" data-name="Path 24912" d="M324.086,292.179H309.544a.194.194,0,1,1,0-.389h14.542a.194.194,0,0,1,0,.389Z" transform="translate(-309.346 -273.413)" fill="#121936"/>
              <path id="Path_24913" data-name="Path 24913" d="M384.919,292.179H360.024a.194.194,0,1,1,0-.389h24.894a.194.194,0,1,1,0,.389Z" transform="translate(-340.209 -273.413)" fill="#121936"/>
              <path id="Path_24914" data-name="Path 24914" d="M324.086,344.719H309.544a.194.194,0,1,1,0-.389h14.542a.194.194,0,0,1,0,.389Z" transform="translate(-309.346 -305.535)" fill="#121936"/>
              <path id="Path_24915" data-name="Path 24915" d="M359.006,344.719h-3.571a.194.194,0,1,1,0-.389h3.571a.194.194,0,1,1,0,.389Z" transform="translate(-337.403 -305.535)" fill="#121936"/>
              <g id="Group_13829" data-name="Group 13829" transform="translate(26.359 24.195)">
                <rect id="Rectangle_4295" data-name="Rectangle 4295" width="4.671" height="14.837" transform="translate(0 1.527)" fill="#9dd3ff"/>
                <path id="Path_24916" data-name="Path 24916" d="M399.255,334.788h-4.671a.192.192,0,0,1-.194-.194v-8.88a.192.192,0,0,1,.194-.194h4.671a.192.192,0,0,1,.194.194v8.88A.192.192,0,0,1,399.255,334.788Zm-4.477-.389h4.282v-8.491h-4.282Z" transform="translate(-387.698 -318.23)" fill="#397afa"/>
                <rect id="Rectangle_4296" data-name="Rectangle 4296" width="4.671" height="16.364" transform="translate(13.683)" fill="#3e2fd1"/>
              </g>
            </g>
          </g>
          <g id="Group_13832" data-name="Group 13832" transform="translate(75.386 18.202)">
            <path id="Path_24917" data-name="Path 24917" d="M326.86,168.961l-11.367-11.728a.2.2,0,1,1,.28-.272l11.1,11.452L339.21,156.84l14.619,11.336a.194.194,0,0,1-.237.307l-14.355-11.134-12.373,11.608Z" transform="translate(-312.556 -154.019)" fill="#121936"/>
            <circle id="Ellipse_7423" data-name="Ellipse 7423" cx="3.078" cy="3.078" r="3.078" fill="#3e2fd1"/>
            <path id="Path_24918" data-name="Path 24918" d="M374.866,152.658a3.078,3.078,0,1,1-3.078-3.078A3.077,3.077,0,0,1,374.866,152.658Z" transform="translate(-345.125 -149.58)" fill="#3e2fd1"/>
            <circle id="Ellipse_7424" data-name="Ellipse 7424" cx="3.078" cy="3.078" r="3.078" transform="translate(10.784 16.863) rotate(-80.78)" fill="#397afa"/>
            <circle id="Ellipse_7425" data-name="Ellipse 7425" cx="3.078" cy="3.078" r="3.078" transform="translate(37.727 16.994) rotate(-82.98)" fill="#397afa"/>
          </g>
        </g>
      </g>
    </g>
  </g>
</svg>
