<svg xmlns="http://www.w3.org/2000/svg" width="25.2" height="42" viewBox="0 0 25.2 42">
  <path id="select-svgrepo-com" d="M7,8a6.831,6.831,0,0,1,6.632-7,6.831,6.831,0,0,1,6.632,7,7.1,7.1,0,0,1-2.653,5.564V8a4.1,4.1,0,0,0-3.979-4.2A4.1,4.1,0,0,0,9.653,8v5.564A7.1,7.1,0,0,1,7,8Zm22.547,9.8a2.73,2.73,0,0,0-2.653,2.8V19.2a2.657,2.657,0,1,0-5.305,0V17.8a2.657,2.657,0,1,0-5.305,0V8a2.73,2.73,0,0,0-2.653-2.8A2.73,2.73,0,0,0,10.979,8V22.388A2.532,2.532,0,0,0,9.653,22,2.73,2.73,0,0,0,7,24.8V29a2.9,2.9,0,0,0,.581,1.749L12.305,38.8H28.221l3.041-4.61A4.01,4.01,0,0,0,32.2,31.8V20.6A2.73,2.73,0,0,0,29.547,17.8ZM12.305,40.2v1.4A1.364,1.364,0,0,0,13.632,43H26.895a1.364,1.364,0,0,0,1.326-1.4V40.2Z" transform="translate(-7 -1)" fill="#fff"/>
</svg>
