<svg xmlns="http://www.w3.org/2000/svg" width="135.294" height="102.33" viewBox="0 0 135.294 102.33">
  <g id="Jan-Success_1_Converted_" data-name="Jan-Success_1 [Converted]" transform="translate(-456 -221.33)">
    <g id="OBJECTS" transform="translate(456 221.33)">
      <g id="Group_50968" data-name="Group 50968" transform="translate(6.334 50.159)" opacity="0.5">
        <path id="Path_29900" data-name="Path 29900" d="M679.391,1032.684c-2.916-8.589-10.732-15.634-19.762-16.492-8.524-.809-16.756,3.622-25.318,3.7-13.847.128-25.339-10.857-38.9-13.639-15.765-3.234-33.163,6.562-38.575,21.717-3.5,9.785-1.705,21.009,3.837,29.748H676.9C680.855,1050.043,682.161,1040.845,679.391,1032.684Z" transform="translate(-555.039 -1005.636)" fill="#e2edff"/>
      </g>
      <path id="Path_29901" data-name="Path 29901" d="M578.379,1052.6a33.262,33.262,0,0,0,27.479-27.078c-.085-.025-.169-.05-.256-.073a35.7,35.7,0,0,1-1.156,4.628,32.8,32.8,0,0,1-9.187,14.035,33.272,33.272,0,0,1-14.745,7.815,32.463,32.463,0,0,1-17.221-.84c-.049-.015-.1-.034-.146-.05-.017.084-.033.168-.048.252A32.927,32.927,0,0,0,578.379,1052.6Z" transform="translate(-556.25 -974.023)" fill="#fff"/>
      <path id="Path_29902" data-name="Path 29902" d="M589.584,1248.071c8.386,1.122,17,1.721,25.288-.4a32.223,32.223,0,0,0,10.573-4.729,29.979,29.979,0,0,0,7.939-8.462,41.9,41.9,0,0,0,4.038-8.31c-.093.009-.185.02-.278.028a44.088,44.088,0,0,1-2.554,5.722,31.936,31.936,0,0,1-7.585,9.511,30.309,30.309,0,0,1-10.622,5.552c-8.132,2.459-16.743,2.094-25.074,1.056-9.113-1.136-18.234-3.059-27.464-2.647a48.981,48.981,0,0,0-8.276,1.048c0,.089.006.178.011.267a47.037,47.037,0,0,1,6.745-.971C571.476,1245.071,580.556,1246.865,589.584,1248.071Z" transform="translate(-549.202 -1161.906)" fill="#fff"/>
      <path id="Path_29903" data-name="Path 29903" d="M2088.373,1204.991a38.078,38.078,0,0,1-9.344-3.206,20.059,20.059,0,0,1-7.152-5.8,13.112,13.112,0,0,1-2.5-8.9c.516-5.853,4.331-10.531,9.262-13.313-.128-.024-.253-.045-.379-.064a17.886,17.886,0,0,0-8.7,10.872,13.613,13.613,0,0,0,.728,9.224,16.869,16.869,0,0,0,6.031,6.685,31.039,31.039,0,0,0,8.72,3.921,52.834,52.834,0,0,0,11.3,1.955c.306.019.613.032.92.046.018-.084.037-.169.055-.256A53.051,53.051,0,0,1,2088.373,1204.991Z" transform="translate(-1965.918 -1112.801)" fill="#fff"/>
      <path id="Path_29904" data-name="Path 29904" d="M1273.7,1074.719a36.275,36.275,0,0,1,1.946-3.581l-.235-.107q-.767,1.244-1.436,2.548a36.243,36.243,0,0,0-2.648,6.779c-.71,2.558-1.311,5.368-.654,8a6.49,6.49,0,0,0,3.862,4.661c2.289.827,4.775-.031,6.8-1.154a38.079,38.079,0,0,0,6.145-4.5,57.811,57.811,0,0,0,5.436-5.308q1.023-1.139,1.983-2.333l-.272-.082a57.271,57.271,0,0,1-10.646,10.174c-2.038,1.495-4.334,3.006-6.916,3.246a5.634,5.634,0,0,1-5.728-3.549c-1.126-2.562-.667-5.481-.021-8.1A35.55,35.55,0,0,1,1273.7,1074.719Z" transform="translate(-1218.307 -1016.688)" fill="#fff"/>
      <path id="Path_29905" data-name="Path 29905" d="M2280.264,1359.69a16.152,16.152,0,0,0,7.743-1.674c-.006-.077-.012-.155-.019-.231a17,17,0,0,1-6.46,1.651,9.517,9.517,0,0,1-7.034-2.312,6.165,6.165,0,0,1-1.911-6.2,5.243,5.243,0,0,1,1.691-2.641,6.186,6.186,0,0,1,3.8-1.132c1.209-.036,2.425.05,3.629-.1a9.582,9.582,0,0,0,2.549-.7c-.044-.073-.089-.147-.135-.22-.266.113-.536.215-.811.3-2.481.794-5.138.025-7.6.81a5.319,5.319,0,0,0-3.527,4.294,6.409,6.409,0,0,0,1.864,5.519A9.3,9.3,0,0,0,2280.264,1359.69Z" transform="translate(-2155.957 -1274.185)" fill="#fff"/>
      <path id="Path_29906" data-name="Path 29906" d="M1640.451,1477.186l-3.454-8.217c-.8-1.918-1.651-4.005-3.389-5.274a6.693,6.693,0,0,0-6.374-.52,14.144,14.144,0,0,0-5.379,4.332,31.657,31.657,0,0,0-6.216,12.16,32.47,32.47,0,0,0-.979,5.8h.263a31.969,31.969,0,0,1,5.77-16.039,19.623,19.623,0,0,1,4.956-5.134c2.047-1.343,4.778-1.987,7.064-.848,2.088,1.04,3.08,3.319,3.937,5.354q1.606,3.814,3.2,7.63,1.9,4.518,3.795,9.037h.276Z" transform="translate(-1540.559 -1383.229)" fill="#fff"/>
      <g id="Group_50969" data-name="Group 50969" transform="translate(74.499 44.907)" opacity="0.5">
        <path id="Path_29907" data-name="Path 29907" d="M1635.4,924.658a13.368,13.368,0,0,1-5.253-.717c-4.107-1.488-9.223.95-9.257,5.692-.026,3.678,3.355,6.112,6.489,7.234,5.91,2.115,18.151,1.007,17.575-7.774-.184-2.81-1.678-4.117-4.365-4.428A33.221,33.221,0,0,0,1635.4,924.658Z" transform="translate(-1620.888 -923.506)" fill="#e2edff"/>
      </g>
      <path id="Path_29908" data-name="Path 29908" d="M2135.662,503.33a9.057,9.057,0,0,1-3.952-2.942l.525-1.118c1.3,1.727,1.727,2.659,3.358,2.524Z" transform="translate(-2024.541 -481.495)" fill="#ffb900"/>
      <path id="Path_29909" data-name="Path 29909" d="M2450.8,863.357a12.094,12.094,0,0,1-2.177-5.26l1.023-.677c.351,2.422.286,3.552,1.837,4.491Z" transform="translate(-2321.184 -816.739)" fill="#007bff"/>
      <path id="Path_29910" data-name="Path 29910" d="M1784.316,603.634a8.15,8.15,0,0,1-4.836-.39V601.93c1.918.812,2.7,1.411,4.119.354Z" transform="translate(-1694.838 -577.589)" fill="#14cca1"/>
      <path id="Path_29911" data-name="Path 29911" d="M1123.064,539.3a6.942,6.942,0,0,1-2.915,2.341l-.52-.748c1.415-.553,2.1-.628,2.49-1.983Z" transform="translate(-1077.188 -518.599)" fill="#ff5c33"/>
      <path id="Path_29912" data-name="Path 29912" d="M663.818,1024.279a8.784,8.784,0,0,1-5.008-1.356l.345-1.343c1.811,1.21,2.483,1.983,4.261,1.177Z" transform="translate(-645.839 -970.401)" fill="#007bff"/>
      <path id="Path_29913" data-name="Path 29913" d="M748.382,479.128A8.672,8.672,0,0,1,745.44,475l.989-.927c.671,2.1.744,3.148,2.49,3.534Z" transform="translate(-726.929 -457.906)" fill="#14cca1"/>
      <path id="Path_29914" data-name="Path 29914" d="M845.442,719.038a9.293,9.293,0,0,1-5.19,1.609l-.412-1.379c2.262.051,3.272.352,4.427-1.348Z" transform="translate(-815.292 -686.161)" fill="#007bff"/>
      <path id="Path_29915" data-name="Path 29915" d="M1217.236,222.5a8.835,8.835,0,0,1-5.084,1.126l-.313-1.356c2.17.232,3.123.6,4.335-.937Z" transform="translate(-1163.501 -221.33)" fill="#ffb900"/>
      <path id="Path_29916" data-name="Path 29916" d="M1614.813,233.628a8.449,8.449,0,0,1-3.242-3.06l.561-.929c1,1.677,1.3,2.552,2.75,2.622Z" transform="translate(-1537.667 -229.109)" fill="#14cca1"/>
      <path id="Path_29917" data-name="Path 29917" d="M1991.036,308.736a8.137,8.137,0,0,0,3.176-3.661l-.921-.935c-.8,1.919-.937,2.893-2.691,3.134Z" transform="translate(-1892.457 -298.844)" fill="#ff5c33"/>
      <g id="Group_50970" data-name="Group 50970" transform="translate(45.5 52.773)" opacity="0.84">
        <path id="Path_29918" data-name="Path 29918" d="M1170.925,1051.3a9.971,9.971,0,0,1-3.475-3.792l.7-1c1.023,2,1.3,3.03,2.948,3.246Z" transform="translate(-1167.45 -1046.5)" fill="#ff5c33"/>
      </g>
      <path id="Path_29919" data-name="Path 29919" d="M1951.228,908.292a10.9,10.9,0,0,1-2.878,4.514l-.959-.7c1.619-1.436,2.478-1.881,2.469-3.833Z" transform="translate(-1852.01 -864.338)" fill="#ff5c33"/>
      <circle id="Ellipse_7424" data-name="Ellipse 7424" cx="0.64" cy="0.64" r="0.64" transform="translate(36.198 12.151)" fill="#ff5c33"/>
      <circle id="Ellipse_7425" data-name="Ellipse 7425" cx="0.64" cy="0.64" r="0.64" transform="translate(87.02 12.151)" fill="#ffb900"/>
      <ellipse id="Ellipse_7426" data-name="Ellipse 7426" cx="0.69" rx="0.69" transform="translate(103.542 32.678)" fill="#ff5c33"/>
      <circle id="Ellipse_7427" data-name="Ellipse 7427" cx="0.64" cy="0.64" r="0.64" transform="translate(37.221 38.117)" fill="#14cca1"/>
      <rect id="Rectangle_4415" data-name="Rectangle 4415" width="1.809" height="1.809" transform="translate(7.425 33.15) rotate(-45)" fill="#ffb900"/>
      <rect id="Rectangle_4416" data-name="Rectangle 4416" width="1.809" height="1.809" transform="translate(118.498 31.054) rotate(-45)" fill="#14cca1"/>
      <path id="Path_29920" data-name="Path 29920" d="M1.608,0H9.165a1.609,1.609,0,0,1,1.609,1.609V4.126H0V1.609A1.609,1.609,0,0,1,1.608,0Z" transform="translate(64.911 72.509) rotate(-0.07)" fill="#ffb900"/>
      <rect id="Rectangle_4417" data-name="Rectangle 4417" width="6.971" height="12.343" transform="translate(66.816 61.598)" fill="#ffb900"/>
      <path id="Path_29921" data-name="Path 29921" d="M1500.75,1189.824v-5.334h6.971l-.007,2.591Z" transform="translate(-1433.934 -1122.892)" fill="#e8950c"/>
      <path id="Path_29922" data-name="Path 29922" d="M1736.128,762.586l-.448-1.471c8.162-2.47,11.624-7.576,10.58-15.61a.243.243,0,0,0-.2-.033l-1.124.3a.927.927,0,0,0-.752.838v1.741a1.985,1.985,0,0,1-2.029,1.922c-1.176.023-3.188.061-3.457.061V748.8c.184,0,1.465-.022,3.427-.06.284-.005.524-.183.524-.388v-1.74a2.437,2.437,0,0,1,1.886-2.32l1.124-.3a1.762,1.762,0,0,1,1.438.23,1.557,1.557,0,0,1,.689,1.087c.548,4.221-.064,7.787-1.828,10.593C1744.052,758.94,1740.745,761.189,1736.128,762.586Z" transform="translate(-1653.84 -710.507)" fill="#ffb900"/>
      <path id="Path_29923" data-name="Path 29923" d="M1194.129,762.577c-4.617-1.4-7.924-3.645-9.83-6.684-1.761-2.806-2.376-6.37-1.828-10.593a1.554,1.554,0,0,1,.69-1.087,1.759,1.759,0,0,1,1.438-.23l1.124.3a2.437,2.437,0,0,1,1.886,2.32v1.741c0,.2.24.384.524.388,1.963.038,3.244.06,3.427.06v1.535c-.268,0-2.281-.038-3.457-.061a1.985,1.985,0,0,1-2.029-1.923v-1.74a.924.924,0,0,0-.752-.838l-1.124-.3a.209.209,0,0,0-.208.046c-1.039,8.021,2.422,13.127,10.585,15.6Z" transform="translate(-1135.828 -710.498)" fill="#ffb900"/>
      <path id="Path_29924" data-name="Path 29924" d="M1345.9,728.391l-1.668,20.83a8.912,8.912,0,0,1-8.885,8.2h-9.585a8.91,8.91,0,0,1-8.882-8.2l-.865-10.808-.8-10.021a2.7,2.7,0,0,1,2.686-2.911h25.31a2.7,2.7,0,0,1,2.691,2.911Z" transform="translate(-1260.256 -693.238)" fill="#ffb900"/>
      <path id="Path_29925" data-name="Path 29925" d="M1352.891,944.681a8.884,8.884,0,0,1-5.659,2.026h-9.585a8.91,8.91,0,0,1-8.882-8.2L1327.9,927.7A52.928,52.928,0,0,0,1352.891,944.681Z" transform="translate(-1272.139 -882.525)" fill="#e8950c"/>
      <rect id="Rectangle_4418" data-name="Rectangle 4418" width="9.988" height="0.256" transform="translate(65.508 64.054)" fill="#001f40"/>
      <rect id="Rectangle_4419" data-name="Rectangle 4419" width="1.857" height="0.256" transform="translate(66.519 72.38)" fill="#001f40"/>
      <rect id="Rectangle_4420" data-name="Rectangle 4420" width="1.857" height="0.256" transform="translate(72.275 72.38)" fill="#001f40"/>
      <path id="Path_29926" data-name="Path 29926" d="M2.821,0H12.979A2.818,2.818,0,0,1,15.8,2.818V6.99H0V2.818A2.818,2.818,0,0,1,2.821,0Z" transform="translate(62.393 75.744) rotate(-0.07)" fill="#ffb900"/>
      <rect id="Rectangle_4421" data-name="Rectangle 4421" width="10.76" height="0.256" transform="translate(64.922 75.636)" fill="#e8950c"/>
      <ellipse id="Ellipse_7428" data-name="Ellipse 7428" cx="1.407" cy="2.75" rx="1.407" ry="2.75" transform="translate(77.105 38.479)" fill="#fff" opacity="0.6"/>
      <rect id="Rectangle_4422" data-name="Rectangle 4422" width="77.475" height="6.586" transform="translate(31.589 95.697)" fill="#fff"/>
      <rect id="Rectangle_4423" data-name="Rectangle 4423" width="51.87" height="6.586" transform="translate(44.391 89.111)" fill="#fff"/>
      <rect id="Rectangle_4424" data-name="Rectangle 4424" width="33.928" height="6.586" transform="translate(53.362 82.525)" fill="#fff"/>
      <rect id="Rectangle_4425" data-name="Rectangle 4425" width="38.168" height="6.585" transform="translate(51.242 95.697)" fill="#ff5c33"/>
      <rect id="Rectangle_4426" data-name="Rectangle 4426" width="27.178" height="6.587" transform="translate(56.737 89.11)" fill="#ff5c33"/>
      <rect id="Rectangle_4427" data-name="Rectangle 4427" width="15.907" height="6.585" transform="translate(62.373 82.525)" fill="#ff5c33"/>
      <rect id="Rectangle_4428" data-name="Rectangle 4428" width="9.01" height="1.535" transform="translate(53.363 87.573)" fill="#003e80" opacity="0.1"/>
      <rect id="Rectangle_4429" data-name="Rectangle 4429" width="9.01" height="1.535" transform="translate(78.28 87.573)" fill="#003e80" opacity="0.1"/>
      <rect id="Rectangle_4430" data-name="Rectangle 4430" width="15.907" height="1.535" transform="translate(62.373 87.573)" fill="#4a191b" opacity="0.3"/>
      <rect id="Rectangle_4431" data-name="Rectangle 4431" width="12.346" height="1.535" transform="translate(44.392 94.152)" fill="#003e80" opacity="0.1"/>
      <rect id="Rectangle_4432" data-name="Rectangle 4432" width="12.346" height="1.535" transform="translate(83.915 94.152)" fill="#003e80" opacity="0.1"/>
      <rect id="Rectangle_4433" data-name="Rectangle 4433" width="27.178" height="1.535" transform="translate(56.737 94.152)" fill="#4a191b" opacity="0.3"/>
      <rect id="Rectangle_4434" data-name="Rectangle 4434" width="19.654" height="1.535" transform="translate(31.588 100.747)" fill="#003e80" opacity="0.1"/>
      <rect id="Rectangle_4435" data-name="Rectangle 4435" width="19.654" height="1.535" transform="translate(89.41 100.747)" fill="#003e80" opacity="0.1"/>
      <rect id="Rectangle_4436" data-name="Rectangle 4436" width="38.168" height="1.535" transform="translate(51.242 100.747)" fill="#4a191b" opacity="0.3"/>
      <path id="Path_29927" data-name="Path 29927" d="M948.186,1529.6h-.256v-6.714l12.8-.01v-6.576l8.972,0v-6.582h9.076v.256h-8.82v6.582l-8.972,0v6.576l-12.8.01Z" transform="translate(-916.469 -1427.322)" fill="#95beff"/>
      <path id="Path_29928" data-name="Path 29928" d="M1709.686,1529.6h-.256v-6.458l-12.8-.01v-6.576l-8.972,0v-6.582h-8.966v-.256h9.222v6.582l8.972,0v6.576l12.8.01Z" transform="translate(-1600.494 -1427.322)" fill="#95beff"/>
      <path id="Path_29929" data-name="Path 29929" d="M1516.3,815.08l-.954,3.16,3.723,1.174-1.243-2.08.365-1.826Z" transform="translate(-1447.6 -777.107)" fill="#001f40"/>
      <rect id="Rectangle_4437" data-name="Rectangle 4437" width="0.838" height="0.256" transform="translate(69.421 40.48) rotate(-26.19)" fill="#fff"/>
      <path id="Path_29930" data-name="Path 29930" d="M1460.093,624.426l2.622.251a2.88,2.88,0,0,1,1.493.56,2.7,2.7,0,0,1,.98,2.673c-.047.265-.1.512-.144.719l-2.143,7.6-3.256-1.734,1.451-5.662-3.3-.1-1.8-3.773.65-3.009Z" transform="translate(-1392.046 -596.329)" fill="#007bff"/>
      <path id="Path_29931" data-name="Path 29931" d="M1501.04,868.29l-.81,3.464,4.085,1.009-1.48-2.153.268-1.989Z" transform="translate(-1433.448 -826.914)" fill="#001f40"/>
      <rect id="Rectangle_4438" data-name="Rectangle 4438" width="0.904" height="0.256" transform="translate(68.541 44.033) rotate(-29.87)" fill="#fff"/>
      <path id="Path_29932" data-name="Path 29932" d="M1425.561,628.765l2.8,10.233,3.15-.357-1.842-10.845a2.434,2.434,0,0,0-1.663-2.247l-1.549-.86-.4-2.759-2.35,1.53-.38,3.595a1.505,1.505,0,0,0,1.415,1.675l.816.035" transform="translate(-1361.461 -596.31)" fill="#007bff"/>
      <path id="Path_29933" data-name="Path 29933" d="M1426.363,540.175l-4.673.531a.954.954,0,0,1-1.055-.836l-.815-6.92,3.9-.95,4.134.617-.759,6.828A.827.827,0,0,1,1426.363,540.175Z" transform="translate(-1358.18 -512.131)" fill="#fff"/>
      <path id="Path_29934" data-name="Path 29934" d="M1333.485,381.839s.363-1.784.081-1.719-.571.75-.571.75-.618-1.484-.855-1.471-.166.391-.166.391-.442-.21-.557.226c0,0-.442-.21-.438.6a18.88,18.88,0,0,0,.537,2.5l2.117-.8Z" transform="translate(-1275.021 -369.29)" fill="#ffba9a"/>
      <path id="Path_29935" data-name="Path 29935" d="M1342.978,429.018l-1.481-4.1-2.117.8c.371,1.46.839,3.164,1.083,4.039a2.6,2.6,0,0,0,.568,1.038l4.25,5.059,1.834-2.6Z" transform="translate(-1282.884 -411.9)" fill="#003e80"/>
      <path id="Path_29936" data-name="Path 29936" d="M1355.961,404.769a.456.456,0,0,1,.053-.709l.043.047a.4.4,0,0,0-.047.62Z" transform="translate(-1298.269 -392.374)" fill="#974245"/>
      <rect id="Rectangle_4439" data-name="Rectangle 4439" width="0.064" height="0.924" transform="matrix(0.945, -0.328, 0.328, 0.945, 56.865, 10.502)" fill="#974245"/>
      <path id="Path_29937" data-name="Path 29937" d="M1338.887,389.287l-.268-.8.06-.02.268.8Z" transform="translate(-1282.173 -377.781)" fill="#974245"/>
      <path id="Path_29938" data-name="Path 29938" d="M1333.424,390.99l-.334-.918.06-.022.334.918Z" transform="translate(-1276.997 -379.26)" fill="#974245"/>
      <path id="Path_29939" data-name="Path 29939" d="M1587.512,363.656c-.048-.808-.593-.644-.593-.644-.107-.352-.452-.116-.452-.116a.212.212,0,0,0-.219-.235c-.237,0-.73,1.376-.73,1.376s-.333-.665-.618-.712.192,1.71.192,1.71l-.137.553,2.151.757A20.927,20.927,0,0,0,1587.512,363.656Z" transform="translate(-1512.616 -353.621)" fill="#ffba9a"/>
      <path id="Path_29940" data-name="Path 29940" d="M1516.463,408.41l-1.242,4.195-3.582,4.775,2.047,2.132,3.631-5.334a2.6,2.6,0,0,0,.5-1.072c.181-.857.522-2.494.795-3.939Z" transform="translate(-1444.127 -396.446)" fill="#003e80"/>
      <path id="Path_29941" data-name="Path 29941" d="M1598.986,386.489l-.053-.036a.394.394,0,0,0-.113-.611l.038-.052A.456.456,0,0,1,1598.986,386.489Z" transform="translate(-1525.732 -375.272)" fill="#974245"/>
      <rect id="Rectangle_4440" data-name="Rectangle 4440" width="0.924" height="0.064" transform="matrix(0.226, -0.974, 0.974, 0.226, 73.607, 10.136)" fill="#974245"/>
      <rect id="Rectangle_4441" data-name="Rectangle 4441" width="0.84" height="0.064" transform="translate(74.069 10.216) rotate(-77.59)" fill="#974245"/>
      <path id="Path_29942" data-name="Path 29942" d="M1619.052,370.174l-.062-.015.235-.949.062.015Z" transform="translate(-1544.612 -359.753)" fill="#974245"/>
      <path id="Path_29943" data-name="Path 29943" d="M1468,517.089h0a.81.81,0,0,1-.81-.81V514.84h1.62v1.439A.809.809,0,0,1,1468,517.089Z" transform="translate(-1402.52 -496.069)" fill="#ffba9a"/>
      <path id="Path_29944" data-name="Path 29944" d="M1468.671,518a.814.814,0,0,1-1.611,0Z" transform="translate(-1402.399 -499.027)" fill="#001f40"/>
      <ellipse id="Ellipse_7429" data-name="Ellipse 7429" cx="1.196" cy="1.394" rx="1.196" ry="1.394" transform="translate(64.284 16.545)" fill="#ffba9a"/>
      <path id="Path_29945" data-name="Path 29945" d="M1457.036,468.242a1.278,1.278,0,0,1,.7-1.187l.826-.014a1.684,1.684,0,0,1,.643,1.236l.282-.014c.176-.939.021-1.858-.523-2.07l.269-.134c-2.243-.5-2.8.4-2.53,1.978Z" transform="translate(-1392.65 -450.279)" fill="#001f40"/>
      <path id="Path_29946" data-name="Path 29946" d="M1455.761,497.473a.333.333,0,1,1-.459-.2A.356.356,0,0,1,1455.761,497.473Z" transform="translate(-1391.226 -479.6)" fill="#ffba9a"/>
      <path id="Path_29947" data-name="Path 29947" d="M1458.139,500.5a.34.34,0,0,0-.219-.218l.019-.054a.392.392,0,0,1,.256.256Z" transform="translate(-1393.843 -482.393)" fill="#001f40"/>
      <path id="Path_29948" data-name="Path 29948" d="M1494.647,497.473a.333.333,0,1,0,.46-.2A.356.356,0,0,0,1494.647,497.473Z" transform="translate(-1428.183 -479.6)" fill="#ffba9a"/>
      <path id="Path_29949" data-name="Path 29949" d="M1498.223,500.464l-.053-.019a.391.391,0,0,1,.253-.256l.019.054A.34.34,0,0,0,1498.223,500.464Z" transform="translate(-1431.519 -482.356)" fill="#001f40"/>
      <path id="Path_29950" data-name="Path 29950" d="M1411.711,535.34c.831,2.8.552,7.082-.4,10.286l-3.373.523.76-10.072Z" transform="translate(-1347.06 -515.258)" fill="#003e80"/>
      <path id="Path_29951" data-name="Path 29951" d="M1492.4,533.84c.255,3.244.859,7.935,2.052,10.183l2.041-1.043-.7-8.64Z" transform="translate(-1426.118 -513.854)" fill="#003e80"/>
      <path id="Path_29952" data-name="Path 29952" d="M1489.9,685.117c-.018-.109-1.779-10.893-2.061-11.806-.276-.888-2.056-1.615-2.073-1.622l.048-.118c.076.03,1.855.758,2.147,1.7.286.921,1.993,11.378,2.066,11.823Z" transform="translate(-1419.912 -642.775)" fill="#001f40"/>
      <rect id="Rectangle_4442" data-name="Rectangle 4442" width="0.128" height="4.656" transform="translate(63.807 31.709) rotate(-15.95)" fill="#001f40"/>
      <path id="Path_29953" data-name="Path 29953" d="M1536.54,728.817l-.94-.09.012-.127.94.09Z" transform="translate(-1466.555 -696.158)" fill="#001f40"/>
      <path id="Path_29954" data-name="Path 29954" d="M866.4,1773.081l-.476,3.022h4.068l-1.594-1.594.119-1.5Z" transform="translate(-839.704 -1673.774)" fill="#001f40"/>
      <rect id="Rectangle_4443" data-name="Rectangle 4443" width="0.939" height="0.256" transform="translate(27.812 101.107) rotate(-30.47)" fill="#fff"/>
      <path id="Path_29955" data-name="Path 29955" d="M872.925,1430.36c-.06.36-.117.717-.183,1.07q-.167,1-.348,1.983-.64,3.528-1.407,6.832v.006c-1.013,4.448-2.174,8.611-3.453,12.542H863.92a176.765,176.765,0,0,0,3.32-19.145c.068-.782.115-1.535.137-2.244Z" transform="translate(-837.832 -1353.038)" fill="#14cca1"/>
      <path id="Path_29956" data-name="Path 29956" d="M999.857,1771.9l-.177,3.106,4.339.058-1.723-1.595.129-1.5Z" transform="translate(-964.91 -1672.735)" fill="#001f40"/>
      <rect id="Rectangle_4444" data-name="Rectangle 4444" width="0.995" height="0.256" transform="translate(36.455 101.092) rotate(-28.57)" fill="#fff"/>
      <path id="Path_29957" data-name="Path 29957" d="M959.353,1468.056h-3.781c-.265-4.3-.588-8.5-1.051-12.462v0c-.271-2.329-.588-4.582-.97-6.724q-.184-1.036-.391-2.038l3.115-.055,1.55-.025c.1.634.2,1.27.286,1.91A160.546,160.546,0,0,1,959.353,1468.056Z" transform="translate(-921.365 -1368.38)" fill="#14cca1"/>
      <path id="Path_29958" data-name="Path 29958" d="M923.177,1433.344l-2.184.1-2.375.108-2.778.128c.068-.782.114-1.535.137-2.244l5.547-1.045c-.06.36-.117.717-.183,1.071l1.55-.026C922.994,1432.067,923.092,1432.7,923.177,1433.344Z" transform="translate(-886.431 -1353.066)" fill="#4a191b" opacity="0.3"/>
      <path id="Path_29959" data-name="Path 29959" d="M968.855,1516.951l-.125-.025,1.285-6.376.125.025Z" transform="translate(-935.939 -1428.099)" fill="#001f40"/>
      <path id="Path_29960" data-name="Path 29960" d="M894.153,1299.351a7.529,7.529,0,0,1-5-.871L887.67,1301l1.727,1.543-.347,5.443a.8.8,0,0,0,.8.85h6.535a.85.85,0,0,0,.8-.556.871.871,0,0,0,.051-.256l.279-5.77,2.926-.692-.675-2.3A18.828,18.828,0,0,1,894.153,1299.351Z" transform="translate(-860.063 -1229.592)" fill="#007bff"/>
      <path id="Path_29961" data-name="Path 29961" d="M826.283,1179.349l-1.482,2.515-2.053-1.835c-.046-.04-.088-.083-.131-.128a3.021,3.021,0,0,1-.8-1.462c-.017-.071-.034-.148-.049-.225-.448-2-1.3-5.9-1.262-6.241.06-.463.534-.26.534-.26.037-.443.405-.2.405-.2,0-.251.083-.311.334-.3s.583,1.525.583,1.525.368-.785.64-.725-.237,1.57-.237,1.57l1.784,4.377A8.941,8.941,0,0,0,826.283,1179.349Z" transform="translate(-797.194 -1110.46)" fill="#ffba9a"/>
      <path id="Path_29962" data-name="Path 29962" d="M841.388,1281.63a1,1,0,0,1-.28.7,3.017,3.017,0,0,1-.8-1.462c-.017-.071-.034-.149-.048-.226a.952.952,0,0,1,.128-.009,1,1,0,0,1,1,1Z" transform="translate(-815.685 -1212.884)" fill="#ff5c33" opacity="0.2"/>
      <path id="Path_29963" data-name="Path 29963" d="M842.127,1198.43a.456.456,0,0,1,.013-.71l.045.045a.4.4,0,0,0-.011.622Z" transform="translate(-817.279 -1135.276)" fill="#974245"/>
      <path id="Path_29964" data-name="Path 29964" d="M834.861,1176.492l-.131-.629.063-.013.131.63Z" transform="translate(-810.509 -1114.805)" fill="#974245"/>
      <path id="Path_29965" data-name="Path 29965" d="M828.556,1179.52,828.4,1179l.061-.019.156.522Z" transform="translate(-804.584 -1117.734)" fill="#974245"/>
      <rect id="Rectangle_4445" data-name="Rectangle 4445" width="0.064" height="0.505" transform="translate(23.542 61.443) rotate(-15.01)" fill="#974245"/>
      <path id="Path_29966" data-name="Path 29966" d="M1080.409,1226.026c-.028.048-.059.094-.088.142l-.192.286a1.957,1.957,0,0,1-1.105.8.553.553,0,0,1-.074.02l-1.556.369-.673-2.3c.622-.074,1.262-.154,1.91-.24l1.927-3.64s0-1.548.214-1.593.384.9.384.9.831-1.259,1.093-1.259.191.357.191.357.243-.3.389-.157c.074.074.064.346.064.346a.264.264,0,0,1,.284-.01C1083.541,1220.2,1082.376,1222.87,1080.409,1226.026Z" transform="translate(-1037.022 -1155.672)" fill="#ffba9a"/>
      <path id="Path_29967" data-name="Path 29967" d="M1113.254,1319.845c-.028.048-.059.094-.088.143l-.192.286a1.955,1.955,0,0,1-1.1.8.949.949,0,0,1-.059-.334,1,1,0,0,1,1-1A.973.973,0,0,1,1113.254,1319.845Z" transform="translate(-1069.868 -1249.492)" fill="#ff5c33" opacity="0.2"/>
      <path id="Path_29968" data-name="Path 29968" d="M1148.182,1242.965l-.032-.056a.4.4,0,0,0,.165-.6l.056-.03A.459.459,0,0,1,1148.182,1242.965Z" transform="translate(-1103.884 -1176.986)" fill="#974245"/>
      <path id="Path_29969" data-name="Path 29969" d="M1161.386,1224.287l-.056-.031.3-.567.056.031Z" transform="translate(-1116.222 -1159.585)" fill="#974245"/>
      <path id="Path_29970" data-name="Path 29970" d="M1168.126,1227.238l-.056-.029.286-.549.056.029Z" transform="translate(-1122.53 -1162.365)" fill="#974245"/>
      <path id="Path_29971" data-name="Path 29971" d="M1172.544,1229.874l-.054-.034.263-.43.054.033Z" transform="translate(-1126.668 -1164.939)" fill="#974245"/>
      <rect id="Rectangle_4446" data-name="Rectangle 4446" width="0.128" height="3.45" transform="translate(27.564 71.466) rotate(-50.01)" fill="#001f40"/>
      <path id="Path_29972" data-name="Path 29972" d="M1039.107,1338.975l-.127-.007.192-3.688.127.007Z" transform="translate(-1001.696 -1264.039)" fill="#001f40"/>
      <path id="Path_29973" data-name="Path 29973" d="M972.083,1339.182a1.644,1.644,0,0,1-1.163-.518l.092-.089a1.487,1.487,0,0,0,1.209.471,1.151,1.151,0,0,0,.865-.567l.109.064a1.272,1.272,0,0,1-.959.627A1.376,1.376,0,0,1,972.083,1339.182Z" transform="translate(-937.989 -1267.034)" fill="#001f40"/>
      <path id="Path_29974" data-name="Path 29974" d="M970.949,1286.161h0a.929.929,0,0,1-1.023-.82l-.246-2.194,1.847-.207.246,2.194a.929.929,0,0,1-.824,1.027Z" transform="translate(-936.828 -1215.046)" fill="#ffba9a"/>
      <path id="Path_29975" data-name="Path 29975" d="M979.28,1296.084a2.974,2.974,0,0,0,1.467.981l-.132-1.185Z" transform="translate(-945.814 -1227.158)" fill="#001f40"/>
      <path id="Path_29976" data-name="Path 29976" d="M971.686,1256.477s.355,2.329-.458,2.627a2.574,2.574,0,0,1-1.758-.256l-.67-1.956.87-.793Z" transform="translate(-936.004 -1189.922)" fill="#ffba9a"/>
      <path id="Path_29977" data-name="Path 29977" d="M960.882,1243.019a1.3,1.3,0,0,1,.675-1.084,2.03,2.03,0,0,0,2.746-.731,1.918,1.918,0,0,1-1.215-.132c-.458-.294-1.631-1.151-2.374.09a1.1,1.1,0,0,0-.4,1.854Z" transform="translate(-927.736 -1175.329)" fill="#001f40"/>
      <ellipse id="Ellipse_7430" data-name="Ellipse 7430" cx="0.48" cy="0.554" rx="0.48" ry="0.554" transform="translate(32.251 67.627) rotate(-30.08)" fill="#ffba9a"/>
      <path id="Path_29978" data-name="Path 29978" d="M968.456,1278.263a.481.481,0,0,0-.266-.429l.058-.114a.608.608,0,0,1,.336.534Z" transform="translate(-935.434 -1210.159)" fill="#001f40"/>
      <path id="Path_29979" data-name="Path 29979" d="M893.432,975.33a4.432,4.432,0,0,1,2.03,8.373l.444,2.286-1.58-1.881a4.435,4.435,0,1,1-.9-8.778Z" transform="translate(-861.307 -927.109)" fill="#fff"/>
      <path id="Path_29980" data-name="Path 29980" d="M894.214,984.575l-1.848-2.2a4.579,4.579,0,1,1,1.33-.477Zm-1.752-2.481,1.311,1.561-.366-1.9.085-.043a4.245,4.245,0,1,0-1.1.393Z" transform="translate(-859.398 -925.235)" fill="#95beff"/>
      <circle id="Ellipse_7431" data-name="Ellipse 7431" cx="0.62" cy="0.62" r="0.62" transform="translate(29.439 52.14)" fill="#95beff"/>
      <circle id="Ellipse_7432" data-name="Ellipse 7432" cx="0.62" cy="0.62" r="0.62" transform="translate(31.505 52.14)" fill="#95beff"/>
      <circle id="Ellipse_7433" data-name="Ellipse 7433" cx="0.62" cy="0.62" r="0.62" transform="translate(33.571 52.14)" fill="#95beff"/>
      <path id="Path_29981" data-name="Path 29981" d="M1958.9,1247.83l-2.667,5.372-1.883,1.335,1.079,1.4c.492-.215.965-.423,1.327-.585a3.539,3.539,0,0,0,1.18-.853l1.979-2.175Z" transform="translate(-1858.525 -1182.181)" fill="#ff5c33"/>
      <path id="Path_29982" data-name="Path 29982" d="M1918.236,1353.235s-1.761-.045-1.7.478c.053.5,1.186.8,1.186.8s-.626.679-.407.69a21.732,21.732,0,0,0,2.717-1.074l-1.078-1.4Z" transform="translate(-1823.123 -1280.372)" fill="#ffba9a"/>
      <path id="Path_29983" data-name="Path 29983" d="M2048.843,1658.843l-.043,3.533h-4.18l1.939-1.724.215-1.983Z" transform="translate(-1943.021 -1566.747)" fill="#001f40"/>
      <rect id="Rectangle_4447" data-name="Rectangle 4447" width="0.256" height="0.898" transform="matrix(0.691, -0.723, 0.723, 0.691, 103.449, 93.996)" fill="#fff"/>
      <path id="Path_29984" data-name="Path 29984" d="M2135.86,1423.806l3.275-1.326,1.616,3.854-2.34-1.122-1.911.568Z" transform="translate(-2028.427 -1345.662)" fill="#001f40"/>
      <rect id="Rectangle_4448" data-name="Rectangle 4448" width="0.898" height="0.256" transform="translate(109.866 79.508) rotate(-69.05)" fill="#fff"/>
      <path id="Path_29985" data-name="Path 29985" d="M2010.74,1342.625l3.279,18.663,3.624-.127-2.225-20.85Z" transform="translate(-1911.308 -1268.747)" fill="#007bff"/>
      <path id="Path_29986" data-name="Path 29986" d="M2045.79,1355.515l.323,9.763a1.525,1.525,0,0,0,.868,1.326h0a1.526,1.526,0,0,0,1.414-.053l4.357-2.494-.2-3.87-2.478.921-.012-6.018Z" transform="translate(-1944.117 -1282.582)" fill="#007bff"/>
      <path id="Path_29987" data-name="Path 29987" d="M2021.884,1207.929l-3.492-2.047a3.1,3.1,0,0,0-1.2-.4l-2.251-.265-1.87.585a2.768,2.768,0,0,0-1.936,2.478l-.4,6.753,6.513-1.369.519-4.673,3.758,1.764a1.558,1.558,0,0,0,2.014-.567c.86-1.372,2.26-3.663,3.155-5.431l-2.137-.756Z" transform="translate(-1911.308 -1141.155)" fill="#ff5c33"/>
      <path id="Path_29988" data-name="Path 29988" d="M2229.422,1165.14s.106-.283-.035-.372-.3.07-.3.07.159-.389-.071-.46-1.116,1.221-1.116,1.221-.105-.814-.335-.8-.373,1.646-.373,1.646l-.312.459,2.136.758a6.353,6.353,0,0,0,.848-2.279C2229.833,1164.961,2229.422,1165.14,2229.422,1165.14Z" transform="translate(-2113.625 -1104.065)" fill="#ffba9a"/>
      <path id="Path_29989" data-name="Path 29989" d="M2243.828,1186.164l-.039-.051a.4.4,0,0,0,.088-.616l.052-.037A.454.454,0,0,1,2243.828,1186.164Z" transform="translate(-2129.453 -1123.8)" fill="#974245"/>
      <path id="Path_29990" data-name="Path 29990" d="M2256.3,1170.133l-.052-.037.37-.527.052.037Z" transform="translate(-2141.117 -1108.926)" fill="#974245"/>
      <rect id="Rectangle_4449" data-name="Rectangle 4449" width="0.545" height="0.064" transform="translate(115.447 61.406) rotate(-50.08)" fill="#974245"/>
      <rect id="Rectangle_4450" data-name="Rectangle 4450" width="0.505" height="0.064" transform="matrix(0.62, -0.785, 0.785, 0.62, 115.662, 61.652)" fill="#974245"/>
      <path id="Path_29991" data-name="Path 29991" d="M2051.894,1159.49a1.642,1.642,0,0,1-1.675,1.555,2.1,2.1,0,0,1-1.862-1.846c.057-.829.992-1.258,1.9-1.229C2051.53,1158.011,2051.95,1158.661,2051.894,1159.49Z" transform="translate(-1946.517 -1098.066)" fill="#e8950c"/>
      <path id="Path_29992" data-name="Path 29992" d="M2063.39,1199.056h0a.86.86,0,0,1-.8-.916l.131-1.95,1.717.116-.132,1.95A.86.86,0,0,1,2063.39,1199.056Z" transform="translate(-1959.841 -1133.844)" fill="#ffba9a"/>
      <path id="Path_29993" data-name="Path 29993" d="M2063.932,1212.287a2.314,2.314,0,0,1-1.312.792l.07-.929Z" transform="translate(-1959.87 -1148.783)" fill="#001f40"/>
      <path id="Path_29994" data-name="Path 29994" d="M2053.046,1170.361s-.335,2.212.421,2.449a2.649,2.649,0,0,0,1.692-.24l.184-1.673-.21-1.087Z" transform="translate(-1950.84 -1109.151)" fill="#ffba9a"/>
      <path id="Path_29995" data-name="Path 29995" d="M2054.04,1169.126a2.019,2.019,0,0,1-.471-1.034,3.323,3.323,0,0,1-1.959.117l.224-.695,1.653-.314.853.244Z" transform="translate(-1949.565 -1106.708)" fill="#e8950c"/>
      <ellipse id="Ellipse_7434" data-name="Ellipse 7434" cx="0.456" cy="0.394" rx="0.456" ry="0.394" transform="translate(104.07 62.53) rotate(-51.76)" fill="#ffba9a"/>
      <path id="Path_29996" data-name="Path 29996" d="M2089.128,1194.478l-.128-.009a.383.383,0,0,1,.4-.409l0,.128C2089.222,1194.193,2089.139,1194.282,2089.128,1194.478Z" transform="translate(-1984.563 -1131.85)" fill="#001f40"/>
      <circle id="Ellipse_7435" data-name="Ellipse 7435" cx="1.069" cy="1.069" r="1.069" transform="translate(103.762 60.217) rotate(-54.52)" fill="#e8950c"/>
      <path id="Path_29997" data-name="Path 29997" d="M2009.967,1268.761l-.127-.008.48-7.323.127.008Z" transform="translate(-1910.466 -1194.912)" fill="#001f40"/>
      <path id="Path_29998" data-name="Path 29998" d="M2106.662,1273.131l-2.782-1.407.057-.114,2.783,1.407Z" transform="translate(-1998.492 -1204.44)" fill="#001f40"/>
      <path id="Path_29999" data-name="Path 29999" d="M2059.6,1243.218a.842.842,0,0,1-.152-.013.977.977,0,0,1-.749-.771l.123-.034a.855.855,0,0,0,.647.679,1.145,1.145,0,0,0,1.072-.571l.105.073A1.343,1.343,0,0,1,2059.6,1243.218Z" transform="translate(-1956.201 -1177.098)" fill="#001f40"/>
      <path id="Path_30000" data-name="Path 30000" d="M2047.22,1396.372a1.582,1.582,0,0,1-.506-.08,1.5,1.5,0,0,1-.94-.941c-.256-.935-.384-8.355-.384-8.671h.128c0,.076.132,7.72.384,8.639a1.377,1.377,0,0,0,.857.853,2.624,2.624,0,0,0,2.325-.716l.078.1A3.311,3.311,0,0,1,2047.22,1396.372Z" transform="translate(-1943.742 -1312.152)" fill="#001f40"/>
      <rect id="Rectangle_4451" data-name="Rectangle 4451" width="4.708" height="0.128" transform="translate(103.988 79.158) rotate(-20.06)" fill="#001f40"/>
      <path id="Path_30001" data-name="Path 30001" d="M2076.088,913.33a4.432,4.432,0,0,0-2.03,8.373l-.443,2.286,1.579-1.881a4.435,4.435,0,1,0,.9-8.778Z" transform="translate(-1968.325 -869.074)" fill="#fff"/>
      <path id="Path_30002" data-name="Path 30002" d="M2071.656,922.707l.518-2.677a4.513,4.513,0,1,1,1.331.476Zm2.693-10.991a4.3,4.3,0,0,0-1.972,8.132l.085.043-.367,1.9,1.312-1.561.075.015a4.307,4.307,0,1,0,.867-8.525Z" transform="translate(-1966.586 -867.332)" fill="#95beff"/>
      <circle id="Ellipse_7436" data-name="Ellipse 7436" cx="0.62" cy="0.62" r="0.62" transform="translate(105.076 48.051)" fill="#95beff"/>
      <circle id="Ellipse_7437" data-name="Ellipse 7437" cx="0.62" cy="0.62" r="0.62" transform="translate(107.143 48.051)" fill="#95beff"/>
      <circle id="Ellipse_7438" data-name="Ellipse 7438" cx="0.62" cy="0.62" r="0.62" transform="translate(109.209 48.051)" fill="#95beff"/>
      <rect id="Rectangle_4452" data-name="Rectangle 4452" width="135.294" transform="translate(0 101.705)" fill="#001f40"/>
    </g>
  </g>
</svg>
