<svg id="location-svgrepo-com_1_" data-name="location-svgrepo-com (1)" xmlns="http://www.w3.org/2000/svg" width="10.412" height="14" viewBox="0 0 10.412 14">
  <g id="Group_12230" data-name="Group 12230" transform="translate(0)">
    <g id="Group_12229" data-name="Group 12229">
      <path id="Path_19287" data-name="Path 19287" d="M46.309,0A5.2,5.2,0,0,0,41.1,5.173c0,2.762,4.746,8.465,4.948,8.707a.337.337,0,0,0,.516,0c.2-.241,4.948-5.945,4.948-8.707A5.2,5.2,0,0,0,46.309,0Zm0,13.138c-.421-.522-1.3-1.635-2.16-2.907C42.6,7.948,41.774,6.2,41.774,5.173a4.535,4.535,0,0,1,9.07,0c0,1.025-.821,2.774-2.375,5.058C47.6,11.5,46.73,12.616,46.309,13.138Z" transform="translate(-41.103 0)" fill="#707070"/>
      <path id="Path_19289" data-name="Path 19289" d="M98.564,57.5a2.927,2.927,0,1,0,2.564,2.9A2.753,2.753,0,0,0,98.564,57.5Zm0,5.1a2.213,2.213,0,1,1,1.939-2.2A2.082,2.082,0,0,1,98.564,62.6Z" transform="translate(-93.358 -55.047)" fill="#707070"/>
    </g>
  </g>
</svg>
