<svg xmlns="http://www.w3.org/2000/svg" width="21" height="18" viewBox="0 0 21 18">
  <g id="_011-01" data-name="011-01" transform="translate(-120.92 -292.6)">
    <path id="Path_30940" data-name="Path 30940" d="M248.65,356.682v10.972l-1.33-.416q-3.175-.991-6.351-1.979c-.2-.062-.288-.14-.287-.371.011-1.812.006-3.624.006-5.436v-.278Z" transform="translate(-113.004 -62.382)" fill="#143c6d"/>
    <path id="Path_30941" data-name="Path 30941" d="M390.708,334.829q0,3.256,0,6.512a1.058,1.058,0,0,1-2.095.274,2.021,2.021,0,0,1-.029-.369q0-6.44,0-12.88a1.085,1.085,0,0,1,.9-1.206,1.053,1.053,0,0,1,1.214.9,3.484,3.484,0,0,1,.011.371Q390.709,331.63,390.708,334.829Z" transform="translate(-252.466 -34.545)" fill="#143c6d"/>
    <path id="Path_30942" data-name="Path 30942" d="M162.252,401.5v5.813h-4.224V401.5Zm-2.4,1.829V402.3h-1.027v1.032Zm1.595-1.032h-1.02v1.031h1.02Z" transform="translate(-34.972 -104.66)" fill="#143c6d"/>
    <path id="Path_30943" data-name="Path 30943" d="M181.076,519.556c-.682,0-1.322.006-1.961-.01-.066,0-.17-.129-.187-.213-.292-1.414-.574-2.831-.858-4.247q-.273-1.365-.544-2.73c-.015-.073-.022-.148-.037-.258.678,0,1.335-.005,1.991.01.052,0,.13.141.148.226q.578,2.84,1.143,5.683C180.869,518.512,180.967,519.008,181.076,519.556Z" transform="translate(-53.36 -208.957)" fill="#143c6d"/>
    <path id="Path_30944" data-name="Path 30944" d="M435.158,416.632v-4.608l1.383.393c.523.15,1.045.306,1.57.447.151.041.222.1.22.268-.009.795,0,1.59-.011,2.385a.313.313,0,0,1-.153.243C437.182,416.055,436.19,416.336,435.158,416.632Z" transform="translate(-296.412 -114.577)" fill="#143c6d"/>
    <path id="Path_30945" data-name="Path 30945" d="M120.92,419.9h1.568v3.692H120.92Z" transform="translate(0 -121.998)" fill="#143c6d"/>
    <path id="Path_30950" data-name="Path 30950" d="M172.778,416.276h-.922v-.923h.922Z" transform="translate(-47.967 -117.654)" fill="#143c6d"/>
    <path id="Path_30951" data-name="Path 30951" d="M172.71,416.276h-.854v-.923h.854Z" transform="translate(-46.327 -117.654)" fill="#143c6d"/>
  </g>
</svg>
